<?xml version="1.0" standalone="no"?>
<!DOCTYPE svg PUBLIC "-//W3C//DTD SVG 1.1//EN" "http://www.w3.org/Graphics/SVG/1.1/DTD/svg11.dtd" >
<svg xmlns="http://www.w3.org/2000/svg" xmlns:xlink="http://www.w3.org/1999/xlink" version="1.1">
<metadata>
Created by FontForge 20200427 at Mon Aug 22 16:48:52 2016
 By www
Copyright (c) 2016 Monotype Imaging Inc. All rights reserved.
</metadata>
<defs>
<font id="NeueKabelW01-Light" horiz-adv-x="0" >
  <font-face 
    font-family="NeueKabelW01-Light"
    font-weight="350"
    font-stretch="normal"
    units-per-em="1000"
    panose-1="2 12 4 2 2 2 3 2 3 3"
    ascent="800"
    descent="-200"
    x-height="435"
    cap-height="706"
    bbox="-412 -239 1122 966"
    underline-thickness="50"
    underline-position="-125"
    unicode-range="U+000D-2122"
  />
<missing-glyph horiz-adv-x="680" 
d="M585 0h-490v725h490v-725zM169 679l171 -279l171 279h-342zM142 77l175 286l-175 285v-571zM538 77v571l-175 -285zM511 45l-171 280l-171 -280h342z" />
    <glyph glyph-name=".notdef" horiz-adv-x="680" 
d="M585 0h-490v725h490v-725zM169 679l171 -279l171 279h-342zM142 77l175 286l-175 285v-571zM538 77v571l-175 -285zM511 45l-171 280l-171 -280h342z" />
    <glyph glyph-name="glyph1" 
 />
    <glyph glyph-name="glyph1" 
 />
    <glyph glyph-name="uni000D" unicode="&#xd;" horiz-adv-x="217" 
 />
    <glyph glyph-name="space" unicode=" " horiz-adv-x="217" 
 />
    <glyph glyph-name="exclam" unicode="!" horiz-adv-x="244" 
d="M97 440v254l51 12v-266l-4 -236h-44zM90 6.5q-13 12.5 -13 31.5t13 31.5t32 12.5t32 -12.5t13 -31.5t-13 -31.5t-32 -12.5t-32 12.5z" />
    <glyph glyph-name="quotedbl" unicode="&#x22;" horiz-adv-x="339" 
d="M70 700h48v-253l-48 -11v264zM221 700h48v-253l-48 -11v264z" />
    <glyph glyph-name="numbersign" unicode="#" horiz-adv-x="702" 
d="M521 469l-38 -216h119v-45h-126l-37 -208h-50l37 208h-204l-37 -208h-50l37 208h-118v45h125l38 216h-117v45h125l33 186h50l-33 -186h204l33 186h50l-33 -186h119v-45h-127zM471 469h-204l-38 -216h204z" />
    <glyph glyph-name="dollar" unicode="$" horiz-adv-x="522" 
d="M438 93.5q-21 -40.5 -59.5 -67t-88.5 -34.5v-72h-48v69q-56 2 -105 24t-86 54l12 55q38 -37 84 -60t95 -25v302q-85 29 -127 76t-42 116q0 47 21.5 86.5t60 64t87.5 28.5v64l48 12v-76q73 -8 141 -53l-10 -53q-68 49 -131 57v-281l2 -1q86 -28 126.5 -77t40.5 -119
q0 -49 -21 -89.5zM153 450q29 -32 89 -54v266q-35 -4 -62 -22t-41.5 -46.5t-14.5 -62.5q0 -49 29 -81zM375 90.5q32 38.5 32 91.5q0 49 -27.5 84t-89.5 58v-283q53 11 85 49.5z" />
    <glyph glyph-name="percent" unicode="%" horiz-adv-x="853" 
d="M130 18l558 690l31 -26l-557 -690zM549 18.5q-32 24.5 -49 67.5t-17 96t17 96t49 67.5t76 24.5t76.5 -25t49.5 -67.5t17 -95.5t-17 -95.5t-49.5 -67.5t-76.5 -25t-76 24.5zM679.5 54.5q22.5 19.5 34 52.5t11.5 75t-11.5 75t-34 52.5t-54.5 19.5q-31 0 -53 -19.5
t-33.5 -52.5t-11.5 -75t11.5 -75t33.5 -52.5t53 -19.5q32 0 54.5 19.5zM151 353.5q-32 24.5 -49 67.5t-17 96t17 96t49 67.5t76 24.5t76.5 -25t49.5 -67.5t17 -95.5t-17 -95.5t-49.5 -67.5t-76.5 -25t-76 24.5zM281.5 389.5q22.5 19.5 34 52.5t11.5 75t-11.5 75t-34 52.5
t-54.5 19.5q-31 0 -53 -19.5t-33.5 -52.5t-11.5 -75t11.5 -75t33.5 -52.5t53 -19.5q32 0 54.5 19.5z" />
    <glyph glyph-name="ampersand" unicode="&#x26;" horiz-adv-x="639" 
d="M561 -8l-101 110q-45 -54 -97.5 -84t-110.5 -30q-52 0 -95 24t-68 65.5t-25 92.5q0 46 20.5 81.5t53 62t79.5 54.5q-32 36 -52 63t-32 57t-12 63q0 44 22.5 81t61 58.5t84.5 21.5q47 0 85.5 -21.5t61 -58.5t22.5 -81t-22.5 -78.5t-55.5 -59.5t-86 -56l164 -177
q49 74 85 170l46 -17q-43 -112 -97 -190l107 -116zM230.5 649q-26.5 -15 -42 -41t-15.5 -58q0 -37 21 -71t67 -85q48 27 77 48t48.5 48.5t19.5 61.5q0 31 -15.5 56.5t-42.5 40.5t-59 15t-58.5 -15zM344 63q44 27 83 76l-176 192l-1 1q-42 -26 -70 -48t-45.5 -51t-17.5 -64
q0 -37 18 -67.5t49.5 -48t69.5 -17.5q46 0 90 27z" />
    <glyph glyph-name="quotesingle" unicode="'" horiz-adv-x="188" 
d="M70 700h48v-253l-48 -11v264z" />
    <glyph glyph-name="parenleft" unicode="(" horiz-adv-x="353" 
d="M172 -21q-52 69 -79.5 152.5t-27.5 174.5t27.5 174.5t79.5 152.5t123 118l28 -39q-100 -71 -154 -177t-54 -229t54 -229t154 -177l-28 -39q-71 49 -123 118z" />
    <glyph glyph-name="parenright" unicode=")" horiz-adv-x="353" 
d="M30 -100q100 71 154 177t54 229t-54 229t-154 177l28 39q71 -49 123 -118t79.5 -152.5t27.5 -174.5t-27.5 -174.5t-79.5 -152.5t-123 -118z" />
    <glyph glyph-name="asterisk" unicode="*" horiz-adv-x="395" 
d="M226 556l76 -99l-34 -25l-70 103l-71 -103l-35 25l78 99l-120 35l13 41l117 -42l-4 124h43l-4 -125l118 42l13 -41z" />
    <glyph glyph-name="plus" unicode="+" horiz-adv-x="505" 
d="M464 308h-189v-203h-45v203h-189v44h189v203h45v-203h189v-44z" />
    <glyph glyph-name="comma" unicode="," horiz-adv-x="240" 
d="M119 112h57l-96 -264l-52 -8z" />
    <glyph glyph-name="hyphen" unicode="-" horiz-adv-x="344" 
d="M64 249h216v-43h-216v43z" />
    <glyph glyph-name="period" unicode="." horiz-adv-x="244" 
d="M90 6.5q-13 12.5 -13 31.5t13 31.5t32 12.5t32 -12.5t13 -31.5t-13 -31.5t-32 -12.5t-32 12.5z" />
    <glyph glyph-name="slash" unicode="/" horiz-adv-x="382" 
d="M325 765h48l-291 -920h-48z" />
    <glyph glyph-name="zero" unicode="0" horiz-adv-x="632" 
d="M179 39q-58 48 -88 130t-30 181t30 181t88 130t137 48t137 -48t88 -130t30 -181t-30 -181t-88 -130t-137 -48t-137 48zM426.5 81q45.5 42 68.5 113t23 156t-23 156t-68.5 113t-110.5 42t-110.5 -42t-68.5 -113t-23 -156t23 -156t68.5 -113t110.5 -42t110.5 42z" />
    <glyph glyph-name="one" unicode="1" horiz-adv-x="348" 
d="M250 717v-717h-51v624l-153 -106l-11 52z" />
    <glyph glyph-name="two" unicode="2" horiz-adv-x="546" 
d="M474 49l-10 -49h-412l228 261q51 58 80 96t44.5 74t15.5 73q0 45 -21 81t-56.5 56.5t-79.5 20.5q-43 0 -79 -20.5t-56.5 -56t-20.5 -78.5q0 -21 5 -41t15 -42l-51 -10q-21 44 -21 93q0 57 27.5 103.5t75 73.5t105.5 27t106 -27t75.5 -74t27.5 -106q0 -41 -15.5 -80
t-47.5 -83.5t-88 -107.5l-162 -184h315z" />
    <glyph glyph-name="three" unicode="3" horiz-adv-x="530" 
d="M357.5 401.5q48.5 -28.5 77 -78t28.5 -108.5q0 -62 -31 -113t-84 -81t-116 -30q-59 0 -108.5 26t-83.5 72l28 44q27 -43 69.5 -68.5t94.5 -25.5q49 0 90 23.5t65 64t24 89.5q0 48 -23.5 88t-65 63t-93.5 23q-35 0 -84 -13l214 275h-295l10 48h386l-215 -270h6
q58 0 106.5 -28.5z" />
    <glyph glyph-name="four" unicode="4" horiz-adv-x="551" 
d="M504 190h-97v-190h-50v190h-338l388 534v-487h97v-47zM357 237v338l-243 -338h243z" />
    <glyph glyph-name="five" unicode="5" horiz-adv-x="539" 
d="M360 408.5q52 -29.5 82 -81t30 -112.5q0 -62 -31 -113t-84 -81t-117 -30q-55 0 -102 21.5t-80 57.5l20 48q28 -36 70.5 -57.5t90.5 -21.5q50 0 91.5 23.5t65 64t23.5 88.5t-23.5 88.5t-64 63.5t-91.5 23q-40 0 -80 -15.5t-77 -46.5l26 372h333l-10 -48h-277l-17 -242
q48 28 108 28q62 0 114 -29.5z" />
    <glyph glyph-name="six" unicode="6" horiz-adv-x="583" 
d="M411 411.5q51 -29.5 80.5 -81t29.5 -113.5t-30.5 -114t-83.5 -82t-116 -30q-64 0 -116.5 31t-82.5 84.5t-30 119.5q0 95 49.5 189.5t126.5 172.5t160 127l32 -38q-86 -55 -162.5 -130t-117.5 -167q28 29 66 45t83 16q61 0 112 -29.5zM381 63q40 24 63.5 64.5t23.5 89.5
t-23.5 89.5t-63.5 64t-89 23.5t-89.5 -23.5t-64 -64t-23.5 -89.5t23.5 -89.5t64 -64.5t89.5 -24t89 24z" />
    <glyph glyph-name="seven" unicode="7" horiz-adv-x="502" 
d="M475 700l-293 -700h-55l274 652h-374l10 48h438z" />
    <glyph glyph-name="eight" unicode="8" horiz-adv-x="556" 
d="M458.5 291q34.5 -47 34.5 -106q0 -53 -28.5 -97.5t-77.5 -70.5t-108 -26t-108.5 26t-78 70.5t-28.5 97.5q0 59 34.5 106t90.5 69q-52 22 -83.5 66t-31.5 99q0 50 27 92.5t74 67t104 24.5q56 0 103 -24.5t74 -67t27 -92.5q0 -55 -31.5 -99t-83.5 -66q56 -22 90.5 -69z
M146.5 451.5q20.5 -31.5 55.5 -50t77 -18.5q41 0 76 18.5t55 50t20 69.5t-20 70.5t-55 51t-76 18.5q-42 0 -77 -18.5t-55.5 -51t-20.5 -70.5t20.5 -69.5zM360 59q37 20 58.5 54t21.5 75t-21.5 75.5t-58.5 54.5t-81 20q-45 0 -82.5 -20t-59 -54.5t-21.5 -75.5t21.5 -75
t59 -54t82.5 -20q44 0 81 20z" />
    <glyph glyph-name="nine" unicode="9" horiz-adv-x="583" 
d="M408.5 678q52.5 -31 82.5 -84.5t30 -119.5q0 -95 -49.5 -189.5t-126.5 -172.5t-160 -127l-32 38q86 55 162.5 130t117.5 167q-28 -29 -66 -45t-83 -16q-61 0 -112 29.5t-80.5 81t-29.5 113.5t30.5 114t83.5 82t116 30q64 0 116.5 -31zM380.5 329.5q40.5 23.5 64 64
t23.5 89.5t-23.5 89.5t-64 64.5t-89.5 24t-89 -24t-63.5 -64.5t-23.5 -89.5t23.5 -89.5t63.5 -64t89 -23.5t89.5 23.5z" />
    <glyph glyph-name="colon" unicode=":" horiz-adv-x="244" 
d="M90 6.5q-13 12.5 -13 31.5t13 31.5t32 12.5t32 -12.5t13 -31.5t-13 -31.5t-32 -12.5t-32 12.5zM90 365.5q-13 12.5 -13 31.5t13 31.5t32 12.5t32 -12.5t13 -31.5t-13 -31.5t-32 -12.5t-32 12.5z" />
    <glyph glyph-name="semicolon" unicode=";" horiz-adv-x="264" 
d="M110 365.5q-13 12.5 -13 31.5t13 31.5t32 12.5t32 -12.5t13 -31.5t-13 -31.5t-32 -12.5t-32 12.5zM119 112h57l-96 -264l-52 -8z" />
    <glyph glyph-name="less" unicode="&#x3c;" horiz-adv-x="485" 
d="M434 484l-329 -164l329 -164v-53l-393 201v32l393 201v-53z" />
    <glyph glyph-name="equal" unicode="=" horiz-adv-x="492" 
d="M46 427h400v-44h-400v44zM46 257h400v-44h-400v44z" />
    <glyph glyph-name="greater" unicode="&#x3e;" horiz-adv-x="485" 
d="M444 336v-32l-393 -201v53l329 164l-329 164v53z" />
    <glyph glyph-name="question" unicode="?" horiz-adv-x="430" 
d="M179 260q-1 38 9.5 67t27 48.5t43.5 45.5q23 22 36.5 38t22.5 37t9 47q0 34 -15.5 61t-43 42t-61.5 15q-36 0 -63.5 -17t-43 -47.5t-14.5 -68.5l-51 12q0 47 22 85.5t61.5 61t89.5 22.5q47 0 86 -20.5t62 -58t23 -85.5q0 -35 -10.5 -62t-26 -45t-41.5 -42
q-25 -24 -39.5 -40.5t-24.5 -40.5t-10 -55l-1 -56h-45zM172 6.5q-13 12.5 -13 31.5t13 31.5t32 12.5t32 -12.5t13 -31.5t-13 -31.5t-32 -12.5t-32 12.5z" />
    <glyph glyph-name="at" unicode="@" horiz-adv-x="952" 
d="M620 264q-3 -18 -3 -34q0 -43 22 -69t62 -26q35 0 66 20t50.5 59.5t19.5 93.5q0 89 -47.5 164t-129.5 118.5t-181 43.5q-101 0 -184.5 -48t-131.5 -131t-48 -184q0 -100 49.5 -182.5t135.5 -130t191 -47.5q107 0 204 55l9 -43q-42 -24 -98.5 -39t-118.5 -15
q-115 0 -210 53t-150 145t-55 204q0 113 54 206t147.5 146.5t207.5 53.5q110 0 201.5 -49t144.5 -133t53 -185q0 -66 -25 -114.5t-65.5 -74t-87.5 -25.5q-45 0 -76.5 24.5t-40.5 69.5q-23 -39 -62.5 -61t-82.5 -22q-41 0 -75.5 20t-54.5 55.5t-20 80.5q0 51 24.5 94.5t66 69
t90.5 25.5q43 0 76.5 -20.5t50.5 -59.5l12 61l45 12zM514 169.5q31 19.5 49 53t18 71.5q0 33 -14 59t-39 41t-57 15q-36 0 -67 -19.5t-49 -52.5t-18 -71q0 -33 14.5 -59.5t40 -41.5t56.5 -15q35 0 66 19.5z" />
    <glyph glyph-name="A" unicode="A" horiz-adv-x="682" 
d="M484 277h-286l-120 -277h-54l317 725l318 -725h-55zM464 324l-123 285l-123 -285h246z" />
    <glyph glyph-name="B" unicode="B" horiz-adv-x="547" 
d="M446 295q37 -46 37 -109q0 -54 -26.5 -96t-75.5 -66t-116 -24h-172v700h167q61 0 108 -23t73 -63.5t26 -92.5q0 -57 -32.5 -100t-89.5 -63q64 -17 101 -63zM144 652v-274h116q45 0 80.5 18t55 50t19.5 72q0 39 -19.5 69.5t-55 47.5t-80.5 17h-116zM353.5 66
q37.5 18 57.5 50t20 73q0 42 -20 73.5t-56.5 49.5t-84.5 18h-126v-282h121q51 0 88.5 18z" />
    <glyph glyph-name="C" unicode="C" horiz-adv-x="681" 
d="M241.5 37q-83.5 48 -131.5 130.5t-48 182.5t48 182.5t132 130.5t185 48q92 0 174 -42l-10 -52q-36 22 -78.5 34t-86.5 12q-86 0 -157 -41.5t-112.5 -113.5t-41.5 -158t41.5 -158t112.5 -113.5t157 -41.5q91 0 174 51l10 -51q-87 -48 -184 -48q-101 0 -184.5 48z" />
    <glyph glyph-name="D" unicode="D" horiz-adv-x="641" 
d="M93 700h121q103 0 186.5 -45.5t131 -125.5t47.5 -179t-47.5 -179t-131 -125.5t-186.5 -45.5h-121v700zM214 48q88 0 159.5 39.5t112 108.5t40.5 154t-40.5 154t-112 108.5t-159.5 39.5h-70v-604h70z" />
    <glyph glyph-name="E" unicode="E" horiz-adv-x="529" 
d="M472 48l-10 -48h-369v700h357l10 -48h-316v-264h265v-49h-265v-291h328z" />
    <glyph glyph-name="F" unicode="F" horiz-adv-x="501" 
d="M144 362h245v-48h-245v-314h-51v700h340l10 -48h-299v-290z" />
    <glyph glyph-name="G" unicode="G" horiz-adv-x="732" 
d="M654 363v-314q-48 -29 -107.5 -44.5t-122.5 -15.5q-100 0 -183 48t-131 130.5t-48 182.5t48.5 182.5t133 130.5t185.5 48q52 0 101.5 -12.5t93.5 -36.5l-10 -53q-40 26 -87.5 40t-97.5 14q-87 0 -159 -41.5t-113.5 -113.5t-41.5 -158t41 -158t112 -113.5t156 -41.5
q100 0 179 42v235h-216l10 49h257z" />
    <glyph glyph-name="H" unicode="H" horiz-adv-x="761" 
d="M668 706v-706h-51v332h-473v-332h-51v694l51 12v-326h473v314z" />
    <glyph glyph-name="I" unicode="I" horiz-adv-x="247" 
d="M98 694l51 12v-706h-51v694z" />
    <glyph glyph-name="J" unicode="J" horiz-adv-x="448" 
d="M30 41l17 47q29 -26 59 -38.5t65 -12.5q67 0 104 43.5t37 128.5v485l51 12v-501q0 -69 -23 -117.5t-65.5 -74t-100.5 -25.5q-81 0 -144 53z" />
    <glyph glyph-name="K" unicode="K" horiz-adv-x="551" 
d="M448 0l-304 352v-352h-51v694l51 12v-338l295 332h67l-308 -340l316 -360h-66z" />
    <glyph glyph-name="L" unicode="L" horiz-adv-x="514" 
d="M461 48l-10 -48h-358v694l51 12v-658h317z" />
    <glyph glyph-name="M" unicode="M" horiz-adv-x="904" 
d="M783 0l-51 560l-280 -577l-280 577l-51 -560h-51l68 734l314 -647l314 647l68 -734h-51z" />
    <glyph glyph-name="N" unicode="N" horiz-adv-x="777" 
d="M683 -25l-539 619v-594h-51v725l539 -618v587l51 13v-732z" />
    <glyph glyph-name="O" unicode="O" horiz-adv-x="852" 
d="M242.5 37q-83.5 48 -132 130.5t-48.5 182.5t48.5 182.5t132 130.5t183.5 48t183.5 -48t132 -130.5t48.5 -182.5t-48.5 -182.5t-132 -130.5t-183.5 -48t-183.5 48zM583 78.5q71 41.5 112.5 113.5t41.5 158t-41.5 158t-112.5 113.5t-157 41.5t-157 -41.5t-112.5 -113.5
t-41.5 -158t41.5 -158t112.5 -113.5t157 -41.5t157 41.5z" />
    <glyph glyph-name="P" unicode="P" horiz-adv-x="530" 
d="M354 670q59 -30 92 -83t33 -119q0 -67 -32.5 -119.5t-92 -82.5t-135.5 -30h-75v-236h-51v700h126q76 0 135 -30zM327 307.5q47 23.5 73 65.5t26 95q0 52 -26 94t-73 66t-108 24h-75v-368h75q61 0 108 23.5z" />
    <glyph glyph-name="Q" unicode="Q" horiz-adv-x="852" 
d="M762 207.5q-28 -66.5 -79 -116.5l92 -85l-32 -34l-96 89q-47 -35 -103 -53.5t-118 -18.5q-100 0 -183.5 48t-132 130.5t-48.5 182.5t48.5 182.5t132 130.5t183.5 48t183.5 -48t132 -130.5t48.5 -182.5q0 -76 -28 -142.5zM523.5 52.5q46.5 15.5 85.5 43.5l-141 131l31 34
l146 -135q44 44 68 101.5t24 122.5q0 86 -41.5 158t-112.5 113.5t-157 41.5t-157 -41.5t-112.5 -113.5t-41.5 -158t41.5 -158t112.5 -113.5t157 -41.5q51 0 97.5 15.5z" />
    <glyph glyph-name="R" unicode="R" horiz-adv-x="526" 
d="M404 0l-260 293v-293h-51v700h124q69 0 122.5 -27t83.5 -75.5t30 -109.5q0 -60 -30 -108t-82.5 -75t-119.5 -27l250 -278h-67zM144 321h73q54 0 95.5 21.5t64 59t22.5 85.5t-22.5 85.5t-64 58.5t-95.5 21h-73v-331z" />
    <glyph glyph-name="S" unicode="S" horiz-adv-x="522" 
d="M141.5 11q-50.5 22 -90.5 56l12 55q39 -38 88 -61.5t100 -23.5q46 0 81.5 19t55 52t19.5 74q0 53 -31 88.5t-102 58.5l-31 10q-86 29 -128 76t-42 116q0 51 24.5 92t67.5 64.5t98 23.5q40 0 83.5 -13.5t84.5 -40.5l-10 -53q-81 59 -158 59q-40 0 -72 -17t-49.5 -47
t-17.5 -68q0 -53 33.5 -86t103.5 -56l31 -10q86 -28 126.5 -77t40.5 -119q0 -55 -26.5 -99.5t-74 -69.5t-107.5 -25q-59 0 -109.5 22z" />
    <glyph glyph-name="T" unicode="T" horiz-adv-x="532" 
d="M292 652v-652h-51v652h-218l10 48h467l9 -48h-217z" />
    <glyph glyph-name="U" unicode="U" horiz-adv-x="674" 
d="M205 22.5q-57 33.5 -88.5 94.5t-31.5 143v434l51 12v-442q0 -69 25 -120t70.5 -79t105.5 -28t105.5 28t70 79t24.5 120v430l51 12v-446q0 -82 -31 -143t-88 -94.5t-132 -33.5t-132 33.5z" />
    <glyph glyph-name="V" unicode="V" horiz-adv-x="682" 
d="M659 700l-318 -725l-317 725h54l263 -609l263 609h55z" />
    <glyph glyph-name="W" unicode="W" horiz-adv-x="1020" 
d="M739 -23l-229 610l-230 -610l-251 723h53l202 -583l226 599l226 -599l202 583h53z" />
    <glyph glyph-name="X" unicode="X" horiz-adv-x="661" 
d="M558 0l-227 321l-228 -321h-61l259 361l-243 339h61l212 -298l211 298h61l-244 -339l260 -361h-61z" />
    <glyph glyph-name="Y" unicode="Y" horiz-adv-x="577" 
d="M314 276v-276h-51v276l-237 424h57l206 -371l205 371h57z" />
    <glyph glyph-name="Z" unicode="Z" horiz-adv-x="662" 
d="M151 48h448l-10 -48h-532l455 652h-432l9 48h516z" />
    <glyph glyph-name="bracketleft" unicode="[" horiz-adv-x="358" 
d="M93 755h213v-45h-164v-810h164v-45h-213v900z" />
    <glyph glyph-name="backslash" unicode="\" horiz-adv-x="382" 
d="M300 -155l-291 920h48l291 -920h-48z" />
    <glyph glyph-name="bracketright" unicode="]" horiz-adv-x="358" 
d="M52 -145v45h164v810h-164v45h213v-900h-213z" />
    <glyph glyph-name="asciicircum" unicode="^" horiz-adv-x="437" 
d="M338 426l-119 227l-120 -227h-56l147 274h57l147 -274h-56z" />
    <glyph glyph-name="underscore" unicode="_" horiz-adv-x="356" 
d="M0 -90h356v-41h-356v41z" />
    <glyph glyph-name="grave" unicode="`" horiz-adv-x="400" 
d="M89 649l27 43l190 -126l-24 -38z" />
    <glyph glyph-name="a" unicode="a" horiz-adv-x="445" 
d="M333 0l-3 46q-22 -26 -54.5 -40.5t-69.5 -14.5q-45 0 -82.5 21t-59.5 58t-22 81t22 81t59.5 58t82.5 21q37 0 68 -15t54 -40v33q0 58 -26.5 84.5t-85.5 26.5q-51 0 -106 -20l9 45q50 17 99 17q157 0 157 -149v-205l2 -88h-44zM271 48q28 16 44 43t16 60t-16 60t-44 43
t-62 16q-33 0 -61 -16t-44 -43.5t-16 -59.5t16 -59.5t44 -43.5t61 -16q34 0 62 16z" />
    <glyph glyph-name="b" unicode="b" horiz-adv-x="560" 
d="M406 414q52 -30 82 -81.5t30 -114.5t-30.5 -115t-83.5 -82t-116 -30q-64 0 -116 29.5t-82 82t-30 117.5v499l48 12v-387q28 47 76 73.5t107 26.5q63 0 115 -30zM380 59q42 24 66 66t24 93q0 50 -24 92t-65 66t-91 24t-92 -24t-66 -66t-24 -93q0 -50 23.5 -92t65 -66
t91.5 -24t92 24z" />
    <glyph glyph-name="c" unicode="c" horiz-adv-x="426" 
d="M155.5 21.5q-52.5 30.5 -83.5 82.5t-31 114t30.5 113.5t83.5 82t115 30.5q55 0 110 -26l-10 -45q-48 27 -100 27q-51 0 -92 -24.5t-64.5 -66t-23.5 -91.5t23.5 -92t65 -66.5t91.5 -24.5q55 0 105 30l9 -46q-26 -14 -55 -21t-59 -7q-62 0 -114.5 30.5z" />
    <glyph glyph-name="d" unicode="d" horiz-adv-x="574" 
d="M494 731v-731h-47v89q-29 -46 -76 -72t-104 -26q-61 0 -113 30.5t-82.5 82.5t-30.5 114t30.5 114t82.5 82t113 30q57 0 104 -26t76 -72v373zM360.5 59.5q41.5 24.5 65.5 66.5t24 92t-24 91.5t-65.5 66t-90.5 24.5q-50 0 -91 -24.5t-65 -66t-24 -91.5t24 -92t65 -66.5
t91 -24.5q49 0 90.5 24.5z" />
    <glyph glyph-name="e" unicode="e" horiz-adv-x="514" 
d="M440 113l18 -44q-40 -38 -88 -58t-100 -20q-65 0 -117.5 30t-82 81.5t-29.5 114.5t30.5 115t82.5 82t115 30q52 0 95.5 -21t72 -60.5t36.5 -92.5l-376 -112q12 -36 36.5 -64t60 -43.5t77.5 -15.5q94 0 169 78zM177.5 376.5q-41.5 -24.5 -65.5 -66.5t-24 -93q0 -11 1 -17
l329 98q-15 47 -55.5 75t-93.5 28q-50 0 -91.5 -24.5z" />
    <glyph glyph-name="f" unicode="f" horiz-adv-x="294" 
d="M182 654q-29 -33 -29 -94v-125h113v-43h-113v-392h-47v392h-67l9 43h58v128q0 52 19 90t54.5 58.5t83.5 20.5h9v-45h-9q-52 0 -81 -33z" />
    <glyph glyph-name="g" unicode="g" horiz-adv-x="511" 
d="M455 405l-99 5q42 -24 66 -65t24 -90q0 -57 -32 -103t-84 -68q45 -21 71.5 -61.5t26.5 -90.5q0 -47 -23.5 -86t-65 -62t-92.5 -23q-48 0 -88 20.5t-64.5 55.5t-29.5 79l45 19q2 -38 20 -67.5t48.5 -46t68.5 -16.5t69 17t48.5 46.5t17.5 65.5t-18 65.5t-49.5 46.5
t-68.5 17q-32 0 -59 -13t-48 -36l-22 38q23 21 46 32q-52 21 -84 67t-32 104q0 51 25 93.5t71.5 68.5t106.5 28l214 9zM379.5 328q-20.5 34 -55.5 53.5t-77 19.5q-43 0 -78 -19.5t-55.5 -53.5t-20.5 -75t20.5 -74.5t55.5 -53t78 -19.5q42 0 77 19.5t55.5 53t20.5 74.5
t-20.5 75z" />
    <glyph glyph-name="h" unicode="h" horiz-adv-x="519" 
d="M365.5 422.5q38.5 -21.5 60.5 -63.5t22 -101v-258h-47v254q0 47 -16.5 80t-46 49.5t-67.5 16.5q-42 0 -74.5 -19t-51 -54t-18.5 -80v-247h-47v719l47 12v-368q23 39 62.5 60t88.5 21t87.5 -21.5z" />
    <glyph glyph-name="i" unicode="i" horiz-adv-x="215" 
d="M84 430l47 11v-441h-47v430zM81 585q-11 11 -11 27t11 27t27 11t27 -11t11 -27t-11 -27t-27 -11t-27 11z" />
    <glyph glyph-name="j" unicode="j" horiz-adv-x="215" 
d="M-27 -191q53 2 82 36t29 95v490l47 11v-504q0 -53 -19 -91.5t-54.5 -59.5t-84.5 -22v45zM80 585q-11 11 -11 27t11 27t27 11t27 -11t11 -27t-11 -27t-27 -11t-27 11z" />
    <glyph glyph-name="k" unicode="k" horiz-adv-x="439" 
d="M338 0l-211 221v-221h-47v719l47 12v-500l202 204h64l-210 -208l220 -227h-65z" />
    <glyph glyph-name="l" unicode="l" horiz-adv-x="215" 
d="M84 719l47 12v-731h-47v719z" />
    <glyph glyph-name="m" unicode="m" horiz-adv-x="778" 
d="M632 423.5q35 -20.5 55 -60t20 -95.5v-268h-47v264q0 66 -31.5 101t-83.5 35q-37 0 -66 -18t-45.5 -50.5t-16.5 -74.5v-257h-47v264q0 66 -31.5 101t-83.5 35q-37 0 -66 -18t-45.5 -50.5t-16.5 -74.5v-257h-47v430l45 11v-74q21 36 56.5 56.5t80.5 20.5q48 0 84 -24
t54 -69q20 43 60 68t91 25q46 0 81 -20.5z" />
    <glyph glyph-name="n" unicode="n" horiz-adv-x="519" 
d="M365.5 422.5q38.5 -21.5 60.5 -63.5t22 -101v-258h-47v254q0 47 -16.5 80t-46 49.5t-67.5 16.5q-42 0 -74.5 -19t-51 -54t-18.5 -80v-247h-47v430l45 11v-78q24 39 63.5 60t88.5 21q50 0 88.5 -21.5z" />
    <glyph glyph-name="o" unicode="o" horiz-adv-x="541" 
d="M154.5 21q-52.5 30 -83 82t-30.5 115q0 62 30.5 114t83 82t115.5 30q64 0 116 -30t82.5 -81.5t30.5 -114.5t-30.5 -115t-83 -82t-115.5 -30t-115.5 30zM361.5 59q41.5 24 65.5 66t24 93t-24 92.5t-65.5 65.5t-91.5 24t-91 -24t-65 -65.5t-24 -92.5t24 -93t65 -66t91 -24
t91.5 24z" />
    <glyph glyph-name="p" unicode="p" horiz-adv-x="574" 
d="M419.5 414q51.5 -30 82 -82t30.5 -114t-30.5 -114.5t-82 -82.5t-112.5 -30q-57 0 -104 26t-76 71v-318h-47v660l45 11v-97q29 47 76.5 73.5t105.5 26.5q61 0 112.5 -30zM395 59.5q41 24.5 65 66.5t24 92t-24 91.5t-65 66t-91 24.5t-91 -24.5t-65 -66t-24 -91.5t24 -92
t65 -66.5t91 -24.5t91 24.5z" />
    <glyph glyph-name="q" unicode="q" horiz-adv-x="574" 
d="M494 441v-671h-47v319q-29 -46 -76 -72t-104 -26q-61 0 -113 30.5t-82.5 82.5t-30.5 114t30.5 114t82.5 82t113 30q57 0 104 -26t76 -72v84zM360.5 59.5q41.5 24.5 65.5 66.5t24 92t-24 91.5t-65.5 66t-90.5 24.5q-50 0 -91 -24.5t-65 -66t-24 -91.5t24 -92t65 -66.5
t91 -24.5q49 0 90.5 24.5z" />
    <glyph glyph-name="r" unicode="r" horiz-adv-x="314" 
d="M189 419.5q41 23.5 100 23.5v-49q-78 0 -120 -43t-42 -124v-227h-47v430l45 11v-90q23 45 64 68.5z" />
    <glyph glyph-name="s" unicode="s" horiz-adv-x="370" 
d="M110.5 4q-35.5 13 -65.5 36l9 45q65 -52 127 -52q40 0 64 22.5t24 58.5q0 29 -21 50.5t-68 36.5l-16 6q-52 18 -78 49t-26 74q0 33 16 59t44.5 40.5t64.5 14.5q27 0 56.5 -8.5t56.5 -24.5l-9 -44q-54 35 -104 35q-36 0 -58 -19.5t-22 -51.5q0 -28 18 -47.5t63 -34.5
l17 -5q55 -18 83.5 -51t28.5 -79q0 -36 -17 -64t-47.5 -43.5t-69.5 -15.5q-35 0 -70.5 13z" />
    <glyph glyph-name="t" unicode="t" horiz-adv-x="308" 
d="M141 392v-274q0 -39 19.5 -60t54.5 -21q14 0 30 3.5t28 9.5v-45q-30 -12 -62 -12q-54 0 -85.5 32.5t-31.5 89.5v277h-67l9 43h58v105l47 31v-136h132v-43h-132z" />
    <glyph glyph-name="u" unicode="u" horiz-adv-x="515" 
d="M435 441v-442h-45v73q-23 -38 -62.5 -59.5t-87.5 -21.5q-50 0 -88 21.5t-59.5 63.5t-21.5 101v253l47 11v-260q0 -47 16.5 -79.5t45 -49t66.5 -16.5q41 0 73.5 19t50.5 53.5t18 80.5v241z" />
    <glyph glyph-name="v" unicode="v" horiz-adv-x="471" 
d="M451 436l-216 -456l-215 456h52l164 -354l163 354h52z" />
    <glyph glyph-name="w" unicode="w" horiz-adv-x="765" 
d="M549 -20l-166 370l-166 -370l-193 455h51l143 -349l165 369l165 -367l142 347h52z" />
    <glyph glyph-name="x" unicode="x" horiz-adv-x="485" 
d="M392 0l-149 196l-150 -196h-58l178 228l-163 208h58l135 -176l135 176h57l-162 -208l177 -228h-58z" />
    <glyph glyph-name="y" unicode="y" horiz-adv-x="482" 
d="M460 435l-349 -665h-53l158 295l-194 370h53l166 -322l166 322h53z" />
    <glyph glyph-name="z" unicode="z" horiz-adv-x="464" 
d="M127 43h294l-9 -43h-373l298 393h-277l9 42h356z" />
    <glyph glyph-name="braceleft" unicode="{" horiz-adv-x="349" 
d="M217 686q-26 -24 -26 -71q0 -19 4 -38l22 -123q3 -18 3 -33q0 -47 -26.5 -77t-72.5 -39q46 -9 72.5 -39t26.5 -77q0 -15 -3 -33l-22 -123q-3 -19 -3 -37q0 -47 25.5 -71.5t74.5 -24.5h16v-45h-16q-72 0 -110.5 35.5t-38.5 98.5q0 24 4 44l22 123q3 14 3 27q0 46 -32 73
t-97 28v42q65 1 97 28t32 73q0 14 -3 27l-22 123q-4 20 -4 44q0 63 38.5 98.5t110.5 35.5h16v-45h-16q-49 0 -75 -24z" />
    <glyph glyph-name="bar" unicode="|" horiz-adv-x="233" 
d="M93 765h46v-920h-46v920z" />
    <glyph glyph-name="braceright" unicode="}" horiz-adv-x="349" 
d="M209 256q-32 -27 -32 -73q0 -13 3 -27l22 -123q4 -20 4 -44q0 -63 -38.5 -98.5t-110.5 -35.5h-16v45h16q49 0 74.5 24.5t25.5 71.5q0 18 -3 37l-22 123q-3 18 -3 33q0 47 26.5 77t72.5 39q-46 9 -72.5 39t-26.5 77q0 15 3 33l22 123q4 19 4 38q0 47 -26 71t-75 24h-16v45
h16q72 0 110.5 -35.5t38.5 -98.5q0 -24 -4 -44l-22 -123q-3 -13 -3 -27q0 -46 32 -73t97 -28v-42q-65 -1 -97 -28z" />
    <glyph glyph-name="asciitilde" unicode="~" horiz-adv-x="437" 
d="M249.5 277q-18.5 9 -41.5 26q-3 2 -16 10.5t-24.5 13t-23.5 4.5q-26 0 -41.5 -17.5t-17.5 -44.5h-39q0 31 13 54.5t35 36t50 12.5q25 0 43.5 -9t41.5 -26q22 -15 35.5 -21.5t29.5 -6.5q26 0 41.5 17.5t16.5 44.5h39q0 -31 -13 -54.5t-35 -36t-50 -12.5q-25 0 -43.5 9z
" />
    <glyph glyph-name="uni00A0" unicode="&#xa0;" horiz-adv-x="217" 
 />
    <glyph glyph-name="exclamdown" unicode="&#xa1;" horiz-adv-x="244" 
d="M154 483.5q13 -12.5 13 -31.5t-13 -31.5t-32 -12.5t-32 12.5t-13 31.5t13 31.5t32 12.5t32 -12.5zM144 286l4 -236v-266l-51 12v254l3 236h44z" />
    <glyph glyph-name="cent" unicode="&#xa2;" horiz-adv-x="426" 
d="M329 -2q-29 -7 -59 -7h-1v-71h-44v75q-52 10 -94 42t-66 79.5t-24 101.5t24 101t66 79t94 42v70l44 11v-77h1q55 0 110 -26l-10 -45q-48 27 -100 27h-1v-365h1q55 0 105 30l9 -46q-26 -14 -55 -21zM107 139q17 -37 48 -63t70 -36v355q-40 -10 -70.5 -35.5t-47.5 -62.5
t-17 -79t17 -79z" />
    <glyph glyph-name="sterling" unicode="&#xa3;" horiz-adv-x="588" 
d="M222 48h284l-10 -48h-420v48h95v284h-95v48h95v100q0 75 28.5 130.5t80.5 85.5t122 30q59 0 109 -21l-9 -48q-51 21 -98 21q-55 0 -96 -24t-63.5 -68.5t-22.5 -105.5v-100h220l-10 -48h-210v-284z" />
    <glyph glyph-name="currency" unicode="&#xa4;" horiz-adv-x="698" 
d="M545 280.5q-12 -33.5 -33 -60.5l77 -74l-35 -35l-75 76q-28 -22 -61 -33.5t-70 -11.5q-36 0 -69.5 12t-60.5 33l-74 -76l-35 35l76 74q-21 27 -33 60t-12 70t12 70t33 60l-76 74l35 35l74 -76q27 21 60.5 33t69.5 12q37 0 70 -11.5t61 -33.5l75 76l35 -35l-77 -74
q21 -27 33 -60.5t12 -69.5t-12 -69.5zM429 210.5q37 21.5 58.5 58.5t21.5 81t-21.5 81t-58.5 58.5t-81 21.5t-81 -21.5t-58.5 -58.5t-21.5 -81t21.5 -81t58.5 -58.5t81 -21.5t81 21.5z" />
    <glyph glyph-name="yen" unicode="&#xa5;" horiz-adv-x="645" 
d="M371 382h173v-44h-196v-111h196v-44h-196v-183h-51v183h-197v44h197v111h-197v44h174l-196 318h59l185 -306l185 306h60z" />
    <glyph glyph-name="brokenbar" unicode="&#xa6;" horiz-adv-x="233" 
d="M93 765h46v-405h-46v405zM93 260h46v-415h-46v415z" />
    <glyph glyph-name="section" unicode="&#xa7;" horiz-adv-x="498" 
d="M404 108q0 -44 -21.5 -79t-60 -54.5t-86.5 -19.5q-42 0 -83.5 15.5t-76.5 42.5l10 52q37 -30 73.5 -45.5t74.5 -15.5q35 0 61.5 12.5t41 36t14.5 54.5q0 25 -10.5 43.5t-34.5 33.5t-67 29l-48 15q-60 20 -93 55.5t-33 86.5q0 45 22.5 78.5t60.5 49.5q-53 42 -53 108
q0 40 19.5 71.5t54 49.5t79.5 18q32 0 66.5 -10.5t66.5 -29.5l-11 -51q-62 42 -123 42q-47 0 -74 -24.5t-27 -64.5q0 -35 23.5 -57.5t77.5 -40.5l48 -15q139 -45 139 -151q0 -44 -21 -78t-57 -53q48 -42 48 -104zM264 260q35 -12 54 -23q30 16 46.5 41.5t16.5 59.5
q0 25 -10 44t-34 34.5t-67 29.5l-48 16q-24 8 -35 13q-31 -13 -51 -38t-20 -60q0 -34 23.5 -58.5t76.5 -42.5z" />
    <glyph glyph-name="dieresis" unicode="&#xa8;" horiz-adv-x="400" 
d="M78.5 576.5q-10.5 10.5 -10.5 25.5q0 16 10.5 26.5t26.5 10.5q15 0 26 -10.5t11 -26.5q0 -15 -11 -25.5t-26 -10.5q-16 0 -26.5 10.5zM269 576.5q-11 10.5 -11 25.5q0 16 11 26.5t26 10.5q16 0 26.5 -10.5t10.5 -26.5q0 -15 -10.5 -25.5t-26.5 -10.5q-15 0 -26 10.5z" />
    <glyph glyph-name="copyright" unicode="&#xa9;" horiz-adv-x="844" 
d="M240.5 38q-82.5 48 -130.5 130.5t-48 181.5t48 181.5t130.5 130.5t181.5 48t181.5 -48t130.5 -130.5t48 -181.5t-48 -181.5t-130.5 -130.5t-181.5 -48t-181.5 48zM582 74.5q73 42.5 115.5 115.5t42.5 160t-42.5 160t-115.5 115.5t-160 42.5t-160 -42.5t-115.5 -115.5
t-42.5 -160t42.5 -160t115.5 -115.5t160 -42.5t160 42.5zM329 169q-49 28 -77 75.5t-28 105.5t28 105.5t76.5 75.5t107.5 28q55 0 104 -26l-7 -43q-47 27 -96 27q-46 0 -84.5 -22.5t-61 -60.5t-22.5 -84t22.5 -84.5t61 -60.5t85.5 -22q26 0 51.5 8t48.5 22l7 -43
q-24 -14 -51.5 -21.5t-56.5 -7.5q-59 0 -108 28z" />
    <glyph glyph-name="ordfeminine" unicode="&#xaa;" horiz-adv-x="376" 
d="M278 323l-3 42q-19 -24 -47 -37t-61 -13q-38 0 -70.5 18t-51 49.5t-18.5 68.5q0 38 18.5 69.5t51 49.5t70.5 18q32 0 59.5 -13t46.5 -35v27q0 51 -23.5 74t-74.5 23q-43 0 -91 -18l9 40q42 15 87 15q137 0 137 -130v-174l2 -74h-41zM224.5 364.5q23.5 13.5 37 36.5
t13.5 50q0 28 -13.5 51t-37 36.5t-52.5 13.5q-28 0 -51 -13.5t-37 -36.5t-14 -51q0 -27 14 -50t37 -36.5t51 -13.5q29 0 52.5 13.5z" />
    <glyph glyph-name="guillemotleft" unicode="&#xab;" horiz-adv-x="475" 
d="M117 220l127 -172l-37 -27l-147 199l147 199l37 -27zM277 220l127 -172l-37 -27l-147 199l147 199l37 -27z" />
    <glyph glyph-name="logicalnot" unicode="&#xac;" horiz-adv-x="492" 
d="M401 377h-355v45h400v-204h-45v159z" />
    <glyph glyph-name="uni00AD" unicode="&#xad;" horiz-adv-x="344" 
d="M64 249h216v-43h-216v43z" />
    <glyph glyph-name="registered" unicode="&#xae;" horiz-adv-x="844" 
d="M603.5 662q82.5 -48 130.5 -130.5t48 -181.5t-48 -181.5t-130.5 -130.5t-181.5 -48t-181.5 48t-130.5 130.5t-48 181.5t48 181.5t130.5 130.5t181.5 48t181.5 -48zM582 74.5q73 42.5 115.5 115.5t42.5 160t-42.5 160t-115.5 115.5t-160 42.5t-160 -42.5t-115.5 -115.5
t-42.5 -160t42.5 -160t115.5 -115.5t160 -42.5t160 42.5zM556.5 366.5q-17.5 -28.5 -49 -44t-72.5 -15.5h-15l154 -160h-58l-163 175v-175h-44v407h118q44 0 77 -15t51.5 -43t18.5 -65q0 -36 -17.5 -64.5zM426 343q46 0 74 24t28 65q0 39 -27.5 61.5t-74.5 22.5h-73v-173h73
z" />
    <glyph glyph-name="macron" unicode="&#xaf;" horiz-adv-x="400" 
d="M65 636h270v-44h-270v44z" />
    <glyph glyph-name="degree" unicode="&#xb0;" horiz-adv-x="395" 
d="M122 437q-34 19 -54 52.5t-20 74.5q0 40 20 73.5t54 52.5t75 19t75.5 -19t54 -52.5t19.5 -73.5q0 -41 -19.5 -74.5t-54 -52.5t-75.5 -19t-75 19zM250 473.5q24 13.5 38 37.5t14 53t-14 53t-38 37.5t-53 13.5t-52.5 -13.5t-37.5 -37.5t-14 -53t14 -53t37.5 -37.5
t52.5 -13.5t53 13.5z" />
    <glyph glyph-name="plusminus" unicode="&#xb1;" horiz-adv-x="505" 
d="M464 352v-44h-189v-203h-45v203h-189v44h189v203h45v-203h189zM41 45h423v-45h-423v45z" />
    <glyph glyph-name="uni00B2" unicode="&#xb2;" horiz-adv-x="304" 
d="M114 475h152l-8 -40h-232l122 132q28 30 43.5 48.5t24 36.5t8.5 37q0 22 -10.5 39t-28 26.5t-39.5 9.5q-21 0 -38.5 -9.5t-27.5 -26t-10 -37.5q0 -18 10 -40l-43 -6q-4 11 -7 23t-3 25q0 31 16 56.5t43 40.5t60 15q34 0 61.5 -15t43.5 -41.5t16 -58.5q0 -25 -10 -47
t-28 -44t-51 -57z" />
    <glyph glyph-name="uni00B3" unicode="&#xb3;" horiz-adv-x="290" 
d="M205.5 645q25.5 -15 40 -40.5t14.5 -55.5q0 -34 -17.5 -61.5t-47.5 -43t-67 -15.5q-31 0 -59 13t-49 35l18 34q16 -19 39.5 -31t49.5 -12q25 0 45 11t31.5 29.5t11.5 41.5q0 22 -11.5 40.5t-32 29t-46.5 10.5q-25 0 -47 -7l102 137h-147l6 39h216l-106 -138
q31 -1 56.5 -16z" />
    <glyph glyph-name="acute" unicode="&#xb4;" horiz-adv-x="400" 
d="M99 566l190 126l27 -43l-193 -121z" />
    <glyph glyph-name="uni00B5" unicode="&#xb5;" horiz-adv-x="524" 
d="M444 441v-442h-45v66q-22 -36 -57.5 -55t-82.5 -19q-43 0 -77 18t-55 51v-290h-47v660l47 11v-253q0 -47 16.5 -81.5t46.5 -52.5t70 -18q41 0 72 18t48 52.5t17 81.5v242z" />
    <glyph glyph-name="paragraph" unicode="&#xb6;" horiz-adv-x="627" 
d="M292 267q-70 0 -125 28t-86 77t-31 111t31 111.5t86 77.5t125 28h242v-790h-51v742h-140v-742h-51v357z" />
    <glyph glyph-name="periodcentered" unicode="&#xb7;" horiz-adv-x="244" 
d="M90 233.5q-13 12.5 -13 31.5t13 31.5t32 12.5t32 -12.5t13 -31.5t-13 -31.5t-32 -12.5t-32 12.5z" />
    <glyph glyph-name="cedilla" unicode="&#xb8;" horiz-adv-x="400" 
d="M72 -137l111 147h44l-110 -178z" />
    <glyph glyph-name="uni00B9" unicode="&#xb9;" horiz-adv-x="193" 
d="M146 808v-373h-44v304l-83 -48l-7 41z" />
    <glyph glyph-name="ordmasculine" unicode="&#xba;" horiz-adv-x="462" 
d="M131.5 340.5q-45.5 25.5 -71.5 70t-26 98.5t26.5 98.5t71.5 70.5t99 26q55 0 100 -26t71 -70.5t26 -98.5t-26 -98.5t-71 -70t-100 -25.5q-54 0 -99.5 25.5zM307.5 375.5q34.5 20.5 54.5 55.5t20 78q0 42 -20 77.5t-54.5 56t-76.5 20.5t-77 -20.5t-55 -56t-20 -77.5
q0 -43 20 -78t55 -55.5t77 -20.5t76.5 20.5z" />
    <glyph glyph-name="guillemotright" unicode="&#xbb;" horiz-adv-x="475" 
d="M255 221l-147 -199l-37 27l127 172l-127 172l37 27zM415 221l-147 -199l-37 27l127 172l-127 172l37 27z" />
    <glyph glyph-name="onequarter" unicode="&#xbc;" horiz-adv-x="761" 
d="M186 708v-373h-44v304l-83 -48l-7 41zM79 18l558 690l31 -26l-557 -690zM696 91h-48v-91h-42v91h-182l224 292v-256h48v-36zM606 127v138l-105 -138h105z" />
    <glyph glyph-name="onehalf" unicode="&#xbd;" horiz-adv-x="761" 
d="M186 708v-373h-44v304l-83 -48l-7 41zM532 40h152l-8 -40h-232l122 132q28 30 43.5 48.5t24 36.5t8.5 37q0 22 -10.5 39t-28 26.5t-39.5 9.5q-21 0 -38.5 -9.5t-27.5 -26t-10 -37.5q0 -18 10 -40l-43 -6q-4 11 -7 23t-3 25q0 31 16 56.5t43 40.5t60 15q34 0 61.5 -15
t43.5 -41.5t16 -58.5q0 -25 -10 -47t-28 -44t-51 -57zM63 18l558 690l31 -26l-557 -690z" />
    <glyph glyph-name="threequarters" unicode="&#xbe;" horiz-adv-x="801" 
d="M245.5 545q25.5 -15 40 -40.5t14.5 -55.5q0 -34 -17.5 -61.5t-47.5 -43t-67 -15.5q-31 0 -59 13t-49 35l18 34q16 -19 39.5 -31t49.5 -12q25 0 45 11t31.5 29.5t11.5 41.5q0 22 -11.5 40.5t-32 29t-46.5 10.5q-25 0 -47 -7l102 137h-147l6 39h216l-106 -138
q31 -1 56.5 -16zM140 18l558 690l31 -26l-557 -690zM730 91h-48v-91h-42v91h-182l224 292v-256h48v-36zM640 127v138l-105 -138h105z" />
    <glyph glyph-name="questiondown" unicode="&#xbf;" horiz-adv-x="430" 
d="M258 502.5q13 -12.5 13 -31.5t-13 -31.5t-32 -12.5t-32 12.5t-13 31.5t13 31.5t32 12.5t32 -12.5zM251 249q1 -38 -9.5 -67t-27 -48.5t-43.5 -45.5q-23 -22 -36.5 -38t-22.5 -37t-9 -47q0 -34 15.5 -61t43 -42t61.5 -15q36 0 63.5 17t43 47.5t14.5 68.5l51 -12
q0 -47 -22 -85.5t-61.5 -61t-89.5 -22.5q-47 0 -86 20.5t-62 58t-23 85.5q0 35 10.5 62t26 45t41.5 42q25 24 39.5 40.5t24.5 40.5t10 55l1 56h45z" />
    <glyph glyph-name="Agrave" unicode="&#xc0;" horiz-adv-x="682" 
d="M484 277h-286l-120 -277h-54l317 725l318 -725h-55zM464 324l-123 285l-123 -285h246zM198 892l23 46l221 -115l-19 -41z" />
    <glyph glyph-name="Aacute" unicode="&#xc1;" horiz-adv-x="682" 
d="M484 277h-286l-120 -277h-54l317 725l318 -725h-55zM464 324l-123 285l-123 -285h246zM240 823l221 115l23 -46l-225 -110z" />
    <glyph glyph-name="Acircumflex" unicode="&#xc2;" horiz-adv-x="682" 
d="M484 277h-286l-120 -277h-54l317 725l318 -725h-55zM464 324l-123 285l-123 -285h246zM454 780l-113 103l-113 -103l-28 29l141 134l141 -134z" />
    <glyph glyph-name="Atilde" unicode="&#xc3;" horiz-adv-x="682" 
d="M484 277h-286l-120 -277h-54l317 725l318 -725h-55zM464 324l-123 285l-123 -285h246zM370.5 826q-17.5 8 -41.5 23q-20 12 -32 18t-27 6q-23 0 -37.5 -14.5t-14.5 -37.5h-39q0 28 11.5 49t32.5 33t48 12q23 0 40.5 -8t41.5 -23q20 -12 32 -18t27 -6q23 0 37.5 14.5
t14.5 37.5h39q0 -27 -11.5 -48.5t-32.5 -33.5t-48 -12q-23 0 -40.5 8z" />
    <glyph glyph-name="Adieresis" unicode="&#xc4;" horiz-adv-x="682" 
d="M484 277h-286l-120 -277h-54l317 725l318 -725h-55zM464 324l-123 285l-123 -285h246zM192 822q-12 12 -12 29q0 18 12 30t29 12t29 -12t12 -30q0 -17 -12 -29t-29 -12t-29 12zM432 822q-12 12 -12 29q0 18 12 30t29 12t29 -12t12 -30q0 -17 -12 -29t-29 -12t-29 12z" />
    <glyph glyph-name="Aring" unicode="&#xc5;" horiz-adv-x="682" 
d="M484 277h-286l-120 -277h-54l317 725l318 -725h-55zM464 324l-123 285l-123 -285h246zM285 770q-25 14 -39.5 38t-14.5 53t14.5 53t39.5 38t56 14t56 -14t39.5 -38t14.5 -53t-14.5 -53t-39.5 -38t-56 -14t-56 14zM391 812q20 20 20 49t-20 49t-50 20t-50 -20t-20 -49
t20 -49t50 -20t50 20z" />
    <glyph glyph-name="AE" unicode="&#xc6;" horiz-adv-x="885" 
d="M828 48l-10 -48h-369v277h-228l-142 -277h-55l359 700h423l10 -48h-316v-264h265v-49h-265v-291h328zM449 325v327h-36l-168 -327h204z" />
    <glyph glyph-name="Ccedilla" unicode="&#xc7;" horiz-adv-x="681" 
d="M426 -11h-4l-99 -160l-48 33l99 130q-89 12 -160 62t-111.5 127.5t-40.5 168.5q0 100 48 182.5t132 130.5t185 48q92 0 174 -42l-10 -52q-36 22 -78.5 34t-86.5 12q-86 0 -157 -41.5t-112.5 -113.5t-41.5 -158t41.5 -158t112.5 -113.5t157 -41.5q91 0 174 51l10 -51
q-87 -48 -184 -48z" />
    <glyph glyph-name="Egrave" unicode="&#xc8;" horiz-adv-x="529" 
d="M472 48l-10 -48h-369v700h357l10 -48h-316v-264h265v-49h-265v-291h328zM137 892l23 46l221 -115l-19 -41z" />
    <glyph glyph-name="Eacute" unicode="&#xc9;" horiz-adv-x="529" 
d="M472 48l-10 -48h-369v700h357l10 -48h-316v-264h265v-49h-265v-291h328zM179 823l221 115l23 -46l-225 -110z" />
    <glyph glyph-name="Ecircumflex" unicode="&#xca;" horiz-adv-x="529" 
d="M472 48l-10 -48h-369v700h357l10 -48h-316v-264h265v-49h-265v-291h328zM393 780l-113 103l-113 -103l-28 29l141 134l141 -134z" />
    <glyph glyph-name="Edieresis" unicode="&#xcb;" horiz-adv-x="529" 
d="M472 48l-10 -48h-369v700h357l10 -48h-316v-264h265v-49h-265v-291h328zM131 822q-12 12 -12 29q0 18 12 30t29 12t29 -12t12 -30q0 -17 -12 -29t-29 -12t-29 12zM371 822q-12 12 -12 29q0 18 12 30t29 12t29 -12t12 -30q0 -17 -12 -29t-29 -12t-29 12z" />
    <glyph glyph-name="Igrave" unicode="&#xcc;" horiz-adv-x="247" 
d="M98 694l51 12v-706h-51v694zM-19 892l23 46l221 -115l-19 -41z" />
    <glyph glyph-name="Iacute" unicode="&#xcd;" horiz-adv-x="247" 
d="M98 694l51 12v-706h-51v694zM23 823l221 115l23 -46l-225 -110z" />
    <glyph glyph-name="Icircumflex" unicode="&#xce;" horiz-adv-x="247" 
d="M98 694l51 12v-706h-51v694zM237 780l-113 103l-113 -103l-28 29l141 134l141 -134z" />
    <glyph glyph-name="Idieresis" unicode="&#xcf;" horiz-adv-x="247" 
d="M98 694l51 12v-706h-51v694zM0 822q-12 12 -12 29q0 18 12 30t29 12t29 -12t12 -30q0 -17 -12 -29t-29 -12t-29 12zM190 822q-12 12 -12 29q0 18 12 30t29 12q18 0 29.5 -12t11.5 -30q0 -17 -11.5 -29t-29.5 -12q-17 0 -29 12z" />
    <glyph glyph-name="Eth" unicode="&#xd0;" horiz-adv-x="641" 
d="M400.5 654.5q83.5 -45.5 131 -125.5t47.5 -179t-47.5 -179t-131 -125.5t-186.5 -45.5h-121v327h-81v48h81v325h121q103 0 186.5 -45.5zM373.5 87.5q71.5 39.5 112 108.5t40.5 154t-40.5 154t-112 108.5t-159.5 39.5h-70v-277h202v-48h-202v-279h70q88 0 159.5 39.5z" />
    <glyph glyph-name="Ntilde" unicode="&#xd1;" horiz-adv-x="777" 
d="M683 -25l-539 619v-594h-51v725l539 -618v587l51 13v-732zM417.5 826q-17.5 8 -41.5 23q-20 12 -32 18t-27 6q-23 0 -37.5 -14.5t-14.5 -37.5h-39q0 28 11.5 49t32.5 33t48 12q23 0 40.5 -8t41.5 -23q20 -12 32 -18t27 -6q23 0 37.5 14.5t14.5 37.5h39q0 -27 -11.5 -48.5
t-32.5 -33.5t-48 -12q-23 0 -40.5 8z" />
    <glyph glyph-name="Ograve" unicode="&#xd2;" horiz-adv-x="852" 
d="M242.5 37q-83.5 48 -132 130.5t-48.5 182.5t48.5 182.5t132 130.5t183.5 48t183.5 -48t132 -130.5t48.5 -182.5t-48.5 -182.5t-132 -130.5t-183.5 -48t-183.5 48zM583 78.5q71 41.5 112.5 113.5t41.5 158t-41.5 158t-112.5 113.5t-157 41.5t-157 -41.5t-112.5 -113.5
t-41.5 -158t41.5 -158t112.5 -113.5t157 -41.5t157 41.5zM283 892l23 46l221 -115l-19 -41z" />
    <glyph glyph-name="Oacute" unicode="&#xd3;" horiz-adv-x="852" 
d="M242.5 37q-83.5 48 -132 130.5t-48.5 182.5t48.5 182.5t132 130.5t183.5 48t183.5 -48t132 -130.5t48.5 -182.5t-48.5 -182.5t-132 -130.5t-183.5 -48t-183.5 48zM583 78.5q71 41.5 112.5 113.5t41.5 158t-41.5 158t-112.5 113.5t-157 41.5t-157 -41.5t-112.5 -113.5
t-41.5 -158t41.5 -158t112.5 -113.5t157 -41.5t157 41.5zM325 823l221 115l23 -46l-225 -110z" />
    <glyph glyph-name="Ocircumflex" unicode="&#xd4;" horiz-adv-x="852" 
d="M242.5 37q-83.5 48 -132 130.5t-48.5 182.5t48.5 182.5t132 130.5t183.5 48t183.5 -48t132 -130.5t48.5 -182.5t-48.5 -182.5t-132 -130.5t-183.5 -48t-183.5 48zM583 78.5q71 41.5 112.5 113.5t41.5 158t-41.5 158t-112.5 113.5t-157 41.5t-157 -41.5t-112.5 -113.5
t-41.5 -158t41.5 -158t112.5 -113.5t157 -41.5t157 41.5zM539 780l-113 103l-113 -103l-28 29l141 134l141 -134z" />
    <glyph glyph-name="Otilde" unicode="&#xd5;" horiz-adv-x="852" 
d="M242.5 37q-83.5 48 -132 130.5t-48.5 182.5t48.5 182.5t132 130.5t183.5 48t183.5 -48t132 -130.5t48.5 -182.5t-48.5 -182.5t-132 -130.5t-183.5 -48t-183.5 48zM583 78.5q71 41.5 112.5 113.5t41.5 158t-41.5 158t-112.5 113.5t-157 41.5t-157 -41.5t-112.5 -113.5
t-41.5 -158t41.5 -158t112.5 -113.5t157 -41.5t157 41.5zM455.5 826q-17.5 8 -41.5 23q-20 12 -32 18t-27 6q-23 0 -37.5 -14.5t-14.5 -37.5h-39q0 28 11.5 49t32.5 33t48 12q23 0 40.5 -8t41.5 -23q20 -12 32 -18t27 -6q23 0 37.5 14.5t14.5 37.5h39q0 -27 -11.5 -48.5
t-32.5 -33.5t-48 -12q-23 0 -40.5 8z" />
    <glyph glyph-name="Odieresis" unicode="&#xd6;" horiz-adv-x="852" 
d="M242.5 37q-83.5 48 -132 130.5t-48.5 182.5t48.5 182.5t132 130.5t183.5 48t183.5 -48t132 -130.5t48.5 -182.5t-48.5 -182.5t-132 -130.5t-183.5 -48t-183.5 48zM583 78.5q71 41.5 112.5 113.5t41.5 158t-41.5 158t-112.5 113.5t-157 41.5t-157 -41.5t-112.5 -113.5
t-41.5 -158t41.5 -158t112.5 -113.5t157 -41.5t157 41.5zM277 822q-12 12 -12 29q0 18 12 30t29 12t29 -12t12 -30q0 -17 -12 -29t-29 -12t-29 12zM517 822q-12 12 -12 29q0 18 12 30t29 12t29 -12t12 -30q0 -17 -12 -29t-29 -12t-29 12z" />
    <glyph glyph-name="multiply" unicode="&#xd7;" horiz-adv-x="496" 
d="M280 330l155 -154l-33 -33l-154 155l-155 -155l-32 33l154 154l-154 155l32 32l155 -154l154 154l33 -32z" />
    <glyph glyph-name="Oslash" unicode="&#xd8;" horiz-adv-x="852" 
d="M761.5 493.5q28.5 -67.5 28.5 -143.5q0 -100 -48.5 -182.5t-132 -130.5t-183.5 -48q-61 0 -117.5 18.5t-102.5 52.5l-61 -71l-36 30l62 71q-52 49 -80.5 116.5t-28.5 143.5q0 100 48.5 182.5t132 130.5t183.5 48q61 0 117.5 -18.5t102.5 -52.5l61 71l36 -30l-62 -71
q52 -49 80.5 -116.5zM138.5 229q23.5 -57 65.5 -100l409 473q-40 29 -88 45t-99 16q-86 0 -157 -41.5t-112.5 -113.5t-41.5 -158q0 -64 23.5 -121zM583 78.5q71 41.5 112.5 113.5t41.5 158q0 64 -23.5 121t-65.5 100l-409 -473q40 -29 87.5 -45t99.5 -16q86 0 157 41.5z" />
    <glyph glyph-name="Ugrave" unicode="&#xd9;" horiz-adv-x="674" 
d="M205 22.5q-57 33.5 -88.5 94.5t-31.5 143v434l51 12v-442q0 -69 25 -120t70.5 -79t105.5 -28t105.5 28t70 79t24.5 120v430l51 12v-446q0 -82 -31 -143t-88 -94.5t-132 -33.5t-132 33.5zM194 892l23 46l221 -115l-19 -41z" />
    <glyph glyph-name="Uacute" unicode="&#xda;" horiz-adv-x="674" 
d="M205 22.5q-57 33.5 -88.5 94.5t-31.5 143v434l51 12v-442q0 -69 25 -120t70.5 -79t105.5 -28t105.5 28t70 79t24.5 120v430l51 12v-446q0 -82 -31 -143t-88 -94.5t-132 -33.5t-132 33.5zM236 823l221 115l23 -46l-225 -110z" />
    <glyph glyph-name="Ucircumflex" unicode="&#xdb;" horiz-adv-x="674" 
d="M205 22.5q-57 33.5 -88.5 94.5t-31.5 143v434l51 12v-442q0 -69 25 -120t70.5 -79t105.5 -28t105.5 28t70 79t24.5 120v430l51 12v-446q0 -82 -31 -143t-88 -94.5t-132 -33.5t-132 33.5zM450 780l-113 103l-113 -103l-28 29l141 134l141 -134z" />
    <glyph glyph-name="Udieresis" unicode="&#xdc;" horiz-adv-x="674" 
d="M205 22.5q-57 33.5 -88.5 94.5t-31.5 143v434l51 12v-442q0 -69 25 -120t70.5 -79t105.5 -28t105.5 28t70 79t24.5 120v430l51 12v-446q0 -82 -31 -143t-88 -94.5t-132 -33.5t-132 33.5zM188 822q-12 12 -12 29q0 18 12 30t29 12t29 -12t12 -30q0 -17 -12 -29t-29 -12
t-29 12zM428 822q-12 12 -12 29q0 18 12 30t29 12t29 -12t12 -30q0 -17 -12 -29t-29 -12t-29 12z" />
    <glyph glyph-name="Yacute" unicode="&#xdd;" horiz-adv-x="577" 
d="M314 276v-276h-51v276l-237 424h57l206 -371l205 371h57zM188 823l221 115l23 -46l-225 -110z" />
    <glyph glyph-name="Thorn" unicode="&#xde;" horiz-adv-x="531" 
d="M355 562q59 -30 92 -83t33 -119t-33 -119t-92 -83t-135 -30h-76v-128h-51v700h51v-108h76q76 0 135 -30zM328 200.5q47 23.5 73 65.5t26 94q0 53 -26 95t-73 65.5t-108 23.5h-76v-367h76q61 0 108 23.5z" />
    <glyph glyph-name="germandbls" unicode="&#xdf;" horiz-adv-x="521" 
d="M412 341q32 -27 50 -65t18 -82q0 -57 -29 -103.5t-79 -73t-111 -26.5v46q47 0 86 21t61.5 58t22.5 81t-22.5 80t-61.5 57.5t-86 21.5v44q42 0 76 19t52.5 51.5t18.5 71.5t-18.5 70.5t-50.5 49.5t-70 18q-40 0 -72.5 -19.5t-51 -54t-18.5 -76.5v-530h-47v531q0 54 25 98
t68 69.5t97 25.5q52 0 94.5 -23.5t67 -65t24.5 -93.5q0 -59 -32 -102.5t-86 -60.5q42 -11 74 -38z" />
    <glyph glyph-name="agrave" unicode="&#xe0;" horiz-adv-x="445" 
d="M333 0l-3 46q-22 -26 -54.5 -40.5t-69.5 -14.5q-45 0 -82.5 21t-59.5 58t-22 81t22 81t59.5 58t82.5 21q37 0 68 -15t54 -40v33q0 58 -26.5 84.5t-85.5 26.5q-51 0 -106 -20l9 45q50 17 99 17q157 0 157 -149v-205l2 -88h-44zM271 48q28 16 44 43t16 60t-16 60t-44 43
t-62 16q-33 0 -61 -16t-44 -43.5t-16 -59.5t16 -59.5t44 -43.5t61 -16q34 0 62 16zM115 649l27 43l190 -126l-24 -38z" />
    <glyph glyph-name="aacute" unicode="&#xe1;" horiz-adv-x="445" 
d="M333 0l-3 46q-22 -26 -54.5 -40.5t-69.5 -14.5q-45 0 -82.5 21t-59.5 58t-22 81t22 81t59.5 58t82.5 21q37 0 68 -15t54 -40v33q0 58 -26.5 84.5t-85.5 26.5q-51 0 -106 -20l9 45q50 17 99 17q157 0 157 -149v-205l2 -88h-44zM271 48q28 16 44 43t16 60t-16 60t-44 43
t-62 16q-33 0 -61 -16t-44 -43.5t-16 -59.5t16 -59.5t44 -43.5t61 -16q34 0 62 16zM125 566l190 126l27 -43l-193 -121z" />
    <glyph glyph-name="acircumflex" unicode="&#xe2;" horiz-adv-x="445" 
d="M333 0l-3 46q-22 -26 -54.5 -40.5t-69.5 -14.5q-45 0 -82.5 21t-59.5 58t-22 81t22 81t59.5 58t82.5 21q37 0 68 -15t54 -40v33q0 58 -26.5 84.5t-85.5 26.5q-51 0 -106 -20l9 45q50 17 99 17q157 0 157 -149v-205l2 -88h-44zM271 48q28 16 44 43t16 60t-16 60t-44 43
t-62 16q-33 0 -61 -16t-44 -43.5t-16 -59.5t16 -59.5t44 -43.5t61 -16q34 0 62 16zM339 529l-113 103l-113 -103l-28 29l141 134l141 -134z" />
    <glyph glyph-name="atilde" unicode="&#xe3;" horiz-adv-x="445" 
d="M333 0l-3 46q-22 -26 -54.5 -40.5t-69.5 -14.5q-45 0 -82.5 21t-59.5 58t-22 81t22 81t59.5 58t82.5 21q37 0 68 -15t54 -40v33q0 58 -26.5 84.5t-85.5 26.5q-51 0 -106 -20l9 45q50 17 99 17q157 0 157 -149v-205l2 -88h-44zM271 48q28 16 44 43t16 60t-16 60t-44 43
t-62 16q-33 0 -61 -16t-44 -43.5t-16 -59.5t16 -59.5t44 -43.5t61 -16q34 0 62 16zM252.5 571q-16.5 8 -36.5 23q-20 13 -30.5 18.5t-24.5 5.5q-22 0 -34.5 -15t-12.5 -37h-40q0 28 11 49t31 32.5t45 11.5q22 0 38 -7.5t37 -22.5q20 -13 30.5 -18.5t24.5 -5.5q22 0 34.5 15
t12.5 37h40q0 -42 -24 -68t-63 -26q-22 0 -38.5 8z" />
    <glyph glyph-name="adieresis" unicode="&#xe4;" horiz-adv-x="445" 
d="M333 0l-3 46q-22 -26 -54.5 -40.5t-69.5 -14.5q-45 0 -82.5 21t-59.5 58t-22 81t22 81t59.5 58t82.5 21q37 0 68 -15t54 -40v33q0 58 -26.5 84.5t-85.5 26.5q-51 0 -106 -20l9 45q50 17 99 17q157 0 157 -149v-205l2 -88h-44zM271 48q28 16 44 43t16 60t-16 60t-44 43
t-62 16q-33 0 -61 -16t-44 -43.5t-16 -59.5t16 -59.5t44 -43.5t61 -16q34 0 62 16zM104.5 576.5q-10.5 10.5 -10.5 25.5q0 16 10.5 26.5t26.5 10.5q15 0 26 -10.5t11 -26.5q0 -15 -11 -25.5t-26 -10.5q-16 0 -26.5 10.5zM295 576.5q-11 10.5 -11 25.5q0 16 11 26.5t26 10.5
q16 0 26.5 -10.5t10.5 -26.5q0 -15 -10.5 -25.5t-26.5 -10.5q-15 0 -26 10.5z" />
    <glyph glyph-name="aring" unicode="&#xe5;" horiz-adv-x="445" 
d="M333 0l-3 46q-22 -26 -54.5 -40.5t-69.5 -14.5q-45 0 -82.5 21t-59.5 58t-22 81t22 81t59.5 58t82.5 21q37 0 68 -15t54 -40v33q0 58 -26.5 84.5t-85.5 26.5q-51 0 -106 -20l9 45q50 17 99 17q157 0 157 -149v-205l2 -88h-44zM271 48q28 16 44 43t16 60t-16 60t-44 43
t-62 16q-33 0 -61 -16t-44 -43.5t-16 -59.5t16 -59.5t44 -43.5t61 -16q34 0 62 16zM171.5 526q-24.5 14 -39 37.5t-14.5 52.5t14.5 53t39 37.5t54.5 13.5t54.5 -13.5t39 -37.5t14.5 -53t-14.5 -52.5t-39 -37.5t-54.5 -14t-54.5 14zM261 557q16 9 25 24.5t9 34.5q0 29 -20 49
t-49 20t-49 -20t-20 -49q0 -19 9 -34.5t25 -24.5t35 -9t35 9z" />
    <glyph glyph-name="ae" unicode="&#xe6;" horiz-adv-x="801" 
d="M726 113l18 -44q-40 -38 -87.5 -58t-100.5 -20q-63 0 -114 30t-80 81q-10 -32 -33 -57.5t-55 -39.5t-68 -14q-45 0 -82.5 21t-59.5 58t-22 81t22 81t59.5 58t82.5 21q37 0 68 -15t54 -40v33q0 58 -26.5 84.5t-85.5 26.5q-51 0 -106 -20l9 45q50 17 99 17q127 0 149 -103
q29 49 78.5 77t109.5 28q52 0 95.5 -21t72 -60.5t36.5 -92.5l-376 -112q12 -36 37 -64t60.5 -43.5t76.5 -15.5q94 0 169 78zM463.5 376.5q-41.5 -24.5 -65.5 -66.5t-24 -93q0 -11 1 -17l329 98q-15 47 -55.5 75t-93.5 28q-50 0 -91.5 -24.5zM271 48q28 16 44 43t16 60
t-16 60t-44 43t-62 16q-33 0 -61 -16t-44 -43.5t-16 -59.5t16 -59.5t44 -43.5t61 -16q34 0 62 16z" />
    <glyph glyph-name="ccedilla" unicode="&#xe7;" horiz-adv-x="426" 
d="M329 -2q-29 -7 -59 -7h-6l-98 -159l-45 31l101 133q-51 11 -92.5 43t-65 78.5t-23.5 100.5q0 62 30.5 113.5t83.5 82t115 30.5q55 0 110 -26l-10 -45q-48 27 -100 27q-51 0 -92 -24.5t-64.5 -66t-23.5 -91.5t23.5 -92t65 -66.5t91.5 -24.5q55 0 105 30l9 -46
q-26 -14 -55 -21z" />
    <glyph glyph-name="egrave" unicode="&#xe8;" horiz-adv-x="514" 
d="M440 113l18 -44q-40 -38 -88 -58t-100 -20q-65 0 -117.5 30t-82 81.5t-29.5 114.5t30.5 115t82.5 82t115 30q52 0 95.5 -21t72 -60.5t36.5 -92.5l-376 -112q12 -36 36.5 -64t60 -43.5t77.5 -15.5q94 0 169 78zM177.5 376.5q-41.5 -24.5 -65.5 -66.5t-24 -93q0 -11 1 -17
l329 98q-15 47 -55.5 75t-93.5 28q-50 0 -91.5 -24.5zM156 649l27 43l190 -126l-24 -38z" />
    <glyph glyph-name="eacute" unicode="&#xe9;" horiz-adv-x="514" 
d="M440 113l18 -44q-40 -38 -88 -58t-100 -20q-65 0 -117.5 30t-82 81.5t-29.5 114.5t30.5 115t82.5 82t115 30q52 0 95.5 -21t72 -60.5t36.5 -92.5l-376 -112q12 -36 36.5 -64t60 -43.5t77.5 -15.5q94 0 169 78zM177.5 376.5q-41.5 -24.5 -65.5 -66.5t-24 -93q0 -11 1 -17
l329 98q-15 47 -55.5 75t-93.5 28q-50 0 -91.5 -24.5zM166 566l190 126l27 -43l-193 -121z" />
    <glyph glyph-name="ecircumflex" unicode="&#xea;" horiz-adv-x="514" 
d="M440 113l18 -44q-40 -38 -88 -58t-100 -20q-65 0 -117.5 30t-82 81.5t-29.5 114.5t30.5 115t82.5 82t115 30q52 0 95.5 -21t72 -60.5t36.5 -92.5l-376 -112q12 -36 36.5 -64t60 -43.5t77.5 -15.5q94 0 169 78zM177.5 376.5q-41.5 -24.5 -65.5 -66.5t-24 -93q0 -11 1 -17
l329 98q-15 47 -55.5 75t-93.5 28q-50 0 -91.5 -24.5zM380 529l-113 103l-113 -103l-28 29l141 134l141 -134z" />
    <glyph glyph-name="edieresis" unicode="&#xeb;" horiz-adv-x="514" 
d="M440 113l18 -44q-40 -38 -88 -58t-100 -20q-65 0 -117.5 30t-82 81.5t-29.5 114.5t30.5 115t82.5 82t115 30q52 0 95.5 -21t72 -60.5t36.5 -92.5l-376 -112q12 -36 36.5 -64t60 -43.5t77.5 -15.5q94 0 169 78zM177.5 376.5q-41.5 -24.5 -65.5 -66.5t-24 -93q0 -11 1 -17
l329 98q-15 47 -55.5 75t-93.5 28q-50 0 -91.5 -24.5zM145.5 576.5q-10.5 10.5 -10.5 25.5q0 16 10.5 26.5t26.5 10.5q15 0 26 -10.5t11 -26.5q0 -15 -11 -25.5t-26 -10.5q-16 0 -26.5 10.5zM336 576.5q-11 10.5 -11 25.5q0 16 11 26.5t26 10.5q16 0 26.5 -10.5t10.5 -26.5
q0 -15 -10.5 -25.5t-26.5 -10.5q-15 0 -26 10.5z" />
    <glyph glyph-name="igrave" unicode="&#xec;" horiz-adv-x="215" 
d="M84 430l47 11v-441h-47v430zM-3 649l27 43l190 -126l-24 -38z" />
    <glyph glyph-name="iacute" unicode="&#xed;" horiz-adv-x="215" 
d="M84 430l47 11v-441h-47v430zM7 566l190 126l27 -43l-193 -121z" />
    <glyph glyph-name="icircumflex" unicode="&#xee;" horiz-adv-x="215" 
d="M84 430l47 11v-441h-47v430zM195 529l-87 101l-87 -101l-30 28l117 135l118 -135z" />
    <glyph glyph-name="idieresis" unicode="&#xef;" horiz-adv-x="215" 
d="M84 430l47 11v-441h-47v430zM7.5 576.5q-10.5 10.5 -10.5 25.5q0 16 10.5 26.5t26.5 10.5q15 0 26 -10.5t11 -26.5q0 -15 -11 -25.5t-26 -10.5q-16 0 -26.5 10.5zM156 576.5q-11 10.5 -11 25.5q0 16 11 26.5t26 10.5q16 0 26.5 -10.5t10.5 -26.5q0 -15 -10.5 -25.5
t-26.5 -10.5q-15 0 -26 10.5z" />
    <glyph glyph-name="eth" unicode="&#xf0;" horiz-adv-x="558" 
d="M466 431q35 -94 35 -204q0 -66 -30 -120t-82.5 -85t-116.5 -31q-63 0 -116 30.5t-84 82.5t-31 114t30 113.5t82.5 82t114.5 30.5q53 0 97.5 -22t74.5 -61q-30 123 -120 218l-152 -74l-19 39l138 67q-53 46 -117 83l53 13q60 -35 105 -76l131 63l18 -39l-116 -56
q70 -74 105 -168zM361.5 59.5q41.5 24.5 65.5 66t24 91.5q0 51 -24 93t-65.5 66.5t-91.5 24.5t-91 -24.5t-65 -66.5t-24 -92q0 -51 24 -93t65.5 -66t91.5 -24q49 0 90.5 24.5z" />
    <glyph glyph-name="ntilde" unicode="&#xf1;" horiz-adv-x="519" 
d="M365.5 422.5q38.5 -21.5 60.5 -63.5t22 -101v-258h-47v254q0 47 -16.5 80t-46 49.5t-67.5 16.5q-42 0 -74.5 -19t-51 -54t-18.5 -80v-247h-47v430l45 11v-78q24 39 63.5 60t88.5 21q50 0 88.5 -21.5zM292.5 571q-16.5 8 -36.5 23q-20 13 -30.5 18.5t-24.5 5.5
q-22 0 -34.5 -15t-12.5 -37h-40q0 28 11 49t31 32.5t45 11.5q22 0 38 -7.5t37 -22.5q20 -13 30.5 -18.5t24.5 -5.5q22 0 34.5 15t12.5 37h40q0 -42 -24 -68t-63 -26q-22 0 -38.5 8z" />
    <glyph glyph-name="ograve" unicode="&#xf2;" horiz-adv-x="541" 
d="M154.5 21q-52.5 30 -83 82t-30.5 115q0 62 30.5 114t83 82t115.5 30q64 0 116 -30t82.5 -81.5t30.5 -114.5t-30.5 -115t-83 -82t-115.5 -30t-115.5 30zM361.5 59q41.5 24 65.5 66t24 93t-24 92.5t-65.5 65.5t-91.5 24t-91 -24t-65 -65.5t-24 -92.5t24 -93t65 -66t91 -24
t91.5 24zM159 649l27 43l190 -126l-24 -38z" />
    <glyph glyph-name="oacute" unicode="&#xf3;" horiz-adv-x="541" 
d="M154.5 21q-52.5 30 -83 82t-30.5 115q0 62 30.5 114t83 82t115.5 30q64 0 116 -30t82.5 -81.5t30.5 -114.5t-30.5 -115t-83 -82t-115.5 -30t-115.5 30zM361.5 59q41.5 24 65.5 66t24 93t-24 92.5t-65.5 65.5t-91.5 24t-91 -24t-65 -65.5t-24 -92.5t24 -93t65 -66t91 -24
t91.5 24zM169 566l190 126l27 -43l-193 -121z" />
    <glyph glyph-name="ocircumflex" unicode="&#xf4;" horiz-adv-x="541" 
d="M154.5 21q-52.5 30 -83 82t-30.5 115q0 62 30.5 114t83 82t115.5 30q64 0 116 -30t82.5 -81.5t30.5 -114.5t-30.5 -115t-83 -82t-115.5 -30t-115.5 30zM361.5 59q41.5 24 65.5 66t24 93t-24 92.5t-65.5 65.5t-91.5 24t-91 -24t-65 -65.5t-24 -92.5t24 -93t65 -66t91 -24
t91.5 24zM383 529l-113 103l-113 -103l-28 29l141 134l141 -134z" />
    <glyph glyph-name="otilde" unicode="&#xf5;" horiz-adv-x="541" 
d="M154.5 21q-52.5 30 -83 82t-30.5 115q0 62 30.5 114t83 82t115.5 30q64 0 116 -30t82.5 -81.5t30.5 -114.5t-30.5 -115t-83 -82t-115.5 -30t-115.5 30zM361.5 59q41.5 24 65.5 66t24 93t-24 92.5t-65.5 65.5t-91.5 24t-91 -24t-65 -65.5t-24 -92.5t24 -93t65 -66t91 -24
t91.5 24zM296.5 571q-16.5 8 -36.5 23q-20 13 -30.5 18.5t-24.5 5.5q-22 0 -34.5 -15t-12.5 -37h-40q0 28 11 49t31 32.5t45 11.5q22 0 38 -7.5t37 -22.5q20 -13 30.5 -18.5t24.5 -5.5q22 0 34.5 15t12.5 37h40q0 -42 -24 -68t-63 -26q-22 0 -38.5 8z" />
    <glyph glyph-name="odieresis" unicode="&#xf6;" horiz-adv-x="541" 
d="M154.5 21q-52.5 30 -83 82t-30.5 115q0 62 30.5 114t83 82t115.5 30q64 0 116 -30t82.5 -81.5t30.5 -114.5t-30.5 -115t-83 -82t-115.5 -30t-115.5 30zM361.5 59q41.5 24 65.5 66t24 93t-24 92.5t-65.5 65.5t-91.5 24t-91 -24t-65 -65.5t-24 -92.5t24 -93t65 -66t91 -24
t91.5 24zM148.5 576.5q-10.5 10.5 -10.5 25.5q0 16 10.5 26.5t26.5 10.5q15 0 26 -10.5t11 -26.5q0 -15 -11 -25.5t-26 -10.5q-16 0 -26.5 10.5zM339 576.5q-11 10.5 -11 25.5q0 16 11 26.5t26 10.5q16 0 26.5 -10.5t10.5 -26.5q0 -15 -10.5 -25.5t-26.5 -10.5
q-15 0 -26 10.5z" />
    <glyph glyph-name="divide" unicode="&#xf7;" horiz-adv-x="505" 
d="M225 469.5q-11 11.5 -11 27.5t11 27.5t27 11.5q17 0 28 -11t11 -28q0 -16 -11 -27.5t-28 -11.5q-16 0 -27 11.5zM41 352h423v-44h-423v44zM225 136.5q-11 11.5 -11 27.5t11 27t27 11t27.5 -11t11.5 -27t-11 -27.5t-28 -11.5q-16 0 -27 11.5z" />
    <glyph glyph-name="oslash" unicode="&#xf8;" horiz-adv-x="541" 
d="M482.5 303.5q16.5 -40.5 16.5 -85.5q0 -63 -30.5 -115t-83 -82t-115.5 -30q-37 0 -71 11t-62 31l-42 -48l-33 30l41 47q-30 30 -46 70.5t-16 85.5q0 62 30.5 114t83 82t115.5 30q37 0 71 -10.5t62 -30.5l41 47l33 -29l-40 -46q29 -31 45.5 -71.5zM101.5 152
q11.5 -31 32.5 -55l239 272q-45 31 -103 31q-50 0 -91 -24t-65 -65.5t-24 -92.5q0 -35 11.5 -66zM361.5 59q41.5 24 65.5 66t24 93q0 35 -12 66t-33 56l-239 -273q46 -32 103 -32q50 0 91.5 24z" />
    <glyph glyph-name="ugrave" unicode="&#xf9;" horiz-adv-x="515" 
d="M435 441v-442h-45v73q-23 -38 -62.5 -59.5t-87.5 -21.5q-50 0 -88 21.5t-59.5 63.5t-21.5 101v253l47 11v-260q0 -47 16.5 -79.5t45 -49t66.5 -16.5q41 0 73.5 19t50.5 53.5t18 80.5v241zM142 649l27 43l190 -126l-24 -38z" />
    <glyph glyph-name="uacute" unicode="&#xfa;" horiz-adv-x="515" 
d="M435 441v-442h-45v73q-23 -38 -62.5 -59.5t-87.5 -21.5q-50 0 -88 21.5t-59.5 63.5t-21.5 101v253l47 11v-260q0 -47 16.5 -79.5t45 -49t66.5 -16.5q41 0 73.5 19t50.5 53.5t18 80.5v241zM152 566l190 126l27 -43l-193 -121z" />
    <glyph glyph-name="ucircumflex" unicode="&#xfb;" horiz-adv-x="515" 
d="M435 441v-442h-45v73q-23 -38 -62.5 -59.5t-87.5 -21.5q-50 0 -88 21.5t-59.5 63.5t-21.5 101v253l47 11v-260q0 -47 16.5 -79.5t45 -49t66.5 -16.5q41 0 73.5 19t50.5 53.5t18 80.5v241zM366 529l-113 103l-113 -103l-28 29l141 134l141 -134z" />
    <glyph glyph-name="udieresis" unicode="&#xfc;" horiz-adv-x="515" 
d="M435 441v-442h-45v73q-23 -38 -62.5 -59.5t-87.5 -21.5q-50 0 -88 21.5t-59.5 63.5t-21.5 101v253l47 11v-260q0 -47 16.5 -79.5t45 -49t66.5 -16.5q41 0 73.5 19t50.5 53.5t18 80.5v241zM131.5 576.5q-10.5 10.5 -10.5 25.5q0 16 10.5 26.5t26.5 10.5q15 0 26 -10.5
t11 -26.5q0 -15 -11 -25.5t-26 -10.5q-16 0 -26.5 10.5zM322 576.5q-11 10.5 -11 25.5q0 16 11 26.5t26 10.5q16 0 26.5 -10.5t10.5 -26.5q0 -15 -10.5 -25.5t-26.5 -10.5q-15 0 -26 10.5z" />
    <glyph glyph-name="yacute" unicode="&#xfd;" horiz-adv-x="482" 
d="M460 435l-349 -665h-53l158 295l-194 370h53l166 -322l166 322h53zM140 566l190 126l27 -43l-193 -121z" />
    <glyph glyph-name="thorn" unicode="&#xfe;" horiz-adv-x="574" 
d="M420.5 414q51.5 -30 81.5 -82t30 -114t-30 -114.5t-81.5 -82.5t-112.5 -30q-57 0 -104.5 26t-76.5 71v-318h-47v949l47 12v-384q29 45 76.5 71t104.5 26q61 0 112.5 -30zM395 59.5q41 24.5 65 66.5t24 92t-24 91.5t-65 66t-91 24.5t-91 -24.5t-65 -66t-24 -91.5t24 -92
t65 -66.5t91 -24.5t91 24.5z" />
    <glyph glyph-name="ydieresis" unicode="&#xff;" horiz-adv-x="482" 
d="M460 435l-349 -665h-53l158 295l-194 370h53l166 -322l166 322h53zM119.5 576.5q-10.5 10.5 -10.5 25.5q0 16 10.5 26.5t26.5 10.5q15 0 26 -10.5t11 -26.5q0 -15 -11 -25.5t-26 -10.5q-16 0 -26.5 10.5zM310 576.5q-11 10.5 -11 25.5q0 16 11 26.5t26 10.5
q16 0 26.5 -10.5t10.5 -26.5q0 -15 -10.5 -25.5t-26.5 -10.5q-15 0 -26 10.5z" />
    <glyph glyph-name="dotlessi" unicode="&#x131;" horiz-adv-x="215" 
d="M84 430l47 11v-441h-47v430z" />
    <glyph glyph-name="OE" unicode="&#x152;" horiz-adv-x="933" 
d="M876 48l-10 -48h-439q-103 0 -186.5 45.5t-131 125.5t-47.5 179t47.5 179t131 125.5t186.5 45.5h427l10 -48h-316v-264h265v-49h-265v-291h328zM497 48v604h-70q-88 0 -159.5 -39.5t-112 -108.5t-40.5 -154t40.5 -154t112 -108.5t159.5 -39.5h70z" />
    <glyph glyph-name="oe" unicode="&#x153;" horiz-adv-x="922" 
d="M847 113l19 -44q-40 -38 -87.5 -58t-99.5 -20q-70 0 -124.5 35.5t-80.5 95.5q-27 -59 -82 -95t-123 -36q-63 0 -115 30t-82.5 82.5t-30.5 114.5t30.5 114t82.5 82t115 30q69 0 123.5 -36t81.5 -95q27 59 81.5 95t122.5 36q51 0 94.5 -21t72 -60.5t36.5 -92.5l-376 -112
q12 -36 36.5 -64t60 -43.5t77.5 -15.5q95 0 168 78zM585.5 376.5q-41.5 -24.5 -65.5 -66.5t-24 -93q0 -11 1 -17l329 98q-16 47 -56 75t-93 28q-50 0 -91.5 -24.5zM361.5 59q41.5 24 65.5 66t24 93t-24 92.5t-65.5 65.5t-91.5 24t-91 -24t-65 -65.5t-24 -92.5t24 -93t65 -66
t91 -24t91.5 24z" />
    <glyph glyph-name="Scaron" unicode="&#x160;" horiz-adv-x="522" 
d="M141.5 11q-50.5 22 -90.5 56l12 55q39 -38 88 -61.5t100 -23.5q46 0 81.5 19t55 52t19.5 74q0 53 -31 88.5t-102 58.5l-31 10q-86 29 -128 76t-42 116q0 51 24.5 92t67.5 64.5t98 23.5q40 0 83.5 -13.5t84.5 -40.5l-10 -53q-81 59 -158 59q-40 0 -72 -17t-49.5 -47
t-17.5 -68q0 -53 33.5 -86t103.5 -56l31 -10q86 -28 126.5 -77t40.5 -119q0 -55 -26.5 -99.5t-74 -69.5t-107.5 -25q-59 0 -109.5 22zM401 912l-141 -134l-141 134l28 29l113 -103l113 103z" />
    <glyph glyph-name="scaron" unicode="&#x161;" horiz-adv-x="370" 
d="M110.5 4q-35.5 13 -65.5 36l9 45q65 -52 127 -52q40 0 64 22.5t24 58.5q0 29 -21 50.5t-68 36.5l-16 6q-52 18 -78 49t-26 74q0 33 16 59t44.5 40.5t64.5 14.5q27 0 56.5 -8.5t56.5 -24.5l-9 -44q-54 35 -104 35q-36 0 -58 -19.5t-22 -51.5q0 -28 18 -47.5t63 -34.5
l17 -5q55 -18 83.5 -51t28.5 -79q0 -36 -17 -64t-47.5 -43.5t-69.5 -15.5q-35 0 -70.5 13zM328 664l-141 -134l-141 134l28 29l113 -103l113 103z" />
    <glyph glyph-name="Ydieresis" unicode="&#x178;" horiz-adv-x="577" 
d="M314 276v-276h-51v276l-237 424h57l206 -371l205 371h57zM140 822q-12 12 -12 29q0 18 12 30t29 12t29 -12t12 -30q0 -17 -12 -29t-29 -12t-29 12zM380 822q-12 12 -12 29q0 18 12 30t29 12t29 -12t12 -30q0 -17 -12 -29t-29 -12t-29 12z" />
    <glyph glyph-name="Zcaron" unicode="&#x17d;" horiz-adv-x="662" 
d="M151 48h448l-10 -48h-532l455 652h-432l9 48h516zM472 912l-141 -134l-141 134l28 29l113 -103l113 103z" />
    <glyph glyph-name="zcaron" unicode="&#x17e;" horiz-adv-x="464" 
d="M127 43h294l-9 -43h-373l298 393h-277l9 42h356zM374 664l-141 -134l-141 134l28 29l113 -103l113 103z" />
    <glyph glyph-name="florin" unicode="&#x192;" horiz-adv-x="379" 
d="M252.5 657q-33.5 -31 -47.5 -96l-24 -126h108v-43h-117l-75 -392h-48l76 392h-58v43h67l25 129q17 87 65 127.5t121 40.5v-44q-59 0 -92.5 -31z" />
    <glyph glyph-name="uni0237" unicode="&#x237;" horiz-adv-x="215" 
d="M-27 -191q53 2 82 36t29 95v490l47 11v-504q0 -53 -19 -91.5t-54.5 -59.5t-84.5 -22v45z" />
    <glyph glyph-name="circumflex" unicode="&#x2c6;" horiz-adv-x="400" 
d="M313 529l-113 103l-113 -103l-28 29l141 134l141 -134z" />
    <glyph glyph-name="tilde" unicode="&#x2dc;" horiz-adv-x="400" 
d="M226.5 571q-16.5 8 -36.5 23q-20 13 -30.5 18.5t-24.5 5.5q-22 0 -34.5 -15t-12.5 -37h-40q0 28 11 49t31 32.5t45 11.5q22 0 38 -7.5t37 -22.5q20 -13 30.5 -18.5t24.5 -5.5q22 0 34.5 15t12.5 37h40q0 -42 -24 -68t-63 -26q-22 0 -38.5 8z" />
    <glyph glyph-name="gravecomb" unicode="&#x300;" 
d="M-361 649l27 43l190 -126l-24 -38z" />
    <glyph glyph-name="acutecomb" unicode="&#x301;" 
d="M-351 566l190 126l27 -43l-193 -121z" />
    <glyph glyph-name="uni0302" unicode="&#x302;" 
d="M-137 529l-113 103l-113 -103l-28 29l141 134l141 -134z" />
    <glyph glyph-name="tildecomb" unicode="&#x303;" 
d="M-223.5 571q-16.5 8 -36.5 23q-20 13 -30.5 18.5t-24.5 5.5q-22 0 -34.5 -15t-12.5 -37h-40q0 28 11 49t31 32.5t45 11.5q22 0 38 -7.5t37 -22.5q20 -13 30.5 -18.5t24.5 -5.5q22 0 34.5 15t12.5 37h40q0 -42 -24 -68t-63 -26q-22 0 -38.5 8z" />
    <glyph glyph-name="uni0304" unicode="&#x304;" 
d="M-385 636h270v-44h-270v44z" />
    <glyph glyph-name="uni0308" unicode="&#x308;" 
d="M-371.5 576.5q-10.5 10.5 -10.5 25.5q0 16 10.5 26.5t26.5 10.5q15 0 26 -10.5t11 -26.5q0 -15 -11 -25.5t-26 -10.5q-16 0 -26.5 10.5zM-181 576.5q-11 10.5 -11 25.5q0 16 11 26.5t26 10.5q16 0 26.5 -10.5t10.5 -26.5q0 -15 -10.5 -25.5t-26.5 -10.5q-15 0 -26 10.5z
" />
    <glyph glyph-name="uni030A" unicode="&#x30a;" 
d="M-304.5 526q-24.5 14 -39 37.5t-14.5 52.5t14.5 53t39 37.5t54.5 13.5t54.5 -13.5t39 -37.5t14.5 -53t-14.5 -52.5t-39 -37.5t-54.5 -14t-54.5 14zM-215 557q16 9 25 24.5t9 34.5q0 29 -20 49t-49 20t-49 -20t-20 -49q0 -19 9 -34.5t25 -24.5t35 -9t35 9z" />
    <glyph glyph-name="uni030C" unicode="&#x30c;" 
d="M-108 664l-141 -134l-141 134l28 29l113 -103l113 103z" />
    <glyph glyph-name="uni0327" unicode="&#x327;" 
d="M-378 -137l111 147h44l-110 -178z" />
    <glyph glyph-name="mu" unicode="&#x3bc;" horiz-adv-x="524" 
d="M444 441v-442h-45v66q-22 -36 -57.5 -55t-82.5 -19q-43 0 -77 18t-55 51v-290h-47v660l47 11v-253q0 -47 16.5 -81.5t46.5 -52.5t70 -18q41 0 72 18t48 52.5t17 81.5v242z" />
    <glyph glyph-name="endash" unicode="&#x2013;" horiz-adv-x="500" 
d="M45 248h410v-41h-410v41z" />
    <glyph glyph-name="emdash" unicode="&#x2014;" horiz-adv-x="900" 
d="M45 248h810v-41h-810v41z" />
    <glyph glyph-name="quoteleft" unicode="&#x2018;" horiz-adv-x="235" 
d="M101 441h-54l92 253l50 8z" />
    <glyph glyph-name="quoteright" unicode="&#x2019;" horiz-adv-x="235" 
d="M134 700h54l-92 -253l-50 -8z" />
    <glyph glyph-name="quotesinglbase" unicode="&#x201a;" horiz-adv-x="235" 
d="M117 107h54l-92 -253l-50 -8z" />
    <glyph glyph-name="quotedblleft" unicode="&#x201c;" horiz-adv-x="381" 
d="M101 441h-54l92 253l50 8zM247 441h-54l92 253l50 8z" />
    <glyph glyph-name="quotedblright" unicode="&#x201d;" horiz-adv-x="381" 
d="M134 700h54l-92 -253l-50 -8zM280 700h54l-92 -253l-50 -8z" />
    <glyph glyph-name="quotedblbase" unicode="&#x201e;" horiz-adv-x="381" 
d="M117 107h54l-92 -253l-50 -8zM263 107h54l-92 -253l-50 -8z" />
    <glyph glyph-name="dagger" unicode="&#x2020;" horiz-adv-x="419" 
d="M363 508h-130v-368h-47v368h-130v44h130v148h47v-148h130v-44z" />
    <glyph glyph-name="daggerdbl" unicode="&#x2021;" horiz-adv-x="419" 
d="M233 508v-166h130v-44h-130v-158h-47v158h-130v44h130v166h-130v44h130v148h47v-148h130v-44h-130z" />
    <glyph glyph-name="bullet" unicode="&#x2022;" horiz-adv-x="332" 
d="M120.5 151q-20.5 12 -32 32.5t-11.5 44.5t11.5 44t32 32t45.5 12q24 0 44 -12t32 -32t12 -44t-12 -44.5t-32 -32.5t-44 -12q-25 0 -45.5 12z" />
    <glyph glyph-name="ellipsis" unicode="&#x2026;" horiz-adv-x="659" 
d="M90 6.5q-13 12.5 -13 31.5t13 31.5t32 12.5t32 -12.5t13 -31.5t-13 -31.5t-32 -12.5t-32 12.5zM298 6.5q-13 12.5 -13 31.5t13 31.5t32 12.5t32 -12.5t13 -31.5t-13 -31.5t-32 -12.5t-32 12.5zM505 6.5q-13 12.5 -13 31.5t13 31.5t32 12.5t32 -12.5t13 -31.5t-13 -31.5
t-32 -12.5t-32 12.5z" />
    <glyph glyph-name="perthousand" unicode="&#x2030;" horiz-adv-x="1207" 
d="M130 18l558 690l31 -26l-557 -690zM549 18.5q-32 24.5 -49 67.5t-17 96t17 96t49 67.5t76 24.5t76.5 -25t49.5 -67.5t17 -95.5t-17 -95.5t-49.5 -67.5t-76.5 -25t-76 24.5zM679.5 54.5q22.5 19.5 34 52.5t11.5 75t-11.5 75t-34 52.5t-54.5 19.5q-31 0 -53 -19.5
t-33.5 -52.5t-11.5 -75t11.5 -75t33.5 -52.5t53 -19.5q32 0 54.5 19.5zM151 353.5q-32 24.5 -49 67.5t-17 96t17 96t49 67.5t76 24.5t76.5 -25t49.5 -67.5t17 -95.5t-17 -95.5t-49.5 -67.5t-76.5 -25t-76 24.5zM281.5 389.5q22.5 19.5 34 52.5t11.5 75t-11.5 75t-34 52.5
t-54.5 19.5q-31 0 -53 -19.5t-33.5 -52.5t-11.5 -75t11.5 -75t33.5 -52.5t53 -19.5q32 0 54.5 19.5zM903 18.5q-32 24.5 -49 67.5t-17 96t17 96t49 67.5t76 24.5t76.5 -25t49.5 -67.5t17 -95.5t-17 -95.5t-49.5 -67.5t-76.5 -25t-76 24.5zM1033.5 54.5q22.5 19.5 34 52.5
t11.5 75t-11.5 75t-34 52.5t-54.5 19.5q-31 0 -53 -19.5t-33.5 -52.5t-11.5 -75t11.5 -75t33.5 -52.5t53 -19.5q32 0 54.5 19.5z" />
    <glyph glyph-name="guilsinglleft" unicode="&#x2039;" horiz-adv-x="315" 
d="M117 220l127 -172l-37 -27l-147 199l147 199l37 -27z" />
    <glyph glyph-name="guilsinglright" unicode="&#x203a;" horiz-adv-x="315" 
d="M255 221l-147 -199l-37 27l127 172l-127 172l37 27z" />
    <glyph glyph-name="fraction" unicode="&#x2044;" horiz-adv-x="208" 
d="M-191 18l558 690l31 -26l-557 -690z" />
    <glyph glyph-name="Euro" unicode="&#x20ac;" horiz-adv-x="726" 
d="M648 37q-85 -48 -184 -48q-83 0 -155.5 33t-123 92.5t-71.5 135.5h-82l8 44h64q-4 24 -4 56q0 20 4 58h-72l8 44h74q21 76 72 134.5t123.5 91.5t155.5 33q93 0 174 -42l-10 -52q-36 22 -78.5 34t-86.5 12q-68 0 -127.5 -26.5t-103 -74.5t-64.5 -110h429l-8 -44h-432
q-5 -32 -5 -58t5 -56h411l-9 -44h-391q20 -62 63.5 -110.5t103.5 -75.5t128 -27q93 0 174 51z" />
    <glyph glyph-name="trademark" unicode="&#x2122;" horiz-adv-x="849" 
d="M745 327l-43 253l-127 -252l-126 253l-42 -254h-47l67 385l149 -289l148 289l67 -384zM315 655h-124v-328h-48v328h-124l9 45h279z" />
    <glyph glyph-name="glyph140" horiz-adv-x="349" 
d="M98 18.5q-32 24.5 -49 67.5t-17 96t17 96t49 67.5t76 24.5t76.5 -25t49.5 -67.5t17 -95.5t-17 -95.5t-49.5 -67.5t-76.5 -25t-76 24.5zM228.5 54.5q22.5 19.5 34 52.5t11.5 75t-11.5 75t-34 52.5t-54.5 19.5q-31 0 -53 -19.5t-33.5 -52.5t-11.5 -75t11.5 -75t33.5 -52.5
t53 -19.5q32 0 54.5 19.5z" />
    <glyph glyph-name="glyph141" horiz-adv-x="193" 
d="M146 373v-373h-44v304l-83 -48l-7 41z" />
    <glyph glyph-name="glyph142" horiz-adv-x="304" 
d="M114 40h152l-8 -40h-232l122 132q28 30 43.5 48.5t24 36.5t8.5 37q0 22 -10.5 39t-28 26.5t-39.5 9.5q-21 0 -38.5 -9.5t-27.5 -26t-10 -37.5q0 -18 10 -40l-43 -6q-4 11 -7 23t-3 25q0 31 16 56.5t43 40.5t60 15q34 0 61.5 -15t43.5 -41.5t16 -58.5q0 -25 -10 -47
t-28 -44t-51 -57z" />
    <glyph glyph-name="glyph143" horiz-adv-x="290" 
d="M205.5 210q25.5 -15 40 -40.5t14.5 -55.5q0 -34 -17.5 -61.5t-47.5 -43t-67 -15.5q-31 0 -59 13t-49 35l18 34q16 -19 39.5 -31t49.5 -12q25 0 45 11t31.5 29.5t11.5 41.5q0 22 -11.5 40.5t-32 29t-46.5 10.5q-25 0 -47 -7l102 137h-147l6 39h216l-106 -138
q31 -1 56.5 -16z" />
    <glyph glyph-name="glyph144" horiz-adv-x="301" 
d="M276 91h-48v-91h-42v91h-182l224 292v-256h48v-36zM186 127v138l-105 -138h105z" />
    <glyph glyph-name="glyph145" horiz-adv-x="349" 
d="M98 353.5q-32 24.5 -49 67.5t-17 96t17 96t49 67.5t76 24.5t76.5 -25t49.5 -67.5t17 -95.5t-17 -95.5t-49.5 -67.5t-76.5 -25t-76 24.5zM228.5 389.5q22.5 19.5 34 52.5t11.5 75t-11.5 75t-34 52.5t-54.5 19.5q-31 0 -53 -19.5t-33.5 -52.5t-11.5 -75t11.5 -75
t33.5 -52.5t53 -19.5q32 0 54.5 19.5z" />
    <glyph glyph-name="glyph146" horiz-adv-x="193" 
d="M146 708v-373h-44v304l-83 -48l-7 41z" />
    <glyph glyph-name="glyph147" horiz-adv-x="290" 
d="M205.5 545q25.5 -15 40 -40.5t14.5 -55.5q0 -34 -17.5 -61.5t-47.5 -43t-67 -15.5q-31 0 -59 13t-49 35l18 34q16 -19 39.5 -31t49.5 -12q25 0 45 11t31.5 29.5t11.5 41.5q0 22 -11.5 40.5t-32 29t-46.5 10.5q-25 0 -47 -7l102 137h-147l6 39h216l-106 -138
q31 -1 56.5 -16z" />
    <glyph glyph-name="glyph235" 
d="M-399 822q-12 12 -12 29q0 18 12 30t29 12t29 -12t12 -30q0 -17 -12 -29t-29 -12t-29 12zM-159 822q-12 12 -12 29q0 18 12 30t29 12t29 -12t12 -30q0 -17 -12 -29t-29 -12t-29 12z" />
    <glyph glyph-name="glyph236" 
d="M-393 892l23 46l221 -115l-19 -41z" />
    <glyph glyph-name="glyph237" 
d="M-351 823l221 115l23 -46l-225 -110z" />
    <glyph glyph-name="glyph238" 
d="M-137 780l-113 103l-113 -103l-28 29l141 134l141 -134z" />
    <glyph glyph-name="glyph239" 
d="M-109 912l-141 -134l-141 134l28 29l113 -103l113 103z" />
    <glyph glyph-name="glyph240" 
d="M-306 770q-25 14 -39.5 38t-14.5 53t14.5 53t39.5 38t56 14t56 -14t39.5 -38t14.5 -53t-14.5 -53t-39.5 -38t-56 -14t-56 14zM-200 812q20 20 20 49t-20 49t-50 20t-50 -20t-20 -49t20 -49t50 -20t50 20z" />
    <glyph glyph-name="glyph241" 
d="M-220.5 826q-17.5 8 -41.5 23q-20 12 -32 18t-27 6q-23 0 -37.5 -14.5t-14.5 -37.5h-39q0 28 11.5 49t32.5 33t48 12q23 0 40.5 -8t41.5 -23q20 -12 32 -18t27 -6q23 0 37.5 14.5t14.5 37.5h39q0 -27 -11.5 -48.5t-32.5 -33.5t-48 -12q-23 0 -40.5 8z" />
    <glyph glyph-name="glyph242" 
d="M-350.5 576.5q-10.5 10.5 -10.5 25.5q0 16 10.5 26.5t26.5 10.5q15 0 26 -10.5t11 -26.5q0 -15 -11 -25.5t-26 -10.5q-16 0 -26.5 10.5zM-202 576.5q-11 10.5 -11 25.5q0 16 11 26.5t26 10.5q16 0 26.5 -10.5t10.5 -26.5q0 -15 -10.5 -25.5t-26.5 -10.5q-15 0 -26 10.5z
" />
    <glyph glyph-name="glyph243" 
d="M-163 529l-87 101l-87 -101l-30 28l117 135l118 -135z" />
    <glyph glyph-name="glyph244" 
d="M-374 822q-12 12 -12 29q0 18 12 30t29 12t29 -12t12 -30q0 -17 -12 -29t-29 -12t-29 12zM-184 822q-12 12 -12 29q0 18 12 30t29 12q18 0 29.5 -12t11.5 -30q0 -17 -11.5 -29t-29.5 -12q-17 0 -29 12z" />
    </font>
</defs>
</svg>
