<?xml version="1.0" standalone="no"?>
<!DOCTYPE svg PUBLIC "-//W3C//DTD SVG 1.1//EN" "http://www.w3.org/Graphics/SVG/1.1/DTD/svg11.dtd" >
<svg xmlns="http://www.w3.org/2000/svg" xmlns:xlink="http://www.w3.org/1999/xlink" version="1.1">
<metadata>
Created by FontForge 20200427 at Wed Dec 14 17:25:16 2011
 By www
Copyright (c) 2010 by Torleiv Georg Sverdrup. All rights reserved.
</metadata>
<defs>
<font id="P22SpeysideW01-ProSemiBold" horiz-adv-x="532" >
  <font-face 
    font-family="P22SpeysideW01-ProSemiBold"
    font-weight="600"
    font-stretch="normal"
    units-per-em="1000"
    panose-1="2 0 5 3 3 0 0 2 0 4"
    ascent="743"
    descent="-257"
    x-height="486"
    cap-height="685"
    bbox="-61 -200 1123 881"
    underline-thickness="20"
    underline-position="-153"
    unicode-range="U+000D-2122"
  />
<missing-glyph horiz-adv-x="0" 
 />
    <glyph glyph-name=".notdef" horiz-adv-x="0" 
 />
    <glyph glyph-name=".null" horiz-adv-x="0" 
 />
    <glyph glyph-name="uni000D" unicode="&#xd;" horiz-adv-x="437" 
 />
    <glyph glyph-name="space" unicode=" " horiz-adv-x="243" 
 />
    <glyph glyph-name="exclam" unicode="!" horiz-adv-x="261" 
d="M85 51q0 23 11.5 40.5t37.5 17.5q25 0 36.5 -17.5t11.5 -40.5t-11.5 -39.5t-36.5 -16.5q-23 0 -36 16.5t-13 39.5zM134 189q-18 0 -30 12.5t-12 29.5v247q0 51 -0.5 81.5t-1.5 47.5t-1.5 25t-0.5 13q0 20 15 30t31 10t31 -10t15 -30q0 -5 -1 -13t-1.5 -25t-1.5 -47.5
t-1 -81.5v-247q0 -17 -12 -29.5t-29 -12.5z" />
    <glyph glyph-name="quotedbl" unicode="&#x22;" horiz-adv-x="350" 
d="M90 474q-14 0 -24.5 9.5t-10.5 23.5q0 13 5.5 21t12.5 15t12.5 13.5t5.5 16.5q0 6 -4.5 11.5t-10.5 12t-10.5 15t-4.5 22.5q0 21 11 38t35 17q29 0 41.5 -23t12.5 -58q0 -16 -5 -39t-14.5 -44t-22.5 -36t-29 -15zM222 474q-14 0 -24.5 9.5t-10.5 23.5q0 13 5.5 21
t12.5 15t12.5 13.5t5.5 16.5q0 6 -4.5 11.5t-10.5 12t-10.5 15t-4.5 22.5q0 21 11 38t35 17q29 0 41.5 -23t12.5 -58q0 -16 -5 -39t-14.5 -44t-22.5 -36t-29 -15z" />
    <glyph glyph-name="numbersign" unicode="#" horiz-adv-x="465" 
d="M120 165q0 6 -4 6h-31q-17 0 -29 11t-12 29t12 30t29 12h31q4 0 4 3v63q0 4 -4 4h-31q-17 0 -29 12t-12 29q0 18 12 29t29 11h31q4 0 4 6v39q0 18 11.5 30t29.5 12t29.5 -12t11.5 -30v-39q0 -6 6 -6h50q6 0 6 6v39q0 18 11.5 30t29.5 12t29.5 -12t11.5 -30v-39q0 -6 5 -6
h30q17 0 29.5 -11t12.5 -29q0 -17 -12.5 -29t-29.5 -12h-30q-5 0 -5 -4v-63q0 -3 5 -3h30q17 0 29.5 -12t12.5 -30t-12.5 -29t-29.5 -11h-30q-5 0 -5 -6v-39q0 -17 -11.5 -29t-29.5 -12t-29.5 12t-11.5 29v39q0 6 -6 6h-50q-6 0 -6 -6v-39q0 -17 -11.5 -29t-29.5 -12
t-29.5 12t-11.5 29v39zM202 256q0 -3 6 -3h50q6 0 6 3v63q0 4 -6 4h-50q-6 0 -6 -4v-63z" />
    <glyph glyph-name="dollar" unicode="$" horiz-adv-x="481" 
d="M188 429q1 -1 3 -1q7 0 7 19v124q0 19 -6 19q-3 0 -5 -1q-25 -13 -39.5 -36t-14.5 -49q0 -14 11 -33t44 -42zM56 51q-21 11 -21 34q0 17 13.5 33t32.5 16q3 0 6.5 -1.5t7.5 -3.5l8 -4q10 -6 23 -13t25.5 -12.5t23 -9.5t16.5 -4q4 0 5.5 3.5t1.5 14.5v210q0 6 -1.5 9.5
t-8.5 7.5q-41 21 -68.5 41t-44 40t-24 42t-7.5 48q0 30 10.5 58.5t30 51.5t45.5 40t58 25q5 2 7.5 4.5t2.5 13.5v47q0 17 12 28.5t29 11.5t29 -11.5t12 -28.5v-46q0 -9 2.5 -12.5t6.5 -4.5q30 -6 59.5 -15t52.5 -22q22 -13 22 -36q0 -18 -12 -32.5t-32 -14.5q-12 0 -25 7
q-6 4 -16 9t-20 9.5t-18.5 7.5t-11.5 3q-8 0 -8 -18v-183q0 -7 2.5 -10.5t6.5 -6.5q47 -24 79 -46t51.5 -44.5t27.5 -47t8 -52.5q0 -33 -12.5 -64t-34.5 -56t-52.5 -42.5t-66.5 -24.5q-9 -2 -9 -17v-44q0 -18 -12 -29.5t-29 -11.5t-29 11.5t-12 29.5v46q0 14 -4 15t-6 2
q-35 6 -70 18.5t-62 30.5zM280 101q0 -4 1 -9.5t6 -5.5q8 0 21 7.5t26 20.5t22 31.5t9 41.5q0 26 -16 47t-56 47q-3 2 -6 2q-7 0 -7 -19v-163z" />
    <glyph glyph-name="percent" unicode="%" horiz-adv-x="815" 
d="M184 332q-31 0 -54.5 15t-39 39.5t-23.5 56t-8 64.5t8 65t23.5 57t39 40t54.5 15t54 -15t38.5 -40t23.5 -57t8 -65t-8 -64.5t-23.5 -56t-38.5 -39.5t-54 -15zM184 397q13 0 23 9.5t17 25.5t10.5 35.5t3.5 39.5t-3.5 40t-10.5 35.5t-17 25.5t-23 10t-23.5 -10t-17.5 -25.5
t-10.5 -35.5t-3.5 -40t3.5 -39.5t10.5 -35.5t17.5 -25.5t23.5 -9.5zM92 21q0 6 2.5 13.5t8.5 15.5l526 608q14 16 31 22t31 6q15 0 24 -7.5t9 -19.5q0 -13 -11 -27l-528 -607q-13 -15 -30 -23t-31 -8t-23 8t-9 19zM507 171q0 33 8 65t23.5 57t39 40t54.5 15t54 -15t38.5 -40
t23.5 -57t8 -65t-8 -64.5t-23.5 -56t-38.5 -39.5t-54 -15t-54.5 15t-39 39.5t-23.5 56t-8 64.5zM577 171q0 -20 3.5 -39.5t10.5 -35.5t17.5 -25.5t23.5 -9.5t23 9.5t17 25.5t10.5 35.5t3.5 39.5t-3.5 40t-10.5 35.5t-17 25.5t-23 10t-23.5 -10t-17.5 -25.5t-10.5 -35.5
t-3.5 -40z" />
    <glyph glyph-name="ampersand" unicode="&#x26;" horiz-adv-x="662" 
d="M132 182q1 0 2 0.5t5 4.5l172 172q4 4 4 8q0 3 -7 8q-14 11 -28 15t-34 4q-27 0 -52.5 -9.5t-45 -27t-31 -42.5t-11.5 -55q0 -10 2 -23.5t6 -25.5t8.5 -20.5t9.5 -8.5zM184 119q0 -3 7 -8q28 -21 58.5 -29.5t66.5 -8.5q43 0 85.5 16.5t76 49.5t54.5 82.5t21 115.5
q0 36 -4.5 61t-15.5 52q-2 4 -3 8.5t-3 4.5t-4 -2l-28 -27q-15 -13 -28 -13q-14 0 -24 12.5t-10 26.5q0 11 5 20.5t13 17.5l25 26l4 4t2 4q0 3 -4 7q-18 18 -39 32.5t-39 21.5q-24 10 -24 34q0 15 10.5 25.5t26.5 10.5q8 0 12 -1q26 -7 57 -27t54 -43q2 -2 5 -2q2 0 3 1
l28 29q14 14 29 14t24 -12.5t9 -27.5q0 -22 -15 -37l-26 -27q-3 -3 -3 -5l4 -8q19 -38 30 -81t11 -99q0 -86 -28.5 -151t-73.5 -108t-102.5 -64.5t-115.5 -21.5q-63 0 -116.5 23.5t-91.5 61.5t-59.5 86.5t-21.5 98.5q0 42 17 80.5t46.5 67.5t68.5 46.5t84 17.5
q40 0 75 -13.5t58 -36.5q11 -11 15 -24t4 -27q0 -18 -7 -36.5t-21 -32.5l-179 -178q-3 -3 -3 -7z" />
    <glyph glyph-name="quotesingle" unicode="'" horiz-adv-x="245" 
d="M90 474q-14 0 -24.5 9.5t-10.5 23.5q0 13 5.5 21t12.5 15t12.5 13.5t5.5 16.5q0 6 -4.5 11.5t-10.5 12t-10.5 15t-4.5 22.5q0 21 11 38t35 17q29 0 41.5 -23t12.5 -58q0 -16 -5 -39t-14.5 -44t-22.5 -36t-29 -15z" />
    <glyph glyph-name="parenleft" unicode="(" horiz-adv-x="314" 
d="M231 -78q-37 36 -68 83.5t-53.5 101.5t-35 113t-12.5 120t12.5 120t35 113t53.5 101t68 84q15 13 28 13q17 0 29 -12.5t12 -28.5q0 -18 -15 -33q-63 -62 -100.5 -156t-37.5 -201q0 -54 10 -105t28 -97t43.5 -85.5t57.5 -69.5q14 -15 14 -32q0 -15 -13 -28t-27 -13
q-11 0 -17 3.5t-12 8.5z" />
    <glyph glyph-name="parenright" unicode=")" horiz-adv-x="315" 
d="M28 -16q63 62 101 154.5t38 201.5q0 108 -38 201t-101 156q-15 12 -15 32q0 16 12 28.5t28 12.5q14 0 30 -13q37 -37 68 -84t53.5 -100.5t35 -112.5t12.5 -120t-12.5 -120t-35 -113t-53.5 -101.5t-68 -83.5q-15 -12 -30 -12q-16 0 -28 13t-12 28q0 19 15 33z" />
    <glyph glyph-name="asterisk" unicode="*" horiz-adv-x="411" 
d="M101 346q-16 0 -28.5 12.5t-12.5 28.5q0 14 13 29l33 34h-47q-17 0 -29 11.5t-12 29.5q0 17 12 28.5t29 11.5h48l-34 34q-6 7 -9.5 14t-3.5 16q0 15 13.5 27.5t28.5 12.5t28 -11l35 -35v48q0 18 11.5 29t28.5 11q18 0 29.5 -11t11.5 -29v-47l34 34q7 5 13.5 8t15.5 3
q17 0 29 -12.5t12 -28.5q0 -17 -12 -29l-34 -34h48q17 0 28.5 -11.5t11.5 -28.5q0 -18 -11.5 -29.5t-28.5 -11.5h-48l34 -34q12 -14 12 -29t-12.5 -28t-28.5 -13q-14 0 -28 12l-35 34v-48q0 -17 -11.5 -28.5t-29.5 -11.5q-17 0 -28.5 11.5t-11.5 28.5v47l-34 -33
q-14 -12 -30 -12zM205 431q5 0 8.5 3.5t3.5 8.5t-2.5 10t-2.5 10q0 8 5.5 14.5t14.5 6.5q5 0 10.5 -2.5t10.5 -2.5t8 3.5t3 8.5q0 4 -3 7.5t-8 3.5t-10.5 -2.5t-10.5 -2.5q-8 0 -14 5.5t-6 15.5q0 5 2.5 10t2.5 10t-3.5 8.5t-8.5 3.5t-8.5 -3.5t-3.5 -8.5t2.5 -10t2.5 -10
q0 -8 -5.5 -14.5t-14.5 -6.5q-5 0 -10.5 2.5t-10.5 2.5t-8 -3.5t-3 -7.5q0 -5 3 -8.5t8 -3.5t10.5 2.5t10.5 2.5q8 0 14 -5.5t6 -15.5q0 -5 -2.5 -10t-2.5 -10t3.5 -8.5t8.5 -3.5z" />
    <glyph glyph-name="plus" unicode="+" horiz-adv-x="464" 
d="M191 242q0 5 -5 5h-101q-17 0 -28.5 11.5t-11.5 29.5q0 17 11.5 28.5t28.5 11.5h101q5 0 5 5v101q0 18 11.5 29t28.5 11q18 0 30 -11t12 -29v-101q0 -5 6 -5h99q17 0 29.5 -11.5t12.5 -28.5q0 -18 -12.5 -29.5t-29.5 -11.5h-99q-6 0 -6 -5v-101q0 -17 -12 -28.5
t-30 -11.5q-17 0 -28.5 11.5t-11.5 28.5v101z" />
    <glyph glyph-name="comma" unicode="," horiz-adv-x="224" 
d="M65 45q0 20 11 37t35 17q29 0 41.5 -23t12.5 -58q0 -15 -5 -38t-14.5 -44.5t-22.5 -36.5t-29 -15q-14 0 -24.5 9.5t-10.5 23.5q0 13 5.5 21t12.5 15t12.5 13.5t5.5 16.5q0 6 -4.5 11.5t-10.5 12.5t-10.5 15.5t-4.5 22.5z" />
    <glyph glyph-name="hyphen" unicode="-" horiz-adv-x="480" 
d="M136 249q-15 0 -29 4.5t-24.5 11.5t-17 15t-6.5 15q0 14 13.5 23t45.5 9h226q15 0 28.5 -4.5t24.5 -11.5t17.5 -15.5t6.5 -15.5q0 -14 -13.5 -22.5t-46.5 -8.5h-225v0z" />
    <glyph glyph-name="period" unicode="." horiz-adv-x="223" 
d="M64 51q0 23 11 40.5t37 17.5t36.5 -17.5t10.5 -40.5t-10.5 -39.5t-36.5 -16.5q-23 0 -35.5 16.5t-12.5 39.5z" />
    <glyph glyph-name="slash" unicode="/" horiz-adv-x="382" 
d="M33 27q0 5 4 16l225 607q7 17 22 26.5t28 9.5q17 0 26.5 -9t9.5 -24q0 -2 -1 -6.5t-3 -9.5l-227 -606q-6 -16 -21.5 -26t-28.5 -10q-15 0 -24.5 8t-9.5 24z" />
    <glyph glyph-name="zero" unicode="0" 
d="M266 -10q-54 0 -96 30t-70.5 79.5t-43.5 113t-15 131.5q0 64 15 126t43.5 111t70.5 79t96 30t96 -30t70.5 -79t43.5 -111t15 -126q0 -68 -15 -131.5t-43.5 -113t-70.5 -79.5t-96 -30zM266 72q34 0 60 23t44 61t27 87t9 101q0 49 -9 96.5t-27 85t-44 60.5t-60 23
t-60.5 -23t-44.5 -60.5t-27 -85t-9 -96.5q0 -52 9 -101t27 -87t44.5 -61t60.5 -23z" />
    <glyph glyph-name="one" unicode="1" 
d="M298 511l-62 -70q-6 -7 -13.5 -9.5t-15.5 -2.5q-15 0 -27.5 12t-12.5 30q0 17 12 29l141 157q20 23 35 23q25 0 25 -36v-608q0 -17 -12 -29t-29 -12t-29 12t-12 29v475z" />
    <glyph glyph-name="two" unicode="2" 
d="M70 46q0 46 16.5 86.5t43 76t59.5 66.5t67 60q20 17 41.5 36.5t39.5 40.5t30 42t12 42q0 50 -29.5 81.5t-77.5 31.5q-32 0 -60.5 -21t-44.5 -52q-9 -17 -21.5 -26t-25.5 -9q-16 0 -26.5 10.5t-10.5 28.5q0 5 0.5 8.5t2.5 8.5q26 64 76 98.5t110 34.5q44 0 79.5 -14.5
t60 -40.5t38 -61.5t13.5 -77.5q0 -34 -11 -61.5t-29.5 -52t-42.5 -47t-50 -45.5q-26 -22 -55 -48.5t-54.5 -54.5t-42 -55t-16.5 -49h264q18 0 30 -12t12 -29q0 -19 -12 -30.5t-30 -11.5h-305q-27 0 -39 11t-12 35z" />
    <glyph glyph-name="three" unicode="3" 
d="M79 108q-5 10 -5 19q0 17 12 28t27 11q11 0 23 -6t22 -23q17 -28 43 -44.5t58 -16.5q25 0 48 9.5t40 25.5t27 38t10 46t-9.5 46t-26 39t-38 27.5t-45.5 12.5q-18 1 -28 13.5t-10 26.5q0 17 10 29t27 13q21 1 39.5 10t32 22.5t21.5 31.5t8 37q0 21 -8.5 40t-22.5 32.5
t-33.5 21.5t-41.5 8q-26 0 -47 -13t-34 -32q-9 -13 -22 -21.5t-25 -8.5q-15 0 -26 12t-11 29q0 4 2 11t4 12q23 40 66 65.5t94 25.5q39 0 73.5 -14.5t60.5 -39.5t41 -58t15 -70q0 -40 -18 -76.5t-46 -59.5q-4 -4 -4 -7q0 -2 5 -6q38 -25 60.5 -66.5t22.5 -92.5
q0 -41 -17 -77.5t-45.5 -63.5t-66.5 -43t-81 -16q-29 0 -56.5 9t-51 24t-42.5 35.5t-31 44.5z" />
    <glyph glyph-name="four" unicode="4" 
d="M108 156q-18 0 -30.5 10.5t-12.5 28.5q0 10 5 20q10 23 24 64t27 96.5t22 124t10 145.5q0 18 11 29.5t28 11.5q18 0 29.5 -11.5t11.5 -29.5q0 -111 -17 -215.5t-49 -189.5h142q6 0 6 5v204q0 18 11 30t29 12q17 0 29 -12t12 -30v-205q0 -4 4 -4h47q18 0 29.5 -12.5
t11.5 -29.5t-11.5 -29.5t-29.5 -12.5h-47q-4 0 -4 -3v-117q0 -17 -12 -29t-29 -12q-18 0 -29 12t-11 29v116q0 4 -6 4h-201v0z" />
    <glyph glyph-name="five" unicode="5" 
d="M77 65q0 15 11.5 27.5t30.5 12.5q5 0 12.5 -3t11.5 -5q18 -9 44 -18t46 -9q31 0 59.5 11.5t49.5 31.5t33.5 47t12.5 58q0 33 -12 61.5t-33 49.5t-49 33t-60 12q-15 0 -37 -6t-48 -14q-5 -2 -10 -2h-7q-14 0 -26.5 10t-12.5 35v81q0 51 -1 81.5t-2 48t-2 25.5t-1 13
q0 14 10 24t21 10h261q20 0 30.5 -11.5t10.5 -28.5t-10 -31t-30 -14q-12 0 -48 2t-115 2h-32q-10 0 -10 -8v-146q14 2 26.5 5.5t32.5 3.5q50 0 93.5 -18t75.5 -49.5t50.5 -74.5t18.5 -94q0 -48 -19.5 -89.5t-52 -72.5t-75.5 -48.5t-91 -17.5q-33 0 -70 10.5t-65 27.5
q-22 14 -22 37z" />
    <glyph glyph-name="six" unicode="6" 
d="M153 220q0 -25 8 -51.5t23 -48t38 -35.5t53 -14t53 14t39 35.5t24.5 47.5t8.5 51q0 27 -8 53t-24 46.5t-39.5 32.5t-53.5 12q-29 0 -52 -12t-38.5 -31.5t-23.5 -45.5t-8 -54zM67 219q0 57 20 115t51.5 114.5t71 109t77.5 98.5q16 19 32 25t30 6t24.5 -10t10.5 -23
q0 -5 -2 -11t-7 -11q-22 -24 -41 -47t-37 -46.5t-34.5 -49t-32.5 -54.5q8 2 19 4.5t26 2.5q49 0 88 -18.5t66 -49.5t41.5 -71.5t14.5 -83.5q0 -40 -14.5 -81t-42 -74t-66.5 -53.5t-87 -20.5t-86.5 21t-65.5 54t-41.5 74t-14.5 80z" />
    <glyph glyph-name="seven" unicode="7" 
d="M171 39q0 74 19 156t45.5 159t55 141.5t48.5 103.5h-229q-18 0 -29 11.5t-11 29.5q0 17 11 28.5t29 11.5h302q17 0 31 -6t14 -26q0 -8 -4.5 -16.5t-10.5 -17.5q-32 -49 -64 -118.5t-58.5 -147.5t-44 -158.5t-18.5 -150.5q0 -21 -13 -32.5t-29 -11.5q-17 0 -30.5 11.5
t-13.5 32.5z" />
    <glyph glyph-name="eight" unicode="8" 
d="M266 410q28 0 48 9.5t32.5 24t18 31.5t5.5 32q0 21 -8 40t-22.5 32.5t-33.5 21.5t-40 8t-40 -8t-33.5 -21.5t-22.5 -32.5t-8 -40q0 -15 5.5 -32t18 -31.5t32 -24t48.5 -9.5zM58 195q0 56 27 101.5t68 72.5q-38 26 -56.5 61t-18.5 77q0 36 14.5 69t39.5 58.5t59.5 40.5
t74.5 15t74.5 -15t60 -40.5t40 -58.5t14.5 -69q0 -85 -76 -138q41 -27 68 -72.5t27 -101.5q0 -40 -16 -77t-44 -65.5t-66 -45.5t-82 -17t-81.5 17t-66 45.5t-44.5 65.5t-16 77zM143 195q0 -25 10 -47.5t26.5 -39.5t39 -27t47.5 -10t47.5 10t39.5 27t27 39.5t10 47.5
q0 17 -8 39t-23.5 42t-39 34t-53.5 14t-53 -14t-38.5 -34t-23.5 -42t-8 -39z" />
    <glyph glyph-name="nine" unicode="9" 
d="M268 318q29 0 51.5 12t38 31.5t23.5 44t9 48.5v6q0 25 -8 51t-23.5 47.5t-38.5 35.5t-52 14q-30 0 -53.5 -14t-39 -35.5t-24 -47.5t-8.5 -51t8 -50t24 -45.5t39.5 -33.5t53.5 -13zM157 26q0 13 11 25q38 42 76 90.5t75 100.5q-11 0 -24 -3t-27 -3q-49 0 -88 20t-66.5 52
t-42.5 72t-15 80t15 81t42.5 74t67 54t87.5 21t86 -21t64.5 -54.5t41 -74.5t14.5 -80v-5q0 -53 -20 -109.5t-51 -113t-70 -109.5t-78 -99q-13 -14 -29.5 -21.5t-28.5 -7.5q-17 0 -28.5 9t-11.5 22z" />
    <glyph glyph-name="colon" unicode=":" horiz-adv-x="223" 
d="M112 341q-23 0 -35.5 16.5t-12.5 39.5q0 22 11.5 39.5t36.5 17.5q26 0 36.5 -17.5t10.5 -39.5q0 -23 -10.5 -39.5t-36.5 -16.5zM64 51q0 23 12.5 40t35.5 17q26 0 36.5 -17t10.5 -40q0 -22 -10.5 -39t-36.5 -17q-25 0 -36.5 17t-11.5 39z" />
    <glyph glyph-name="semicolon" unicode=";" horiz-adv-x="223" 
d="M111 341q-23 0 -35.5 16.5t-12.5 39.5q0 22 11.5 39.5t36.5 17.5q26 0 36.5 -17.5t10.5 -39.5q0 -23 -10.5 -39.5t-36.5 -16.5zM65 45q0 20 11 37t35 17q29 0 41.5 -23t12.5 -58q0 -15 -5 -38t-14.5 -44.5t-22.5 -36.5t-29 -15q-14 0 -24.5 9.5t-10.5 23.5q0 13 5.5 20
t12.5 13t12.5 13t5.5 20q0 7 -4.5 12.5t-10.5 12t-10.5 15t-4.5 22.5z" />
    <glyph glyph-name="less" unicode="&#x3c;" horiz-adv-x="477" 
d="M79 254q-27 11 -27 37q0 28 27 39l292 118q8 4 16 4q16 0 28 -12.5t12 -29.5q0 -11 -6.5 -22t-17.5 -16l-200 -81l200 -80q11 -5 17.5 -16t6.5 -22q0 -17 -12 -29t-28 -12q-8 0 -16 4l-292 118v0z" />
    <glyph glyph-name="equal" unicode="=" horiz-adv-x="464" 
d="M85 151q-17 0 -28.5 11.5t-11.5 28.5q0 18 11.5 29.5t28.5 11.5h293q17 0 29.5 -11.5t12.5 -29.5q0 -17 -12.5 -28.5t-29.5 -11.5h-293zM85 343q-17 0 -28.5 11.5t-11.5 29.5q0 17 11.5 29t28.5 12h293q17 0 29.5 -12t12.5 -29q0 -18 -12.5 -29.5t-29.5 -11.5h-293z" />
    <glyph glyph-name="greater" unicode="&#x3e;" horiz-adv-x="477" 
d="M90 132q-16 0 -28 12t-12 29q0 11 6.5 22t17.5 16l200 80l-200 81q-11 5 -17.5 16t-6.5 22q0 17 12 29.5t28 12.5q8 0 16 -4l292 -118q27 -11 27 -39q0 -26 -27 -37l-292 -118q-8 -4 -16 -4z" />
    <glyph glyph-name="question" unicode="?" horiz-adv-x="468" 
d="M184 236q0 52 24.5 91.5t54 71.5t54 58.5t24.5 53.5q0 21 -7.5 39t-21 31.5t-32 21.5t-40.5 8q-24 0 -49 -14.5t-45 -51.5q-9 -16 -22 -24t-26 -8q-17 0 -27.5 10t-10.5 28q0 11 5 21q29 57 75 87.5t100 30.5q40 0 73.5 -13.5t58 -37.5t38 -56.5t13.5 -71.5
q0 -24 -7 -44.5t-18.5 -38t-26 -33.5t-30.5 -31q-31 -29 -53.5 -62.5t-22.5 -81.5v-5q0 -18 -11.5 -29.5t-29.5 -11.5q-17 0 -28.5 11.5t-11.5 29.5v21zM177 52q0 23 10.5 40.5t36.5 17.5t37 -17.5t11 -40.5t-11 -40t-37 -17q-23 0 -35 17t-12 40z" />
    <glyph glyph-name="at" unicode="@" horiz-adv-x="699" 
d="M43 335q0 89 28.5 155.5t74.5 110.5t104 66t118 22q55 0 107 -18.5t92.5 -54.5t65 -90t24.5 -125q0 -68 -22 -117t-57.5 -81t-79.5 -47.5t-89 -15.5q-41 0 -79.5 12.5t-68.5 37t-48.5 61t-18.5 84.5q0 40 13.5 73.5t36.5 57.5t55 37.5t69 13.5h72q17 0 28.5 -11.5
t11.5 -28.5v-209q0 -21 -13.5 -30.5t-28.5 -9.5q-14 0 -28 9.5t-14 30.5v157q0 10 -9 10h-22q-42 0 -69 -28t-27 -72q0 -31 12 -54.5t31.5 -39t44.5 -23.5t52 -8q31 0 62 11t56 34.5t40 59.5t15 86q0 54 -18 95t-48 68t-68.5 41t-79.5 14q-46 0 -90.5 -17.5t-80 -52.5
t-57.5 -88.5t-22 -125.5q0 -53 18.5 -102.5t50 -88t74 -61.5t90.5 -23q18 0 27 -10t9 -24q0 -11 -9 -23.5t-27 -12.5q-65 0 -121 29t-97.5 77t-65.5 110t-24 129z" />
    <glyph glyph-name="A" unicode="A" horiz-adv-x="571" 
d="M375 279l-89 227l-92 -227h181zM1 27q0 10 4 20.5t13 29.5t23.5 50t35.5 83l178 441q5 14 12 23t19 9q11 0 18 -9t13 -23l177 -441q21 -52 35.5 -83t23.5 -50t13 -29.5t4 -20.5q0 -16 -13.5 -24t-27.5 -8q-13 0 -30 9.5t-23 24.5l-63 157q-5 8 -19 8h-219q-14 0 -19 -8
l-61 -157q-6 -15 -23 -24.5t-30 -9.5q-14 0 -27.5 8t-13.5 24z" />
    <glyph glyph-name="B" unicode="B" horiz-adv-x="520" 
d="M161 383q8 0 19 -0.5t22 -0.5q17 0 31.5 0.5t21.5 2.5q22 3 41.5 14t34 26t22.5 32.5t8 33.5q0 22 -9 42t-25 34.5t-37 23t-45 8.5q-38 0 -83 -3q-5 -1 -7 -3.5t-2 -13.5v-187q0 -9 8 -9zM153 100q0 -11 2.5 -13.5t7.5 -3.5q23 -2 49 -2.5t52 -0.5q27 0 50.5 8.5t41 23.5
t27.5 35t10 43q0 19 -8.5 37t-24.5 32.5t-37.5 24t-47.5 12.5q-11 1 -26 1.5t-30.5 1t-30.5 0.5h-27q-8 0 -8 -10v-189zM61 34q0 5 1 13t2 25.5t2 48t1 81.5v276q0 51 -1 81.5t-2 48t-2 25.5t-1 13q0 14 9.5 24t20.5 10h79q19 0 36.5 1t38.5 1q41 0 78 -15t65 -41t44.5 -61
t16.5 -74q0 -42 -22 -76.5t-49 -61.5q44 -26 73.5 -70t29.5 -93q0 -40 -17.5 -75t-47 -61t-69 -41t-83.5 -15q-27 0 -50.5 1t-52.5 1h-70q-11 0 -20.5 10t-9.5 24z" />
    <glyph glyph-name="C" unicode="C" horiz-adv-x="595" 
d="M328 -10q-62 0 -115.5 27.5t-93.5 75t-62.5 111.5t-22.5 136q0 74 20 138t57.5 111t90.5 74t119 27q24 0 49 -1.5t49 -3.5t45 -3.5t36 -1.5q43 0 43 -43q0 -16 -10.5 -30.5t-30.5 -14.5q-48 0 -99 8.5t-92 8.5q-42 0 -76.5 -21t-60 -58t-39.5 -86t-14 -104
q0 -56 16.5 -104.5t44.5 -85t66 -57.5t80 -21q49 0 85 23t68 58q8 10 19.5 14.5t20.5 4.5q17 0 29.5 -10.5t12.5 -27.5q0 -15 -13 -32q-42 -50 -96 -81t-126 -31z" />
    <glyph glyph-name="D" unicode="D" horiz-adv-x="590" 
d="M149 87q0 -2 6 -4q12 -2 26 -2.5l28 -1t27 -0.5h23q49 0 87 20t63.5 55.5t38.5 83t13 102.5t-13 102.5t-38.5 83t-63.5 55.5t-87 20h-23t-27 -0.5t-28 -1.5t-26 -2q-6 -2 -6 -4v-506zM57 34q0 5 1 13t2 25.5t2 48t1 81.5v276q0 51 -1 81.5t-2 48t-2 25.5t-1 13
q0 14 9.5 24t20.5 10h62q22 0 53 1.5t57 1.5q67 0 121 -26.5t91.5 -72.5t58 -109t20.5 -135t-20.5 -135t-58 -109t-91.5 -72.5t-121 -26.5q-9 0 -22.5 0.5t-29 1l-31 1t-27.5 0.5h-62q-11 0 -20.5 10t-9.5 24z" />
    <glyph glyph-name="E" unicode="E" horiz-adv-x="491" 
d="M62 37q0 5 1 12t1.5 24t1.5 47.5t1 81.5v276q0 51 -1 82t-2 48.5t-2 25t-1 12.5q0 14 9.5 24t20.5 10h309q21 0 31.5 -13t10.5 -30q0 -16 -10 -30.5t-30 -14.5q-11 0 -25 0.5t-33.5 1t-46 1t-62.5 0.5h-78q-4 0 -4 -5v-201q0 -6 4 -6h173q19 0 30.5 -13.5t11.5 -29.5
t-11.5 -29.5t-30.5 -13.5h-173q-4 0 -4 -6v-201q0 -5 4 -5h78q37 0 63.5 0.5t45.5 1t32.5 1t25.5 0.5q20 0 30 -14.5t10 -30.5q0 -17 -10.5 -30t-31.5 -13h-309q-17 0 -23 11.5t-6 25.5z" />
    <glyph glyph-name="F" unicode="F" horiz-adv-x="456" 
d="M63 35q0 21 2 58.5t2 108.5v276q0 51 -1 82t-2 48.5t-2 25t-1 12.5q0 14 9.5 24t19.5 10h309q21 0 31.5 -13t10.5 -30q0 -16 -10 -30.5t-30 -14.5q-11 0 -24 0.5t-32 1t-46 1t-65 0.5h-78q-4 0 -4 -5v-201q0 -6 4 -6h173q19 0 30.5 -13.5t11.5 -29.5t-11.5 -29.5
t-30.5 -13.5h-173q-4 0 -4 -6v-254q0 -21 -13 -31.5t-29 -10.5q-18 0 -32.5 10t-14.5 30z" />
    <glyph glyph-name="G" unicode="G" horiz-adv-x="591" 
d="M326 -4q-57 0 -111 26.5t-95 73t-66 109.5t-25 135t24 136t64.5 111.5t94.5 75t114 27.5q49 0 93 -5.5t74 -5.5q20 0 31.5 -9.5t11.5 -32.5q0 -16 -10.5 -30.5t-30.5 -14.5q-47 0 -87 8.5t-82 8.5t-80 -21.5t-66.5 -58t-45 -85.5t-16.5 -104q0 -54 17.5 -102t47 -84
t67 -56.5t76.5 -20.5h45q13 0 27.5 0.5t26 1.5t19 2.5t7.5 4.5v28q0 38 -0.5 65.5t-1.5 46.5t-1.5 32t-0.5 23q0 20 14.5 30t31.5 10t31.5 -10t14.5 -30q0 -10 -0.5 -23t-1 -32t-1 -46.5t-0.5 -65.5q1 -32 2 -48t1 -27q0 -14 -4.5 -26.5t-24.5 -12.5q-48 0 -89.5 -2
t-94.5 -2z" />
    <glyph glyph-name="H" unicode="H" horiz-adv-x="577" 
d="M63 35q0 5 0.5 12.5t1 25t1 48t0.5 81.5v276q0 51 -0.5 81.5t-1 48t-1 25t-0.5 12.5q0 20 14.5 30t31.5 10t30 -10.5t13 -31.5v-254q0 -6 5 -6h264q5 0 5 6v254q0 21 13 31.5t30 10.5t31 -10t14 -30q0 -5 -0.5 -12.5t-1 -25t-1 -48t-0.5 -81.5v-276q0 -51 0.5 -81.5
t1 -48t1 -25t0.5 -12.5q0 -20 -14 -30t-31 -10t-30 10.5t-13 31.5v254q0 6 -5 6h-264q-5 0 -5 -6v-254q0 -21 -13 -31.5t-30 -10.5t-31.5 10t-14.5 30z" />
    <glyph glyph-name="I" unicode="I" horiz-adv-x="249" 
d="M79 35q0 5 0.5 12.5t1.5 25t1.5 48t0.5 81.5v276q0 51 -0.5 82t-1.5 48t-1.5 24.5t-0.5 12.5q0 20 14.5 30t31.5 10t31 -10t14 -30q0 -5 -0.5 -12.5t-1.5 -25t-1.5 -48t-0.5 -81.5v-276q0 -51 0.5 -81.5t1.5 -48t1.5 -25t0.5 -12.5q0 -20 -14 -30t-31 -10t-31.5 10
t-14.5 30z" />
    <glyph glyph-name="J" unicode="J" horiz-adv-x="457" 
d="M25 44q-9 8 -9 21q0 7 4 16t10 16t14 12t16 5q5 0 10.5 -1t10.5 -6q20 -17 42 -27.5t42 -10.5q28 0 53.5 14t45 37t30.5 53t11 62v243q0 51 -0.5 81.5t-1 48t-1 25t-0.5 12.5q0 20 14 30t31 10t31.5 -10t14.5 -30q0 -5 -0.5 -12.5t-0.5 -24.5t-0.5 -48t-0.5 -82v-243
q0 -50 -18 -94t-49 -78t-72 -53.5t-87 -19.5q-37 0 -74 14t-66 40z" />
    <glyph glyph-name="K" unicode="K" horiz-adv-x="576" 
d="M178 304q-8 8 -13.5 17.5t-5.5 18.5q0 17 13 30l242 285q12 14 30.5 22t38.5 8q19 0 26.5 -8t7.5 -21q0 -12 -8.5 -24.5t-27.5 -32.5t-49 -51t-72 -81l-96 -113q-6 -8 -6 -11q0 -2 5 -7l120 -120q48 -48 83 -80.5t58 -54.5t34.5 -35t11.5 -22q0 -14 -6.5 -21.5
t-29.5 -7.5q-18 0 -40.5 7.5t-39.5 24.5zM63 35q0 5 0.5 12.5t1 25t1 48t0.5 81.5v276q0 51 -0.5 81.5t-1 47.5t-1 25t-0.5 13q0 20 14.5 30t31.5 10q16 0 29.5 -10t13.5 -30v-610q0 -20 -13.5 -30t-29.5 -10q-17 0 -31.5 10t-14.5 30z" />
    <glyph glyph-name="L" unicode="L" horiz-adv-x="442" 
d="M63 37q0 14 2.5 49.5t2.5 115.5v276q0 42 -0.5 69.5t-1.5 46t-1.5 30t-0.5 21.5q0 20 14.5 30t32.5 10q16 0 29 -10.5t13 -31.5v-553q0 -5 4 -5h81q77 0 113 1.5t51 1.5q20 0 30 -14.5t10 -30.5q0 -17 -10.5 -30t-31.5 -13h-309q-17 0 -22.5 11.5t-5.5 25.5z" />
    <glyph glyph-name="M" unicode="M" horiz-adv-x="807" 
d="M9 30q0 8 2 17.5t7.5 27.5t14.5 49t23 84l120 448q7 28 26 28q11 0 17.5 -8t11.5 -19l172 -468l172 468q5 11 12 19t17 8q8 0 15.5 -7t10.5 -21l120 -448q14 -53 23 -84t14.5 -49t8 -27.5t2.5 -17.5q0 -17 -13 -26t-29 -9q-15 0 -30 10t-20 27l-113 428l-160 -431
q-6 -15 -12.5 -24.5t-17.5 -9.5q-10 0 -17 9.5t-13 24.5l-159 431l-114 -428q-5 -17 -20 -27t-29 -10q-17 0 -29.5 9t-12.5 26z" />
    <glyph glyph-name="N" unicode="N" horiz-adv-x="610" 
d="M65 35q0 7 0.5 18.5t1.5 30t1.5 47.5t0.5 71v281q0 60 -3 98.5t-3 69.5q0 14 9.5 24t20.5 10q15 0 33 -25l332 -455v438q0 21 12.5 31.5t29.5 10.5t31.5 -10t14.5 -30q0 -8 -0.5 -19t-1.5 -29.5t-1.5 -47.5t-0.5 -71v-280q0 -60 3 -98.5t3 -69.5q0 -14 -9.5 -24
t-20.5 -10q-14 0 -33 25l-332 454v-438q0 -21 -12.5 -31.5t-29.5 -10.5t-31.5 10t-14.5 30z" />
    <glyph glyph-name="O" unicode="O" horiz-adv-x="626" 
d="M314 71q43 0 78.5 21t61 57.5t40 85.5t14.5 105t-14.5 105t-40 85.5t-61 57.5t-78.5 21q-44 0 -80 -21t-62 -57.5t-40 -85.5t-14 -105t14 -105t40 -85.5t62 -57.5t80 -21zM314 -10q-63 0 -115.5 27.5t-90 75t-58.5 111.5t-21 136t21 136t58.5 111.5t90 75t115.5 27.5
t114.5 -27.5t89 -75t58 -111.5t20.5 -136t-20.5 -136t-58 -111.5t-89 -75t-114.5 -27.5z" />
    <glyph glyph-name="P" unicode="P" horiz-adv-x="488" 
d="M66 35q0 21 2 58.5t2 108.5v276q0 51 -1 82t-2 48.5t-2 25t-1 12.5q0 14 9.5 24t19.5 10h69q23 0 47 1.5t48 1.5q40 0 76 -13t63.5 -37.5t43.5 -59.5t16 -79q0 -43 -16 -79t-43.5 -62.5t-63.5 -41t-76 -14.5h-99q-4 0 -4 -6v-254q0 -21 -12.5 -31.5t-28.5 -10.5
q-18 0 -32.5 10t-14.5 30zM162 382q7 -1 20.5 -1.5t28 -1t27.5 -1t19 -0.5q24 0 44.5 8.5t35.5 23.5t24 36t9 47q0 51 -32.5 79t-80.5 28h-17.5t-27 -0.5t-28.5 -1t-22 -1.5q-8 0 -8 -5v-203q0 -7 8 -7z" />
    <glyph glyph-name="Q" unicode="Q" horiz-adv-x="626" 
d="M314 71q43 0 78.5 21t61 57.5t40 85.5t14.5 105t-14.5 105t-40 85.5t-61 57.5t-78.5 21q-44 0 -80 -21t-62 -57.5t-40 -85.5t-14 -105t14 -105t40 -85.5t62 -57.5t80 -21zM314 -10q-63 0 -115.5 27.5t-90 75t-58.5 111.5t-21 136t21 136t58.5 111.5t90 75t115.5 27.5
t114.5 -27.5t89 -75t58 -111.5t20.5 -136t-20.5 -136t-58 -111.5t-89 -75t-114.5 -27.5zM214 -113q0 10 8 26t21.5 31t31.5 25.5t39 10.5q23 0 43.5 -11.5t38 -26t31.5 -26t23 -11.5q6 0 12 7.5t13.5 16.5t16.5 16.5t22 7.5t24.5 -8t11.5 -31q0 -10 -8 -26t-21.5 -31
t-32 -25.5t-38.5 -10.5q-23 0 -44 11.5t-38.5 26t-31 26t-22.5 11.5q-6 0 -12 -7.5t-13.5 -17t-16.5 -17t-22 -7.5q-14 0 -25 8.5t-11 31.5z" />
    <glyph glyph-name="R" unicode="R" horiz-adv-x="509" 
d="M56 35q0 5 0.5 12.5t1 25t1 48t0.5 81.5v276q0 51 -1 81.5t-2 48t-2 25.5t-1 13q0 14 10 24t21 10h91q13 0 34 1t41 1q40 0 75.5 -12.5t62.5 -36.5t42.5 -59t15.5 -80q0 -29 -9.5 -57t-27 -51.5t-41.5 -41t-52 -26.5q-13 -4 -13 -9q0 -1 8 -12l153 -222q13 -18 24.5 -32
t11.5 -22q0 -11 -10 -18.5t-25 -7.5q-24 0 -48 17t-50 54l-184 267q-4 6 -6 10.5t-2 9.5q0 8 16 11.5t46 8.5q22 3 44.5 12.5t40 24.5t28.5 36t11 47q0 51 -32.5 79t-78.5 28h-18t-27.5 -0.5l-29 -1t-22.5 -1.5q-8 0 -8 -5v-557q0 -20 -13.5 -30t-29.5 -10t-31 10t-15 30z
" />
    <glyph glyph-name="S" unicode="S" horiz-adv-x="491" 
d="M56 51q-21 11 -21 34q0 17 13.5 33t32.5 16q3 0 6.5 -1.5t7.5 -3.5l8 -4q27 -15 63 -30.5t81 -15.5q25 0 46.5 8.5t37.5 23.5t25 34.5t9 41.5q0 11 -3.5 24t-15.5 27.5t-36 31t-66 35.5q-57 26 -95.5 49t-62 46t-33 47.5t-9.5 54.5q0 36 15 69t41.5 58t62.5 40t78 15
q17 0 38 -3t42.5 -9t42 -13.5t37.5 -16.5q22 -13 22 -36q0 -18 -12 -32.5t-32 -14.5q-12 0 -25 7q-19 11 -47.5 23t-65.5 12q-22 0 -41.5 -7.5t-34.5 -21t-23.5 -31t-8.5 -37.5q0 -10 4.5 -21.5t17.5 -25.5t36 -29.5t60 -32.5q58 -27 97.5 -51t63 -48.5t33.5 -51t10 -57.5
q0 -38 -16 -73t-44.5 -61t-66.5 -41.5t-81 -15.5q-23 0 -48 4t-50.5 11t-49.5 17t-43 23z" />
    <glyph glyph-name="T" unicode="T" horiz-adv-x="548" 
d="M227 35q0 7 0.5 18t1.5 30t1.5 48t0.5 71v388q0 5 -6 5h-16q-76 0 -114 -1.5t-53 -1.5q-20 0 -30 14.5t-10 30.5q0 17 10 30t32 13h460q22 0 32 -13t10 -30q0 -16 -10 -30.5t-30 -14.5q-15 0 -53 1.5t-114 1.5h-16q-6 0 -6 -5v-388q0 -42 0.5 -71t1.5 -48t1.5 -30
t0.5 -18q0 -20 -15 -30t-32 -10t-32 10t-15 30z" />
    <glyph glyph-name="U" unicode="U" horiz-adv-x="580" 
d="M67 478q0 52 -0.5 82.5t-1.5 47.5t-1.5 24.5t-0.5 12.5q0 20 14.5 30t31.5 10t30 -10.5t13 -31.5v-445q0 -26 11.5 -49t31 -40.5t44 -27.5t51.5 -10t52 10t44 27.5t30.5 40.5t11.5 49v445q0 21 13 31.5t30 10.5t31.5 -10t14.5 -30q0 -5 -0.5 -12.5t-1.5 -24.5t-1.5 -47.5
t-0.5 -82.5v-276q0 -44 -17 -82.5t-47 -67.5t-71 -45.5t-88 -16.5t-87.5 16.5t-70.5 45.5t-47.5 67.5t-17.5 82.5v276z" />
    <glyph glyph-name="V" unicode="V" horiz-adv-x="589" 
d="M85 470q-21 51 -35.5 82t-23.5 50t-13 30t-4 21q0 16 13.5 24t27.5 8q12 0 29 -9.5t23 -24.5l192 -475l193 475q6 15 23 24.5t29 9.5q14 0 27.5 -8t13.5 -24q0 -10 -4 -21t-13 -30t-23.5 -50t-35.5 -82l-178 -441q-5 -14 -13 -23t-19 -9t-18.5 9t-13.5 23z" />
    <glyph glyph-name="W" unicode="W" horiz-adv-x="807" 
d="M56 472q-14 52 -23 83.5t-14.5 49.5t-7.5 27.5t-2 17.5q0 17 12.5 26t29.5 9q14 0 29 -10t20 -27l114 -428l159 431q6 15 13 24.5t17 9.5q11 0 17.5 -9.5t12.5 -24.5l160 -431l113 428q5 17 20 27t30 10q16 0 29 -9t13 -26q0 -8 -2.5 -17.5t-8 -27.5t-14.5 -49.5
t-23 -83.5l-120 -448q-3 -14 -10.5 -21t-15.5 -7q-10 0 -17 8t-12 19l-172 468l-172 -468q-5 -11 -11.5 -19t-17.5 -8q-19 0 -26 28z" />
    <glyph glyph-name="X" unicode="X" horiz-adv-x="567" 
d="M20 25q0 10 6.5 22t21 32.5t38 52t58.5 81.5l66 96q16 23 16 31t-16 31l-66 96q-35 49 -58.5 81t-38 52.5t-21 32.5t-6.5 22q0 30 39 30q18 0 33.5 -7.5t26.5 -22.5l165 -240l164 240q11 15 27 22.5t33 7.5q39 0 39 -30q0 -10 -6.5 -22t-21 -32.5t-38 -52.5t-57.5 -81
l-67 -96q-16 -23 -16 -31t16 -31l67 -96q34 -50 57.5 -81.5t38 -52t21 -32.5t6.5 -22q0 -30 -39 -30q-17 0 -33 7.5t-27 22.5l-164 240l-165 -240q-11 -15 -26.5 -22.5t-33.5 -7.5q-39 0 -39 30z" />
    <glyph glyph-name="Y" unicode="Y" horiz-adv-x="561" 
d="M234 35q0 7 0.5 18t1.5 30t1.5 48t0.5 71v81q0 22 -9.5 46t-21.5 42l-66 96q-35 51 -58.5 83.5t-38 52.5t-21 31.5t-6.5 20.5q0 30 39 30q40 0 61 -30l164 -240l164 240q11 16 26.5 23t33.5 7q39 0 39 -30q0 -9 -6 -20.5t-20.5 -31.5t-38 -52.5t-58.5 -83.5l-66 -96
q-13 -18 -22.5 -42t-9.5 -46v-81q0 -42 0.5 -71t1.5 -48t1.5 -30t0.5 -18q0 -20 -15 -30t-31 -10q-17 0 -32 10t-15 30z" />
    <glyph glyph-name="Z" unicode="Z" horiz-adv-x="491" 
d="M17 26q0 14 14.5 34t36.5 59l264 476h-104q-41 0 -69 -0.5t-47 -1t-31 -1t-21 -0.5q-20 0 -30 14.5t-10 30.5q0 17 10.5 30t31.5 13h364q21 0 29 -6.5t8 -20.5q0 -11 -13.5 -30.5t-37.5 -62.5l-265 -475h137q38 0 65.5 0.5t47.5 1t33 1t22 0.5q20 0 29.5 -14.5t9.5 -30.5
q0 -17 -9.5 -30t-31.5 -13h-397q-20 0 -28 6t-8 20z" />
    <glyph glyph-name="bracketleft" unicode="[" horiz-adv-x="321" 
d="M73 697q0 35 24.5 57.5t59.5 22.5h125q15 0 27 -10.5t12 -27.5q0 -16 -12 -28t-27 -12h-125q-2 0 -2 -2v-713q0 -2 2 -2h125q15 0 27 -11t12 -28t-12 -28.5t-27 -11.5h-125q-18 0 -33 6.5t-26.5 18t-18 26t-6.5 30.5v713z" />
    <glyph glyph-name="backslash" unicode="\" horiz-adv-x="381" 
d="M36 641q-3 9 -3 11q0 17 10.5 25t24.5 8t28 -7.5t22 -27.5l225 -607q2 -5 3 -8.5t1 -6.5q0 -17 -10.5 -25t-24.5 -8q-15 0 -28.5 8.5t-20.5 26.5z" />
    <glyph glyph-name="bracketright" unicode="]" horiz-adv-x="321" 
d="M163 -18q2 0 2 2v713q0 2 -2 2h-124q-16 0 -27.5 12t-11.5 28q0 17 11.5 27.5t27.5 10.5h124q36 0 60.5 -22.5t24.5 -57.5v-713q0 -16 -6.5 -30.5t-18 -26t-27 -18t-33.5 -6.5h-124q-16 0 -27.5 11.5t-11.5 28.5t11.5 28t27.5 11h124z" />
    <glyph glyph-name="asciicircum" unicode="^" horiz-adv-x="473" 
d="M83 481q-11 0 -19.5 6.5t-8.5 15.5q0 5 2.5 9.5t5.5 7.5l142 150q7 7 15 12t16 5t16 -5t15 -12l142 -150q3 -3 5.5 -7.5t2.5 -9.5q0 -9 -8 -15.5t-19 -6.5q-5 0 -10.5 1t-10.5 5l-123 87q-8 6 -10 6t-10 -6l-123 -87q-5 -4 -10 -5t-10 -1z" />
    <glyph glyph-name="underscore" unicode="_" horiz-adv-x="614" 
d="M614 -67q20 0 29.5 -12t9.5 -26q0 -15 -9.5 -27.5t-29.5 -12.5h-614q-20 0 -29.5 12.5t-9.5 27.5q0 14 9.5 26t29.5 12h614z" />
    <glyph glyph-name="grave" unicode="`" horiz-adv-x="366" 
d="M112 625q-11 9 -11 21q0 13 15 23.5t34 10.5q13 0 24 -6t18 -15l68 -91q6 -9 6 -16q0 -9 -7 -15t-19 -6q-13 0 -22 7z" />
    <glyph glyph-name="a" unicode="a" horiz-adv-x="513" 
d="M243 67q28 0 52.5 10.5t42.5 32t28.5 54.5t10.5 79q0 45 -10.5 78.5t-28.5 55t-42.5 32t-52.5 10.5q-27 0 -51 -14t-41 -38t-27 -56t-10 -68t10 -68t27 -56t41 -38t51 -14zM243 -10q-47 0 -86 20t-67.5 54t-44.5 80t-16 99q0 52 16 98t44.5 80.5t67.5 54t86 19.5
q40 0 71.5 -15.5t57.5 -38.5v8q0 18 12 30t29 12t29.5 -12t12.5 -30v-413q0 -17 -12.5 -29t-29.5 -12t-29 12t-12 29v7q-26 -25 -58 -39t-71 -14z" />
    <glyph glyph-name="b" unicode="b" horiz-adv-x="513" 
d="M270 67q27 0 51 14t41 38t27 56t10 68t-10 68t-27 56t-41 38t-51 14q-28 0 -52.5 -11.5t-42.5 -34t-28.5 -55.5t-10.5 -75q0 -43 10.5 -75.5t28.5 -55t42.5 -34t52.5 -11.5zM58 694q0 17 12.5 28t29.5 11t29 -11t12 -28v-252q25 23 58 38t71 15q46 0 85.5 -19.5t68 -54
t44.5 -80.5t16 -98q0 -53 -16 -99t-44.5 -80t-68 -54t-85.5 -20q-38 0 -70.5 15t-58.5 39v-8q0 -17 -12 -29t-29 -12t-29.5 12t-12.5 29v658z" />
    <glyph glyph-name="c" unicode="c" horiz-adv-x="486" 
d="M34 242q0 57 18.5 103t50 78.5t72.5 50.5t86 18q48 0 88 -18.5t70 -49.5q5 -6 9.5 -14t4.5 -16q0 -18 -13 -29t-29 -11q-8 0 -19 6t-22 16q-14 14 -37.5 26.5t-51.5 12.5t-53.5 -12t-45 -34t-31.5 -54.5t-12 -72.5q0 -41 12 -73t31.5 -54t45 -34t53.5 -12q29 0 53.5 13
t44.5 33q16 16 32 16t28.5 -11.5t12.5 -29.5q0 -16 -12 -28q-31 -31 -71.5 -50.5t-87.5 -19.5q-45 0 -86 16.5t-72.5 48t-50 78.5t-18.5 107z" />
    <glyph glyph-name="d" unicode="d" horiz-adv-x="522" 
d="M243 67q28 0 52.5 11.5t42.5 34t28.5 55t10.5 75.5q0 42 -10.5 75t-28.5 55.5t-42.5 34t-52.5 11.5q-27 0 -51 -14t-41 -38t-27 -56t-10 -68t10 -68t27 -56t41 -38t51 -14zM243 -10q-47 0 -86 20t-67.5 54t-44.5 80t-16 99q0 52 16 98t44.5 80.5t67.5 54t86 19.5
q35 0 69 -15.5t60 -38.5v253q0 17 12 28t29 11t29.5 -11t12.5 -28v-658q0 -17 -12.5 -29t-29.5 -12t-29 12t-12 29v8q-26 -24 -58.5 -39t-70.5 -15z" />
    <glyph glyph-name="e" unicode="e" horiz-adv-x="501" 
d="M29 243q0 58 16 104.5t44.5 79.5t69 50.5t90.5 17.5q51 0 91 -16t67 -42.5t41 -61.5t14 -72q0 -17 -7.5 -31.5t-20.5 -25t-29 -16t-33 -5.5h-250q-2 0 -5.5 -0.5t-3.5 -3.5q10 -70 51.5 -112t98.5 -42q33 0 64 14t51 33q16 15 33 15q14 0 27 -12.5t13 -28.5t-12 -28
q-33 -32 -80 -51t-96 -19q-51 0 -94 18.5t-74 52t-48.5 80t-17.5 102.5zM372 303q3 0 6 1.5t3 3.5q0 27 -11.5 48t-30 35t-42.5 21t-48 7q-31 0 -55.5 -11t-41 -27.5t-25 -36t-8.5 -36.5q0 -2 3 -3.5t6 -1.5h244z" />
    <glyph glyph-name="f" unicode="f" horiz-adv-x="370" 
d="M105 402q0 6 -6 6h-39q-17 0 -29 10.5t-12 28.5t12 28.5t29 10.5h39q6 0 6 4q1 36 9.5 70t28.5 61t55.5 43t91.5 16h32q17 0 28.5 -11t11.5 -28q0 -18 -11.5 -28.5t-28.5 -10.5h-32q-31 0 -51 -9.5t-31 -25.5t-15.5 -36t-5.5 -41q0 -4 3 -4h145q18 0 30 -10.5t12 -28.5
t-12 -28.5t-30 -10.5h-145q-3 0 -3 -6v-366q0 -17 -12 -29t-30 -12t-29 12t-11 29v366z" />
    <glyph glyph-name="g" unicode="g" horiz-adv-x="523" 
d="M244 67q28 0 52.5 11.5t42.5 34t28.5 55t10.5 75.5q0 42 -10.5 75t-28.5 55.5t-42.5 34t-52.5 11.5q-27 0 -51 -14t-41 -38t-27 -56t-10 -68t10 -68t27 -56t41 -38t51 -14zM268 -118q35 0 55.5 11t31.5 29t14.5 41.5t3.5 48.5v32q-26 -24 -58.5 -39t-70.5 -15
q-47 0 -86 20t-67.5 54t-44.5 80t-16 99q0 52 16 98t44.5 80.5t67.5 54t86 19.5q38 0 70 -14.5t59 -38.5q0 20 12 32t29 12t29.5 -11.5t12.5 -29.5v-439q0 -40 -6.5 -76t-26.5 -63.5t-57 -44t-98 -16.5h-140q-15 0 -24.5 8t-9.5 24q0 20 15 32t34 12h125z" />
    <glyph glyph-name="h" unicode="h" horiz-adv-x="514" 
d="M69 692q0 18 11 29.5t30 11.5q17 0 29 -11.5t12 -29.5v-278q33 38 73 59.5t78 21.5q34 0 62.5 -9.5t49.5 -30t32.5 -51.5t11.5 -74v-294q0 -17 -11.5 -29t-29.5 -12t-29.5 12t-11.5 29v294q0 48 -21 68.5t-53 20.5q-18 0 -40 -9t-43 -26t-39.5 -41t-28.5 -53v-254
q0 -17 -12 -29t-29 -12q-19 0 -30 12t-11 29v656z" />
    <glyph glyph-name="i" unicode="i" horiz-adv-x="236" 
d="M119 565q-26 0 -37 16t-11 39t11 38.5t37 15.5q25 0 36 -15.5t11 -38.5t-11 -39t-36 -16zM78 449q0 18 11.5 30t29.5 12q17 0 28.5 -12t11.5 -30v-413q0 -17 -11.5 -29t-28.5 -12q-18 0 -29.5 12t-11.5 29v413z" />
    <glyph glyph-name="j" unicode="j" horiz-adv-x="242" 
d="M85 449q0 17 11.5 29.5t28.5 12.5q18 0 30 -12t12 -30v-443q0 -39 -6 -75t-26 -64t-57 -44.5t-99 -16.5q-18 0 -29 10.5t-11 28.5t11 27.5t30 9.5q35 0 55.5 10.5t31.5 27.5t14.5 39.5t3.5 46.5v443zM125 565q-24 0 -35.5 16t-11.5 39t11.5 38.5t35.5 15.5
q25 0 36.5 -15.5t11.5 -38.5t-11.5 -39t-36.5 -16z" />
    <glyph glyph-name="k" unicode="k" horiz-adv-x="459" 
d="M67 694q0 17 11.5 28t28.5 11q18 0 29.5 -11t11.5 -28v-411l158 179q24 29 63 29q35 0 35 -27q0 -12 -13 -28l-141 -157q-9 -12 -9 -16q0 -3 9 -14l179 -199q14 -16 14 -29q0 -11 -7.5 -18.5t-24.5 -7.5q-22 0 -40 9.5t-30 23.5l-158 174q-2 0 -3 -1l-23 -24
q-6 -7 -7.5 -12t-1.5 -12v-117q0 -17 -11.5 -29t-29.5 -12q-17 0 -28.5 12t-11.5 29v658z" />
    <glyph glyph-name="l" unicode="l" horiz-adv-x="237" 
d="M78 694q0 17 11.5 28t29.5 11q17 0 28.5 -11t11.5 -28v-658q0 -17 -11.5 -29t-28.5 -12q-18 0 -29.5 12t-11.5 29v658z" />
    <glyph glyph-name="m" unicode="m" horiz-adv-x="800" 
d="M58 449q0 18 11.5 30t29.5 12t29.5 -12t11.5 -30v-30q32 36 70.5 56t77.5 20q53 0 89.5 -21.5t52.5 -68.5q33 42 75 66t84 24q72 0 112 -39t40 -126l1 -294q0 -17 -11.5 -29t-30.5 -12q-18 0 -29 12t-11 29v294q0 48 -19 68.5t-52 20.5q-20 0 -41.5 -9t-42 -26t-37.5 -41
t-27 -53v-254q0 -17 -11 -29t-30 -12q-17 0 -29 12t-12 29v294q0 48 -19 68.5t-52 20.5q-20 0 -41.5 -9t-42 -26t-37.5 -41t-27 -53v-254q0 -17 -12 -29t-30 -12t-29 12t-11 29v413z" />
    <glyph glyph-name="n" unicode="n" horiz-adv-x="505" 
d="M58 449q0 18 11.5 30t29.5 12q17 0 29 -12t12 -30v-35q34 38 73.5 59.5t77.5 21.5q34 0 62.5 -9.5t49.5 -30t32.5 -51.5t11.5 -74v-294q0 -17 -11.5 -29t-29.5 -12q-17 0 -29 12t-12 29v294q0 48 -21 68.5t-53 20.5q-18 0 -40.5 -9t-43.5 -26t-39 -41t-28 -53v-254
q0 -17 -12 -29t-29 -12q-18 0 -29.5 12t-11.5 29v413z" />
    <glyph glyph-name="o" unicode="o" horiz-adv-x="486" 
d="M243 -10q-51 0 -91 20t-67.5 54t-41.5 80t-14 99q0 52 14 98t41.5 80.5t67.5 54t91 19.5t91 -19.5t67 -54t41.5 -80.5t14.5 -98q0 -53 -14.5 -99t-41.5 -80t-67 -54t-91 -20zM243 67q30 0 54 14t40.5 38t25.5 56t9 68t-9 68t-25.5 56t-40.5 38t-54 14q-31 0 -55 -14
t-40.5 -38t-25 -56t-8.5 -68t8.5 -68t25 -56t40.5 -38t55 -14z" />
    <glyph glyph-name="p" unicode="p" horiz-adv-x="522" 
d="M145 243q0 -43 10.5 -75.5t28.5 -55t42.5 -34t52.5 -11.5q27 0 51 14t41 38t27 56t10 68t-10 68t-27 56t-41 38t-51 14q-28 0 -52.5 -11.5t-42.5 -34t-28.5 -55.5t-10.5 -75zM150 -158q0 -19 -12 -30t-29 -11q-18 0 -30 11t-12 30v607q0 18 12 30t30 12q17 0 29 -12
t12 -30v-7q25 23 57.5 38t71.5 15q46 0 85 -19.5t67.5 -54t45 -80.5t16.5 -98q0 -53 -16.5 -99t-45 -80t-67.5 -54t-85 -20q-39 0 -71.5 15t-57.5 39v-202z" />
    <glyph glyph-name="q" unicode="q" horiz-adv-x="523" 
d="M243 67q28 0 52.5 11.5t42.5 34t28.5 55t10.5 75.5q0 42 -10.5 75t-28.5 55.5t-42.5 34t-52.5 11.5q-27 0 -51 -14t-41 -38t-27 -56t-10 -68t10 -68t27 -56t41 -38t51 -14zM243 -10q-47 0 -86 20t-67.5 54t-44.5 80t-16 99q0 52 16 98t44.5 80.5t67.5 54t86 19.5
q38 0 70.5 -15t58.5 -38v7q0 18 12 30t29 12t29.5 -12t12.5 -30v-607q0 -19 -12.5 -30t-29.5 -11t-29 11t-12 30v202q-26 -24 -58.5 -39t-70.5 -15z" />
    <glyph glyph-name="r" unicode="r" horiz-adv-x="358" 
d="M58 449q0 18 11.5 30t29.5 12q17 0 29 -12t12 -30v-35q34 38 73.5 59.5t77.5 21.5q27 0 41.5 -10t14.5 -24q0 -12 -13.5 -25t-42.5 -16q-20 -2 -42 -11.5t-43 -26t-38.5 -40t-27.5 -52.5v-254q0 -17 -12 -29t-29 -12q-18 0 -29.5 12t-11.5 29v413z" />
    <glyph glyph-name="s" unicode="s" horiz-adv-x="437" 
d="M34 95q0 17 13 26.5t29 9.5q15 0 24.5 -9.5t22 -20.5t33.5 -20.5t59 -9.5q19 0 38 4.5t34 12.5t24 20.5t9 29.5q0 15 -16 27.5t-42 23.5l-118 47q-48 19 -73.5 48.5t-25.5 71.5q0 25 11 49.5t32.5 44t54.5 31.5t78 12q36 0 63 -9t46.5 -20.5t31 -23.5t15.5 -18
q10 -16 10 -27q0 -15 -11 -25t-28 -10t-26 8.5t-20.5 19t-30.5 19.5t-54 9q-16 0 -32 -4t-28.5 -11.5t-20.5 -18.5t-8 -25q0 -12 13 -24.5t36 -21.5l119 -48q49 -20 78 -49.5t29 -73.5q0 -29 -11.5 -55t-34.5 -46.5t-57.5 -32.5t-79.5 -12q-36 0 -70 9.5t-59.5 24.5t-41 33
t-15.5 34z" />
    <glyph glyph-name="t" unicode="t" horiz-adv-x="425" 
d="M107 404q0 4 -6 4h-38q-17 0 -30.5 10.5t-13.5 28.5t13.5 28.5t30.5 10.5h38q6 0 6 6v128q0 17 11 29t29 12t29 -12t11 -29v-128q0 -6 5 -6h158q17 0 29 -10.5t12 -28.5t-12 -28.5t-29 -10.5h-158q-5 0 -5 -4v-234q0 -28 7 -47t18.5 -30t26 -16t29.5 -5q19 0 33 4.5
t24.5 10.5t18 10.5t15.5 4.5q15 0 26.5 -11.5t11.5 -28.5q0 -16 -12 -29q-19 -17 -49.5 -27.5t-67.5 -10.5q-30 0 -58.5 9t-51.5 29.5t-37 54t-14 82.5v234z" />
    <glyph glyph-name="u" unicode="u" horiz-adv-x="495" 
d="M53 450q0 17 11.5 29t29.5 12t29.5 -12t11.5 -29v-290q0 -24 11 -41t27.5 -27.5t36.5 -15.5t38 -5t37.5 5t36 15.5t27.5 27.5t11 41v290q0 17 12 29t29 12q18 0 29.5 -12t11.5 -29v-290q0 -43 -18 -74t-46 -51.5t-62.5 -30t-67.5 -9.5q-34 0 -68.5 9.5t-62.5 30t-46 51.5
t-18 74v290z" />
    <glyph glyph-name="v" unicode="v" horiz-adv-x="455" 
d="M14 442q-2 5 -3 10t-1 7q0 14 8 23t25 9q16 0 30.5 -7t22.5 -27l131 -300l131 300q8 20 22.5 27t31.5 7t25 -9t8 -23q0 -2 -1 -7t-3 -10l-182 -413q-14 -33 -32 -33q-17 0 -32 33z" />
    <glyph glyph-name="w" unicode="w" horiz-adv-x="689" 
d="M12 448q-2 5 -2 10q0 14 9 23.5t25 9.5q14 0 29.5 -11t23.5 -34l93 -277l122 288q7 16 15 25t18 9q9 0 17.5 -9t15.5 -25l121 -288l94 277q8 23 23.5 34t29.5 11q15 0 24.5 -9.5t9.5 -23.5q0 -5 -2 -10l-144 -417q-5 -14 -11.5 -24t-19.5 -10q-8 0 -16.5 9t-14.5 23
l-127 300l-127 -300q-6 -14 -14.5 -23t-16.5 -9q-13 0 -20 10t-12 24z" />
    <glyph glyph-name="x" unicode="x" horiz-adv-x="441" 
d="M29 24q0 12 7 23l119 174q12 15 12 25q0 5 -3 10.5t-9 14.5l-115 167q-8 13 -8 23q0 13 9.5 21.5t23.5 8.5q16 0 32 -7.5t33 -32.5l91 -133l90 133q17 25 33 32.5t32 7.5q14 0 23.5 -8.5t9.5 -21.5q0 -10 -8 -23l-115 -167q-6 -9 -9 -14.5t-3 -10.5q0 -10 12 -25
l119 -174q7 -11 7 -23t-9 -20.5t-23 -8.5q-17 0 -33 8t-33 32l-93 137l-94 -137q-17 -24 -33 -32t-33 -8q-14 0 -23 8.5t-9 20.5z" />
    <glyph glyph-name="y" unicode="y" horiz-adv-x="505" 
d="M49 450q0 17 11 29t29 12t29.5 -12t11.5 -29v-295q0 -48 21.5 -68t57.5 -20q20 0 43 9t44.5 26t39.5 40.5t29 52.5v255q0 17 12 29t29 12q18 0 29.5 -12t11.5 -29v-444q0 -40 -6.5 -76t-26 -63.5t-57 -44t-98.5 -16.5h-140q-15 0 -24.5 8t-9.5 24q0 20 15 32t34 12h125
q35 0 56 11t32 29t14.5 41.5t3.5 48.5v60q-33 -38 -75.5 -60t-80.5 -22q-34 0 -63 9.5t-50.5 30t-34 51.5t-12.5 74v295z" />
    <glyph glyph-name="z" unicode="z" horiz-adv-x="417" 
d="M37 28q0 12 9 26l206 354h-174q-17 0 -30.5 11t-13.5 28t11 28t28 11h258q4 0 10.5 -0.5t12.5 -3t10 -8.5t4 -16q0 -5 -1.5 -12t-6.5 -15l-207 -353h198q17 0 28.5 -11t11.5 -28q0 -18 -11.5 -28.5t-28.5 -10.5h-276q-5 0 -11.5 0.5t-12.5 3t-10 8t-4 16.5z" />
    <glyph glyph-name="braceleft" unicode="{" horiz-adv-x="339" 
d="M111 250q0 16 -7 26t-15.5 18.5t-15.5 18.5t-7 27t7 27t15.5 18.5t15.5 18t7 26.5v200q0 31 11 57.5t29.5 46.5t43 31.5t51.5 11.5h51q16 0 28.5 -11t12.5 -28t-12.5 -28.5t-28.5 -11.5h-51q-22 0 -38 -19.5t-16 -48.5v-200q0 -34 -13.5 -56.5t-26.5 -33.5
q13 -11 26.5 -34t13.5 -56v-200q0 -29 16 -48t38 -19h51q16 0 28.5 -11.5t12.5 -28.5t-12.5 -28.5t-28.5 -11.5h-51q-27 0 -51.5 11.5t-43 31.5t-29.5 46.5t-11 57.5v200z" />
    <glyph glyph-name="bar" unicode="|" horiz-adv-x="217" 
d="M68 742q0 17 11.5 28.5t28.5 11.5t29 -11.5t12 -28.5v-900q0 -19 -12 -30t-29 -11t-28.5 11t-11.5 30v900z" />
    <glyph glyph-name="braceright" unicode="}" horiz-adv-x="340" 
d="M93 -17q23 0 39 19t16 48v200q0 33 13.5 56t25.5 34q-12 11 -25.5 33.5t-13.5 56.5v200q0 29 -16 48.5t-39 19.5h-51q-16 0 -28 11.5t-12 28.5t12 28t28 11h51q27 0 52 -11.5t43.5 -31.5t29.5 -46.5t11 -57.5v-200q0 -17 7 -26.5t15.5 -18t15.5 -18.5t7 -27t-7 -27
t-15.5 -18.5t-15.5 -18.5t-7 -26v-200q0 -31 -11 -57.5t-29.5 -46.5t-43.5 -31.5t-52 -11.5h-51q-16 0 -28 11.5t-12 28.5t12 28.5t28 11.5h51z" />
    <glyph glyph-name="asciitilde" unicode="~" horiz-adv-x="618" 
d="M119 252q-15 0 -28 11.5t-13 28.5q0 9 2.5 15.5t6.5 11.5q8 10 20.5 22.5t28.5 23.5t34.5 18.5t38.5 7.5q30 0 57.5 -14t52.5 -30.5t48 -30.5t44 -14q13 0 29 15t27 29q6 8 15 10t17 2q16 0 28 -11t12 -28t-10 -29q-9 -10 -21 -22t-27 -22.5t-33 -17.5t-37 -7
q-33 0 -62 14t-54 30.5t-46.5 30.5t-39.5 14q-14 0 -30.5 -15.5t-27.5 -28.5q-13 -14 -32 -14z" />
    <glyph glyph-name="uni00A0" unicode="&#xa0;" horiz-adv-x="437" 
 />
    <glyph glyph-name="exclamdown" unicode="&#xa1;" horiz-adv-x="261" 
d="M89 259q0 18 12 30t30 12q17 0 29 -12t12 -30v-246q0 -51 1 -81.5t1.5 -48t1.5 -25t1 -12.5q0 -20 -14.5 -30t-31.5 -10q-16 0 -31 10t-15 30q0 5 0.5 12.5t1.5 25t1.5 48t0.5 81.5v246zM131 377q-26 0 -37 17t-11 40t12.5 40t35.5 17q25 0 36.5 -17t11.5 -40t-11.5 -40
t-36.5 -17z" />
    <glyph glyph-name="cent" unicode="&#xa2;" horiz-adv-x="472" 
d="M190 1q-34 12 -64 35t-52 54.5t-34.5 69.5t-12.5 80t13 81t35.5 71t52.5 55t63 34q9 3 9 9v58q0 17 11 28.5t29 11.5q17 0 29.5 -11.5t12.5 -28.5v-55q0 -5 7 -7q36 -8 64.5 -24.5t51.5 -39.5q6 -6 10.5 -14t4.5 -16q0 -18 -13.5 -29t-29.5 -11q-8 0 -20.5 8t-25.5 18
t-24.5 18t-18.5 8q-6 0 -6 -10v-309q0 -10 6 -10q5 0 23 10.5t35 27.5q18 16 31 16q16 0 29 -11.5t13 -29.5q0 -8 -4 -15.5t-9 -12.5q-23 -24 -52 -41t-65 -25q-7 -1 -7 -7v-48q0 -18 -12.5 -29.5t-29.5 -11.5q-18 0 -29 11.5t-11 29.5v53q0 6 -10 9zM191 84q1 -1 4 -1
q5 0 5 8v297q0 9 -6 9q-2 0 -16 -9t-30.5 -28t-29.5 -48.5t-13 -71.5q0 -52 24.5 -94t61.5 -62z" />
    <glyph glyph-name="sterling" unicode="&#xa3;" horiz-adv-x="482" 
d="M26 29q0 13 11 27t21.5 31t20.5 32q6 10 15.5 25.5t18 32t14.5 33t6 27.5q0 1 -5 1h-45q-17 0 -29.5 12t-12.5 31q0 18 12.5 29.5t29.5 11.5h45q4 0 4 2q0 3 -4 12t-9 19t-11 19.5t-9 14.5q-17 26 -31.5 54t-14.5 66q0 39 13.5 72t38 57.5t58 38t73.5 13.5q54 0 98 -31
t75 -86q7 -11 7 -23q0 -17 -11 -28t-28 -11q-12 0 -24.5 7.5t-21.5 24.5q-17 33 -43 49t-52 16q-43 0 -71 -28t-28 -71q0 -20 8 -37t19 -34q22 -35 36 -64.5t19 -44.5q1 -7 6 -7h42q17 0 30 -11.5t13 -29.5q0 -19 -13 -31t-30 -12h-46q-1 0 -4 -9q-8 -30 -21 -63.5
t-36 -71.5q-2 -4 -2 -6q0 -3 4 -3h77q44 0 73 0.5t47 0.5t28 0.5t16 0.5q20 0 29.5 -14t9.5 -31q0 -19 -9.5 -30.5t-31.5 -11.5h-336q-5 0 -11.5 1t-12.5 4t-10.5 8.5t-4.5 15.5z" />
    <glyph glyph-name="currency" unicode="&#xa4;" horiz-adv-x="425" 
d="M213 193q33 0 57 27.5t24 67.5q0 39 -24 66.5t-57 27.5q-34 0 -58 -27.5t-24 -66.5q0 -40 24 -67.5t58 -27.5zM73 105q-17 0 -30 13t-13 29q0 15 14 29l24 24q0 2 -4 10q-9 18 -12.5 38t-3.5 40t3.5 39.5t12.5 37.5q4 8 4 10l-24 24q-14 14 -14 29q0 16 13 29t30 13
q5 0 12.5 -2.5t15.5 -9.5l20 -21q2 -2 4 -2q17 12 41 19t47 7t46.5 -7t40.5 -19q2 0 4 2l20 21q7 7 15 9.5t14 2.5q16 0 28.5 -13t12.5 -29t-12 -29l-25 -24q0 -2 4 -10q9 -18 13 -37.5t4 -39.5t-4 -40t-13 -38q-4 -8 -4 -10l25 -24q12 -13 12 -29t-12.5 -29t-28.5 -13
q-6 0 -14 2.5t-15 10.5l-20 20q-2 2 -4 2q-17 -12 -40.5 -19t-46.5 -7t-47 7t-41 19q-2 0 -4 -2l-20 -20q-8 -8 -15.5 -10.5t-12.5 -2.5z" />
    <glyph glyph-name="yen" unicode="&#xa5;" horiz-adv-x="561" 
d="M147 157q0 19 11 30t29 11h45q6 0 6 6v25q0 4 -6 4h-45q-18 0 -29 12t-11 30q0 17 11 28.5t29 11.5h46q-5 15 -11.5 30t-14.5 26l-150 216q-21 31 -30.5 43.5t-9.5 24.5q0 30 39 30q19 0 34.5 -7t26.5 -23l164 -240l164 240q11 16 26.5 23t33.5 7q39 0 39 -30
q0 -12 -9.5 -24.5t-30.5 -43.5l-149 -216q-17 -24 -27 -56h47q17 0 28.5 -11.5t11.5 -28.5q0 -18 -11.5 -30t-28.5 -12h-46q-6 0 -6 -4v-25q0 -6 6 -6h46q17 0 28.5 -11t11.5 -30q0 -18 -11.5 -29t-28.5 -11h-46q-5 0 -5 -5q1 -33 2 -50t1 -27q0 -20 -15 -30t-31 -10
q-17 0 -32 10t-15 30q0 10 1 26.5t2 50.5q0 5 -5 5h-45q-18 0 -29 11t-11 29z" />
    <glyph glyph-name="brokenbar" unicode="&#xa6;" horiz-adv-x="217" 
d="M68 225q0 18 11.5 30t28.5 12t29 -12t12 -30v-384q0 -19 -12 -30t-29 -11t-28.5 11t-11.5 30v384zM108 315q-17 0 -28.5 12t-11.5 30v385q0 17 11.5 28.5t28.5 11.5t29 -11.5t12 -28.5v-385q0 -18 -12 -30t-29 -12z" />
    <glyph glyph-name="section" unicode="&#xa7;" horiz-adv-x="394" 
d="M228 187q6 -9 15 -9q8 0 14 6.5t6 19.5t-11 37l-86 161q-3 6 -8 9t-9 3q-7 0 -12.5 -6.5t-5.5 -17.5q0 -8 3.5 -17t8.5 -20zM120 -39q0 16 12.5 28.5t29.5 12.5q7 0 14 -4.5t15 -7.5q6 -2 10 -2q8 0 13 6.5t5 18.5q0 6 -2.5 17t-9.5 23l-138 258q-10 19 -15.5 40t-5.5 41
q0 27 16.5 56t49.5 43q3 1 3 3l-2 4q-10 20 -16 40t-6 40q0 19 6.5 38t19.5 34.5t31 25.5t42 10q11 0 25 -3t26 -9.5t20.5 -17.5t8.5 -26q0 -17 -11 -30t-30 -13q-9 0 -16 4t-13 6q-3 2 -5.5 3t-5.5 1q-16 0 -16 -24q0 -15 16.5 -50.5t51.5 -98.5l81 -146q22 -39 22 -80
q0 -29 -15.5 -58.5t-48.5 -43.5q-3 -2 -3 -4t2 -6q19 -40 19 -78q0 -18 -6.5 -36.5t-19 -34.5t-31 -26t-42.5 -10q-10 0 -24 3t-26.5 10t-21.5 17.5t-9 25.5z" />
    <glyph glyph-name="dieresis" unicode="&#xa8;" horiz-adv-x="391" 
d="M125 566q-25 0 -36 16t-11 39t11 38.5t36 15.5t36.5 -15.5t11.5 -38.5t-11.5 -39t-36.5 -16zM266 566q-25 0 -36 16t-11 39t11 38.5t36 15.5t36.5 -15.5t11.5 -38.5t-11.5 -39t-36.5 -16z" />
    <glyph glyph-name="copyright" unicode="&#xa9;" horiz-adv-x="721" 
d="M359 161q-32 0 -60 14t-48.5 38.5t-32 57t-11.5 69.5t10.5 70t30 57t46.5 38t61 14q13 0 26.5 -1t25.5 -2q11 -1 19 -1.5t14 -0.5q34 0 34 -34q0 -11 -8.5 -22.5t-24.5 -11.5q-14 0 -26.5 1t-24.5 3q-23 3 -39 3q-17 0 -31 -9t-24.5 -24.5t-16 -36t-5.5 -43.5t7 -43.5
t18.5 -36t27 -24.5t32.5 -9q20 0 35 9.5t27 23.5t29 14q14 0 23.5 -8.5t9.5 -22.5t-7 -22q-22 -26 -50.5 -43t-66.5 -17zM124 339q0 -55 18.5 -103t50.5 -84t75 -57t91 -21q49 0 92.5 21t75.5 57t50.5 84t18.5 103t-18.5 103.5t-50.5 84.5t-75.5 57t-92.5 21q-48 0 -91 -21
t-75 -57t-50.5 -84.5t-18.5 -103.5zM50 340q0 70 24 132t66 108t98.5 73t120.5 27t121 -27t99 -73t66.5 -108t24.5 -132t-24.5 -132t-66.5 -108t-99 -73t-121 -27t-120.5 27t-98.5 73t-66 108t-24 132z" />
    <glyph glyph-name="ordfeminine" unicode="&#xaa;" horiz-adv-x="371" 
d="M159 319q-48 0 -71.5 26.5t-23.5 59.5q0 16 6 31.5t17.5 27.5t29.5 19.5t42 7.5q11 0 30 -2t34 -2q0 11 -8 23.5t-25 12.5q-11 0 -29 -2t-35 -2q-11 0 -24.5 7t-13.5 24q0 32 31 32q15 0 33 2t38 2t38.5 -7t33 -19t23 -28.5t8.5 -35.5v-141q0 -37 -38 -37q-13 0 -19 6.5
t-11 6.5q-15 -5 -33.5 -8.5t-32.5 -3.5zM178 186q-23 0 -35.5 16.5t-12.5 39.5q0 22 11 39t37 17t36.5 -17t10.5 -39q0 -23 -10.5 -39.5t-36.5 -16.5zM153 382q3 0 11.5 1.5t19 3.5t21 4.5t18.5 4.5v19q0 2 -4.5 5.5t-9.5 4.5q-21 2 -35.5 2.5t-20.5 0.5q-11 0 -17 -6.5
t-6 -15.5t6 -16.5t17 -7.5z" />
    <glyph glyph-name="guillemotleft" unicode="&#xab;" horiz-adv-x="508" 
d="M66 246q-17 16 -17 31q0 14 17 31l149 143q7 7 15 7q11 0 18.5 -9t7.5 -21q0 -9 -5 -16l-88 -123q-4 -5 -5 -8t-1 -4t1 -4t5 -8l88 -123q5 -8 5 -17q0 -11 -7.5 -20t-18.5 -9q-8 0 -15 7zM245 246q-18 16 -18 31q0 13 18 31l148 143q7 7 16 7q11 0 18.5 -9t7.5 -21
q0 -7 -6 -16l-87 -123q-4 -5 -5 -8t-1 -4t1 -4t5 -8l87 -123q6 -9 6 -17q0 -11 -7.5 -20t-18.5 -9q-9 0 -16 7z" />
    <glyph glyph-name="logicalnot" unicode="&#xac;" horiz-adv-x="544" 
d="M84 247q-19 0 -30 11.5t-11 29.5q0 17 11 28.5t30 11.5h374q18 0 28.5 -11t10.5 -29v-172q0 -18 -11 -29t-28 -11q-19 0 -30 11t-11 29v127q0 4 -4 4h-329v0z" />
    <glyph glyph-name="uni00AD" unicode="&#xad;" horiz-adv-x="480" 
d="M136 249q-15 0 -29 4.5t-24.5 11.5t-17 15t-6.5 15q0 14 13.5 23t45.5 9h226q15 0 28.5 -4.5t24.5 -11.5t17.5 -15.5t6.5 -15.5q0 -14 -13.5 -22.5t-46.5 -8.5h-225v0z" />
    <glyph glyph-name="registered" unicode="&#xae;" horiz-adv-x="433" 
d="M168 367q-9 0 -17 5t-8 16q0 6 1 17t1 36v73q0 25 -1 34t-1 15q0 8 2.5 14t13.5 6h55q28 0 49 -17t21 -45q0 -20 -9.5 -34.5t-26.5 -21.5l38 -55q8 -11 12.5 -17.5t4.5 -14.5q0 -11 -16 -11q-10 0 -20 5t-24 24l-52 70v-78q0 -11 -7.5 -16t-15.5 -5zM191 492q4 3 14 3
q23 0 29 8t6 17q0 11 -9.5 16.5t-32.5 5.5q-7 0 -7 -1v-49zM215 316q30 0 56 12.5t45.5 34t30.5 50.5t11 62t-11 62t-30.5 51t-45.5 34.5t-56 12.5q-29 0 -54.5 -12.5t-45 -34.5t-30.5 -51t-11 -62t11 -62t30.5 -50.5t45 -34t54.5 -12.5zM215 272q-38 0 -72 16t-59 44
t-39.5 65t-14.5 79t14.5 79t39.5 65t59 44t72 16q39 0 73 -16t59.5 -44t40 -65t14.5 -79t-14.5 -79t-40 -65t-59.5 -44t-73 -16z" />
    <glyph glyph-name="macron" unicode="&#xaf;" horiz-adv-x="372" 
d="M116 586q-14 0 -24.5 11t-10.5 25q0 13 10.5 24.5t24.5 11.5h140q14 0 24.5 -11.5t10.5 -24.5q0 -14 -10.5 -25t-24.5 -11h-140v0z" />
    <glyph glyph-name="degree" unicode="&#xb0;" horiz-adv-x="330" 
d="M165 519q17 0 27.5 13t10.5 33t-10.5 33.5t-27.5 13.5q-16 0 -27.5 -13.5t-11.5 -33.5t11.5 -33t27.5 -13zM165 442q-24 0 -45 9.5t-36.5 26t-24.5 39t-9 48.5q0 25 9 47.5t24.5 39.5t36.5 27.5t45 10.5q23 0 44 -10.5t36.5 -27.5t25 -39.5t9.5 -47.5q0 -26 -9.5 -48.5
t-25 -39t-36.5 -26t-44 -9.5z" />
    <glyph glyph-name="plusminus" unicode="&#xb1;" horiz-adv-x="464" 
d="M45 63q0 17 11.5 29t29.5 12h130q-25 9 -25 37v101q0 5 -5 5h-100q-18 0 -29.5 11.5t-11.5 29.5q0 17 11.5 28.5t29.5 11.5h100q5 0 5 5v101q0 18 11.5 29t29.5 11t29.5 -11t11.5 -29v-101q0 -5 6 -5h99q18 0 30 -11.5t12 -28.5q0 -18 -12 -29.5t-30 -11.5h-99
q-6 0 -6 -5v-101q0 -14 -6.5 -23t-17.5 -14h129q18 0 30 -12t12 -29q0 -18 -12 -29.5t-30 -11.5h-292q-18 0 -29.5 11.5t-11.5 29.5z" />
    <glyph glyph-name="uni00B2" unicode="&#xb2;" horiz-adv-x="367" 
d="M109 498q-11 0 -23 6t-12 26q0 46 29 81.5t66 64.5q8 7 17.5 15t17.5 17t13 17.5t5 16.5q0 17 -9.5 28.5t-26.5 11.5q-12 0 -19 -7t-13 -16l-7 -10q-6 -8 -13.5 -14t-18.5 -6q-13 0 -23 8.5t-10 24.5t10 31t25.5 27t33.5 19t34 7q50 0 79 -29.5t29 -74.5q0 -33 -20 -56
t-49 -48q-28 -25 -44.5 -41.5t-25.5 -33.5h109q16 0 25.5 -8.5t9.5 -22.5q0 -16 -9.5 -25t-25.5 -9h-154v0z" />
    <glyph glyph-name="uni00B3" unicode="&#xb3;" horiz-adv-x="367" 
d="M183 494q-22 0 -41 8t-33.5 20t-22.5 25t-8 22q0 12 7 24.5t24 12.5q11 0 19.5 -7.5t16.5 -16t17 -16t21 -7.5q18 0 30.5 13t12.5 30q0 15 -12.5 28t-29.5 15q-19 2 -25.5 11.5t-6.5 22.5q0 11 9.5 19t22.5 12q13 5 23.5 12.5t10.5 22.5q0 17 -10.5 26t-24.5 9
q-11 0 -18.5 -6.5t-14.5 -14t-15 -13.5t-19 -6q-13 0 -22 8t-9 21q0 14 9.5 28t23.5 25t31.5 17.5t33.5 6.5q45 0 75 -26.5t30 -74.5q0 -18 -5 -34.5t-18 -29.5q14 -15 23 -37t9 -42q0 -22 -9 -41.5t-24.5 -34.5t-36.5 -23.5t-44 -8.5z" />
    <glyph glyph-name="acute" unicode="&#xb4;" horiz-adv-x="366" 
d="M126 531q-12 0 -19 6t-7 15q0 7 6 16l68 91q8 9 18.5 15t24.5 6q18 0 33 -10.5t15 -23.5q0 -7 -3 -12t-7 -9l-106 -87q-11 -7 -23 -7z" />
    <glyph glyph-name="mu" unicode="&#xb5;" horiz-adv-x="505" 
d="M130 -158q0 -18 -11 -29.5t-29 -11.5t-29.5 11.5t-11.5 29.5v607q0 18 12 30t29 12q18 0 29.5 -12t11.5 -30v-242q0 -25 4 -50t13 -44.5t23 -32t34 -12.5q25 0 48 15.5t42.5 37.5t35 46.5t26.5 41.5q4 8 6 18.5t2 27.5v194q0 18 12 30t29 12q18 0 29.5 -12t11.5 -30v-413
q0 -17 -11.5 -29t-29.5 -12q-17 0 -29 12t-12 29v55l-4 -5q-17 -18 -34.5 -35.5t-36 -31t-39.5 -21.5t-46 -8q-29 0 -45.5 5.5t-29.5 12.5v-166z" />
    <glyph glyph-name="paragraph" unicode="&#xb6;" horiz-adv-x="523" 
d="M204 288q0 3 -6 5q-33 5 -61 22.5t-48.5 43.5t-32 58.5t-11.5 68.5q0 39 14 74.5t38.5 62t57 42t70.5 15.5h211q17 0 29.5 -11.5t12.5 -28.5q0 -18 -12.5 -30t-29.5 -12h-8q-5 0 -5 -4v-581q0 -51 0.5 -81.5t0.5 -48t0.5 -25t0.5 -12.5q0 -20 -14.5 -30t-30.5 -10
q-17 0 -30 10t-13 30v748q0 4 -4 4h-38q-6 0 -6 -4v-748q0 -20 -13 -30t-29 -10q-17 0 -31.5 10t-14.5 30q0 5 0.5 12.5t1 25t1 48t0.5 81.5v275z" />
    <glyph glyph-name="periodcentered" unicode="&#xb7;" horiz-adv-x="223" 
d="M112 341q-23 0 -35.5 16.5t-12.5 39.5q0 22 11 39.5t37 17.5t36.5 -17.5t10.5 -39.5q0 -23 -10.5 -39.5t-36.5 -16.5z" />
    <glyph glyph-name="cedilla" unicode="&#xb8;" horiz-adv-x="328" 
d="M187 0l-4 -22l4 -3q26 -15 41 -34t15 -39q0 -21 -11 -35.5t-26.5 -23.5t-33.5 -12.5t-33 -3.5q-27 0 -40 10.5t-13 22.5q0 11 8 17.5t24 6.5q17 0 33.5 5t16.5 16q0 6 -9 10.5t-19.5 9.5t-19 11t-8.5 17q0 5 2 15t7 32h66z" />
    <glyph glyph-name="uni00B9" unicode="&#xb9;" horiz-adv-x="371" 
d="M219 494q-16 0 -25 9.5t-9 24.5v184l-8 -8q-9 -9 -23 -9q-13 0 -24 9.5t-11 23.5q0 15 10 25l77 84q11 13 25 13q24 0 24 -41v-281q0 -15 -10.5 -24.5t-25.5 -9.5z" />
    <glyph glyph-name="ordmasculine" unicode="&#xba;" horiz-adv-x="371" 
d="M186 318q-25 0 -46.5 10.5t-37 28.5t-24.5 42.5t-9 53.5q0 28 9 52.5t24.5 43t37 29t46.5 10.5t46 -10.5t36.5 -29t24.5 -43t9 -52.5q0 -29 -9 -53.5t-24.5 -42.5t-36.5 -28.5t-46 -10.5zM186 388q17 0 28.5 19t11.5 46q0 26 -11.5 45t-28.5 19t-28.5 -19t-11.5 -45
q0 -27 11.5 -46t28.5 -19zM186 186q-23 0 -35.5 16.5t-12.5 39.5q0 22 11 39t37 17t36.5 -17t10.5 -39q0 -23 -10.5 -39.5t-36.5 -16.5z" />
    <glyph glyph-name="guillemotright" unicode="&#xbb;" horiz-adv-x="508" 
d="M252 125q0 7 5 17l88 123q4 5 5 8t1 4t-1 4t-5 8l-88 123q-5 10 -5 16q0 12 7.5 21t18.5 9q8 0 15 -7l149 -143q17 -17 17 -31q0 -15 -17 -31l-149 -143q-7 -7 -15 -7q-11 0 -18.5 9t-7.5 20zM99 96q-11 0 -18.5 9t-7.5 20q0 8 6 17l87 123q4 5 5 8t1 4t-1 4t-5 8
l-87 123q-6 9 -6 16q0 12 7.5 21t18.5 9q9 0 16 -7l148 -143q18 -18 18 -31q0 -15 -18 -31l-148 -143q-7 -7 -16 -7z" />
    <glyph glyph-name="onequarter" unicode="&#xbc;" horiz-adv-x="819" 
d="M219 332q-16 0 -25 9.5t-9 24.5v184l-8 -8q-9 -9 -23 -9q-13 0 -24 9.5t-11 23.5q0 15 10 25l77 84q11 13 25 13q24 0 24 -41v-281q0 -15 -10.5 -24.5t-25.5 -9.5zM96 21q0 6 2.5 13.5t8.5 15.5l526 608q14 16 31 22t31 6q15 0 24 -7.5t9 -19.5q0 -13 -11 -27l-528 -607
q-13 -15 -30 -23t-31 -8t-23 8t-9 19zM521 108q0 7 7 23.5t16 42t16 61.5t7 83q0 14 9.5 24t24.5 10q14 0 24.5 -9.5t10.5 -22.5q0 -9 -2.5 -30.5t-6 -47t-9 -52t-11.5 -45.5h39v88q0 15 10 25t25 10q16 0 25.5 -10t9.5 -25v-88h13q13 0 23.5 -10t10.5 -23q0 -17 -10.5 -26
t-23.5 -9h-13v-46q0 -14 -9.5 -24.5t-25.5 -10.5q-15 0 -25 10.5t-10 24.5v46h-88q-14 0 -25.5 7.5t-11.5 23.5z" />
    <glyph glyph-name="onehalf" unicode="&#xbd;" horiz-adv-x="819" 
d="M219 332q-16 0 -25 9.5t-9 24.5v184l-8 -8q-9 -9 -23 -9q-13 0 -24 9.5t-11 23.5q0 15 10 25l77 84q11 13 25 13q24 0 24 -41v-281q0 -15 -10.5 -24.5t-25.5 -9.5zM96 21q0 6 2.5 13.5t8.5 15.5l526 608q14 16 31 22t31 6q15 0 24 -7.5t9 -19.5q0 -13 -11 -27l-528 -607
q-13 -15 -30 -23t-31 -8t-23 8t-9 19zM526 32q0 46 29 81.5t66 64.5q8 7 17.5 15t17.5 17t13 17.5t5 16.5q0 17 -9.5 28.5t-26.5 11.5q-12 0 -19 -7t-13 -16l-7 -10q-6 -8 -13.5 -14t-18.5 -6q-13 0 -23 8.5t-10 24.5t10 31t25.5 27t33.5 19t34 7q50 0 79 -29.5t29 -74.5
q0 -33 -20 -56t-49 -48q-28 -25 -44.5 -41.5t-25.5 -33.5h109q16 0 25.5 -8.5t9.5 -22.5q0 -16 -9.5 -25t-25.5 -9h-154q-11 0 -23 6t-12 26z" />
    <glyph glyph-name="threequarters" unicode="&#xbe;" horiz-adv-x="815" 
d="M183 332q-22 0 -41 8t-33.5 20t-22.5 25t-8 22q0 12 7 24.5t24 12.5q11 0 19.5 -7.5t16.5 -16t17 -16t21 -7.5q18 0 30.5 13t12.5 30q0 15 -12.5 28t-29.5 15q-19 2 -25.5 11.5t-6.5 22.5q0 11 9.5 19t22.5 12q13 5 23.5 12.5t10.5 22.5q0 17 -10.5 26t-24.5 9
q-11 0 -18.5 -6.5t-14.5 -14t-15 -13.5t-19 -6q-13 0 -22 8t-9 21q0 14 9.5 28t23.5 25t31.5 17.5t33.5 6.5q45 0 75 -26.5t30 -74.5q0 -18 -5 -34.5t-18 -29.5q14 -15 23 -37t9 -42q0 -22 -9 -41.5t-24.5 -34.5t-36.5 -23.5t-44 -8.5zM92 21q0 6 2.5 13.5t8.5 15.5l526 608
q14 16 31 22t31 6q15 0 24 -7.5t9 -19.5q0 -13 -11 -27l-528 -607q-13 -15 -30 -23t-31 -8t-23 8t-9 19zM517 108q0 7 7 23.5t16 42t16 61.5t7 83q0 14 9.5 24t24.5 10q14 0 24.5 -9.5t10.5 -22.5q0 -9 -2.5 -30.5t-6 -47t-9 -52t-11.5 -45.5h39v88q0 15 10 25t25 10
q16 0 25.5 -10t9.5 -25v-88h13q13 0 23.5 -10t10.5 -23q0 -17 -10.5 -26t-23.5 -9h-13v-46q0 -14 -9.5 -24.5t-25.5 -10.5q-15 0 -25 10.5t-10 24.5v46h-88q-14 0 -25.5 7.5t-11.5 23.5z" />
    <glyph glyph-name="questiondown" unicode="&#xbf;" horiz-adv-x="468" 
d="M40 -16q0 24 7 44.5t18 38.5t26 33.5t30 30.5q31 29 53.5 63t22.5 82v5q0 17 12 29t29 12t29 -12t12 -29v-22q0 -35 -11.5 -63.5t-29.5 -53t-38 -46t-38 -40.5t-29.5 -36.5t-11.5 -35.5q0 -21 7.5 -39.5t21 -32t32 -21t40.5 -7.5q25 0 49.5 15t45.5 51q8 17 21.5 25
t25.5 8q17 0 27.5 -10.5t10.5 -27.5q0 -5 -1 -10.5t-4 -11.5q-29 -57 -75 -87t-100 -30q-39 0 -72.5 13.5t-58 37t-38 56t-13.5 71.5zM238 377q-26 0 -37.5 17t-11.5 40t13 40t36 17q25 0 36.5 -17t11.5 -40t-11.5 -40t-36.5 -17z" />
    <glyph glyph-name="Agrave" unicode="&#xc0;" horiz-adv-x="571" 
d="M375 279l-89 227l-92 -227h181zM1 27q0 10 4 20.5t13 29.5t23.5 50t35.5 83l178 441q5 14 12 23t19 9q11 0 18 -9t13 -23l177 -441q21 -52 35.5 -83t23.5 -50t13 -29.5t4 -20.5q0 -16 -13.5 -24t-27.5 -8q-13 0 -30 9.5t-23 24.5l-63 157q-5 8 -19 8h-219q-14 0 -19 -8
l-61 -157q-6 -15 -23 -24.5t-30 -9.5q-14 0 -27.5 8t-13.5 24zM181 810q-11 9 -11 21q0 13 15 23.5t34 10.5q13 0 24 -6t18 -15l68 -91q6 -9 6 -16q0 -9 -7 -15t-19 -6q-13 0 -22 7z" />
    <glyph glyph-name="Aacute" unicode="&#xc1;" horiz-adv-x="571" 
d="M375 279l-89 227l-92 -227h181zM1 27q0 10 4 20.5t13 29.5t23.5 50t35.5 83l178 441q5 14 12 23t19 9q11 0 18 -9t13 -23l177 -441q21 -52 35.5 -83t23.5 -50t13 -29.5t4 -20.5q0 -16 -13.5 -24t-27.5 -8q-13 0 -30 9.5t-23 24.5l-63 157q-5 8 -19 8h-219q-14 0 -19 -8
l-61 -157q-6 -15 -23 -24.5t-30 -9.5q-14 0 -27.5 8t-13.5 24zM262 716q-12 0 -19 6t-7 15q0 7 6 16l68 91q8 9 18.5 15t24.5 6q18 0 33 -10.5t15 -23.5q0 -7 -3 -12t-7 -9l-106 -87q-11 -7 -23 -7z" />
    <glyph glyph-name="Acircumflex" unicode="&#xc2;" horiz-adv-x="571" 
d="M375 279l-89 227l-92 -227h181zM1 27q0 10 4 20.5t13 29.5t23.5 50t35.5 83l178 441q5 14 12 23t19 9q11 0 18 -9t13 -23l177 -441q21 -52 35.5 -83t23.5 -50t13 -29.5t4 -20.5q0 -16 -13.5 -24t-27.5 -8q-13 0 -30 9.5t-23 24.5l-63 157q-5 8 -19 8h-219q-14 0 -19 -8
l-61 -157q-6 -15 -23 -24.5t-30 -9.5q-14 0 -27.5 8t-13.5 24zM195 721q-11 0 -19.5 5.5t-8.5 16.5q0 8 6 14l88 95q5 5 11.5 9t13.5 4q6 0 12.5 -4t11.5 -9l88 -95q6 -6 6 -14q0 -11 -8.5 -16.5t-19.5 -5.5q-13 0 -19 5l-61 42q-5 3 -10 3q-7 0 -11 -3l-61 -42
q-6 -5 -19 -5z" />
    <glyph glyph-name="Atilde" unicode="&#xc3;" horiz-adv-x="571" 
d="M375 279l-89 227l-92 -227h181zM1 27q0 10 4 20.5t13 29.5t23.5 50t35.5 83l178 441q5 14 12 23t19 9q11 0 18 -9t13 -23l177 -441q21 -52 35.5 -83t23.5 -50t13 -29.5t4 -20.5q0 -16 -13.5 -24t-27.5 -8q-13 0 -30 9.5t-23 24.5l-63 157q-5 8 -19 8h-219q-14 0 -19 -8
l-61 -157q-6 -15 -23 -24.5t-30 -9.5q-14 0 -27.5 8t-13.5 24zM195 750q-12 0 -19 9.5t-7 22.5q0 12 6 24.5t16.5 22.5t23.5 16.5t28 6.5q27 0 49.5 -9t36.5 -9q8 1 13.5 6l11 10t10.5 9.5t13 4.5q12 0 19.5 -9.5t7.5 -23.5t-6.5 -26.5t-17 -22.5t-24.5 -15.5t-28 -5.5
q-27 0 -48 9.5t-36 9.5q-8 0 -13.5 -5t-11 -10.5t-11 -10t-13.5 -4.5z" />
    <glyph glyph-name="Adieresis" unicode="&#xc4;" horiz-adv-x="571" 
d="M375 279l-89 227l-92 -227h181zM1 27q0 10 4 20.5t13 29.5t23.5 50t35.5 83l178 441q5 14 12 23t19 9q11 0 18 -9t13 -23l177 -441q21 -52 35.5 -83t23.5 -50t13 -29.5t4 -20.5q0 -16 -13.5 -24t-27.5 -8q-13 0 -30 9.5t-23 24.5l-63 157q-5 8 -19 8h-219q-14 0 -19 -8
l-61 -157q-6 -15 -23 -24.5t-30 -9.5q-14 0 -27.5 8t-13.5 24zM215 751q-25 0 -36 16t-11 39t11 38.5t36 15.5t36.5 -15.5t11.5 -38.5t-11.5 -39t-36.5 -16zM356 751q-25 0 -36 16t-11 39t11 38.5t36 15.5t36.5 -15.5t11.5 -38.5t-11.5 -39t-36.5 -16z" />
    <glyph glyph-name="Aring" unicode="&#xc5;" horiz-adv-x="571" 
d="M375 279l-89 227l-92 -227h181zM1 27q0 10 4 20.5t13 29.5t23.5 50t35.5 83l178 441q5 14 12 23t19 9q11 0 18 -9t13 -23l177 -441q21 -52 35.5 -83t23.5 -50t13 -29.5t4 -20.5q0 -16 -13.5 -24t-27.5 -8q-13 0 -30 9.5t-23 24.5l-63 157q-5 8 -19 8h-219q-14 0 -19 -8
l-61 -157q-6 -15 -23 -24.5t-30 -9.5q-14 0 -27.5 8t-13.5 24zM286 708q-35 0 -59 25t-24 61t24 61.5t59 25.5t59 -25.5t24 -61.5t-24 -61t-59 -25zM286 762q12 0 20 9.5t8 22.5q0 14 -8 23t-20 9q-11 0 -19.5 -9t-8.5 -23q0 -13 8.5 -22.5t19.5 -9.5z" />
    <glyph glyph-name="AE" unicode="&#xc6;" horiz-adv-x="767" 
d="M340 279q5 0 5 5v222l-118 -227h113zM1 27q0 10 4.5 20t16 28.5t30 50.5t46.5 86l226 440q16 28 40 28h315q20 0 30 -13t10 -30q0 -16 -10 -30.5t-30 -14.5q-5 0 -13 0.5t-25 1t-47.5 1t-81.5 0.5h-77q-5 0 -5 -6v-200q0 -6 5 -6h173q18 0 30 -13.5t12 -29.5t-12 -29.5
t-30 -13.5h-173q-5 0 -5 -6v-200q0 -6 5 -6h77q51 0 81.5 0.5t47.5 1t25 1t13 0.5q20 0 30 -14.5t10 -30.5q0 -17 -10 -30t-30 -13h-310q-11 0 -20.5 10t-9.5 24q0 5 1 12.5t2 23.5t2 44t1 75q0 5 -6 5h-139q-9 0 -13 -2t-7 -7l-81 -157q-9 -17 -25.5 -25t-30.5 -8
q-13 0 -27.5 8t-14.5 24z" />
    <glyph glyph-name="Ccedilla" unicode="&#xc7;" horiz-adv-x="594" 
d="M289 -47q0 5 1.5 13.5t6.5 25.5q-56 7 -104.5 36.5t-84 76t-55.5 107t-20 128.5q0 74 20 138t57.5 111t90.5 74t119 27q24 0 49.5 -1.5t49 -3.5t44.5 -3.5t36 -1.5q43 0 43 -43q0 -16 -10.5 -30.5t-30.5 -14.5q-48 0 -99 8.5t-92 8.5q-42 0 -76.5 -21t-60 -58t-39.5 -86
t-14 -104q0 -56 16.5 -104.5t44.5 -85t66 -57.5t80 -21q49 0 85 23t68 58q8 10 19.5 14.5t20.5 4.5q17 0 29.5 -10.5t12.5 -27.5q0 -15 -13 -32q-36 -43 -82 -72t-104 -37l-3 -15l5 -3q26 -15 41 -34t15 -39q0 -21 -11 -35.5t-26.5 -23.5t-33.5 -12.5t-33 -3.5
q-27 0 -40 10.5t-13 22.5q0 11 8 17.5t23 6.5q18 0 34.5 5t16.5 16q0 6 -9 10.5t-19.5 9.5t-19.5 11t-9 17z" />
    <glyph glyph-name="Egrave" unicode="&#xc8;" horiz-adv-x="491" 
d="M62 37q0 5 1 12t1.5 24t1.5 47.5t1 81.5v276q0 51 -1 82t-2 48.5t-2 25t-1 12.5q0 14 9.5 24t20.5 10h309q21 0 31.5 -13t10.5 -30q0 -16 -10 -30.5t-30 -14.5q-11 0 -25 0.5t-33.5 1t-46 1t-62.5 0.5h-78q-4 0 -4 -5v-201q0 -6 4 -6h173q19 0 30.5 -13.5t11.5 -29.5
t-11.5 -29.5t-30.5 -13.5h-173q-4 0 -4 -6v-201q0 -5 4 -5h78q37 0 63.5 0.5t45.5 1t32.5 1t25.5 0.5q20 0 30 -14.5t10 -30.5q0 -17 -10.5 -30t-31.5 -13h-309q-17 0 -23 11.5t-6 25.5zM149 810q-11 9 -11 21q0 13 15 23.5t34 10.5q13 0 24 -6t18 -15l68 -91q6 -9 6 -16
q0 -9 -7 -15t-19 -6q-13 0 -22 7z" />
    <glyph glyph-name="Eacute" unicode="&#xc9;" horiz-adv-x="491" 
d="M62 37q0 5 1 12t1.5 24t1.5 47.5t1 81.5v276q0 51 -1 82t-2 48.5t-2 25t-1 12.5q0 14 9.5 24t20.5 10h309q21 0 31.5 -13t10.5 -30q0 -16 -10 -30.5t-30 -14.5q-11 0 -25 0.5t-33.5 1t-46 1t-62.5 0.5h-78q-4 0 -4 -5v-201q0 -6 4 -6h173q19 0 30.5 -13.5t11.5 -29.5
t-11.5 -29.5t-30.5 -13.5h-173q-4 0 -4 -6v-201q0 -5 4 -5h78q37 0 63.5 0.5t45.5 1t32.5 1t25.5 0.5q20 0 30 -14.5t10 -30.5q0 -17 -10.5 -30t-31.5 -13h-309q-17 0 -23 11.5t-6 25.5zM230 716q-12 0 -19 6t-7 15q0 7 6 16l68 91q8 9 18.5 15t24.5 6q18 0 33 -10.5
t15 -23.5q0 -7 -3 -12t-7 -9l-106 -87q-11 -7 -23 -7z" />
    <glyph glyph-name="Ecircumflex" unicode="&#xca;" horiz-adv-x="491" 
d="M62 37q0 5 1 12t1.5 24t1.5 47.5t1 81.5v276q0 51 -1 82t-2 48.5t-2 25t-1 12.5q0 14 9.5 24t20.5 10h309q21 0 31.5 -13t10.5 -30q0 -16 -10 -30.5t-30 -14.5q-11 0 -25 0.5t-33.5 1t-46 1t-62.5 0.5h-78q-4 0 -4 -5v-201q0 -6 4 -6h173q19 0 30.5 -13.5t11.5 -29.5
t-11.5 -29.5t-30.5 -13.5h-173q-4 0 -4 -6v-201q0 -5 4 -5h78q37 0 63.5 0.5t45.5 1t32.5 1t25.5 0.5q20 0 30 -14.5t10 -30.5q0 -17 -10.5 -30t-31.5 -13h-309q-17 0 -23 11.5t-6 25.5zM163 721q-11 0 -19.5 5.5t-8.5 16.5q0 8 6 14l88 95q5 5 11.5 9t13.5 4q6 0 12.5 -4
t11.5 -9l88 -95q6 -6 6 -14q0 -11 -8.5 -16.5t-19.5 -5.5q-13 0 -19 5l-61 42q-5 3 -10 3q-7 0 -11 -3l-61 -42q-6 -5 -19 -5z" />
    <glyph glyph-name="Edieresis" unicode="&#xcb;" horiz-adv-x="491" 
d="M62 37q0 5 1 12t1.5 24t1.5 47.5t1 81.5v276q0 51 -1 82t-2 48.5t-2 25t-1 12.5q0 14 9.5 24t20.5 10h309q21 0 31.5 -13t10.5 -30q0 -16 -10 -30.5t-30 -14.5q-11 0 -25 0.5t-33.5 1t-46 1t-62.5 0.5h-78q-4 0 -4 -5v-201q0 -6 4 -6h173q19 0 30.5 -13.5t11.5 -29.5
t-11.5 -29.5t-30.5 -13.5h-173q-4 0 -4 -6v-201q0 -5 4 -5h78q37 0 63.5 0.5t45.5 1t32.5 1t25.5 0.5q20 0 30 -14.5t10 -30.5q0 -17 -10.5 -30t-31.5 -13h-309q-17 0 -23 11.5t-6 25.5zM183 751q-25 0 -36 16t-11 39t11 38.5t36 15.5t36.5 -15.5t11.5 -38.5t-11.5 -39
t-36.5 -16zM324 751q-25 0 -36 16t-11 39t11 38.5t36 15.5t36.5 -15.5t11.5 -38.5t-11.5 -39t-36.5 -16z" />
    <glyph glyph-name="Igrave" unicode="&#xcc;" horiz-adv-x="249" 
d="M79 35q0 5 0.5 12.5t1.5 25t1.5 48t0.5 81.5v276q0 51 -0.5 82t-1.5 48t-1.5 24.5t-0.5 12.5q0 20 14.5 30t31.5 10t31 -10t14 -30q0 -5 -0.5 -12.5t-1.5 -25t-1.5 -48t-0.5 -81.5v-276q0 -51 0.5 -81.5t1.5 -48t1.5 -25t0.5 -12.5q0 -20 -14 -30t-31 -10t-31.5 10
t-14.5 30zM21 810q-11 9 -11 21q0 13 15 23.5t34 10.5q13 0 24 -6t18 -15l68 -91q6 -9 6 -16q0 -9 -7 -15t-19 -6q-13 0 -22 7z" />
    <glyph glyph-name="Iacute" unicode="&#xcd;" horiz-adv-x="249" 
d="M79 35q0 5 0.5 12.5t1.5 25t1.5 48t0.5 81.5v276q0 51 -0.5 82t-1.5 48t-1.5 24.5t-0.5 12.5q0 20 14.5 30t31.5 10t31 -10t14 -30q0 -5 -0.5 -12.5t-1.5 -25t-1.5 -48t-0.5 -81.5v-276q0 -51 0.5 -81.5t1.5 -48t1.5 -25t0.5 -12.5q0 -20 -14 -30t-31 -10t-31.5 10
t-14.5 30zM102 716q-12 0 -19 6t-7 15q0 7 6 16l68 91q8 9 18.5 15t24.5 6q18 0 33 -10.5t15 -23.5q0 -7 -3 -12t-7 -9l-106 -87q-11 -7 -23 -7z" />
    <glyph glyph-name="Icircumflex" unicode="&#xce;" horiz-adv-x="249" 
d="M79 35q0 5 0.5 12.5t1.5 25t1.5 48t0.5 81.5v276q0 51 -0.5 82t-1.5 48t-1.5 24.5t-0.5 12.5q0 20 14.5 30t31.5 10t31 -10t14 -30q0 -5 -0.5 -12.5t-1.5 -25t-1.5 -48t-0.5 -81.5v-276q0 -51 0.5 -81.5t1.5 -48t1.5 -25t0.5 -12.5q0 -20 -14 -30t-31 -10t-31.5 10
t-14.5 30zM35 721q-11 0 -19.5 5.5t-8.5 16.5q0 8 6 14l88 95q5 5 11.5 9t13.5 4q6 0 12.5 -4t11.5 -9l88 -95q6 -6 6 -14q0 -11 -8.5 -16.5t-19.5 -5.5q-13 0 -19 5l-61 42q-5 3 -10 3q-7 0 -11 -3l-61 -42q-6 -5 -19 -5z" />
    <glyph glyph-name="Idieresis" unicode="&#xcf;" horiz-adv-x="249" 
d="M79 35q0 5 0.5 12.5t1.5 25t1.5 48t0.5 81.5v276q0 51 -0.5 82t-1.5 48t-1.5 24.5t-0.5 12.5q0 20 14.5 30t31.5 10t31 -10t14 -30q0 -5 -0.5 -12.5t-1.5 -25t-1.5 -48t-0.5 -81.5v-276q0 -51 0.5 -81.5t1.5 -48t1.5 -25t0.5 -12.5q0 -20 -14 -30t-31 -10t-31.5 10
t-14.5 30zM55 751q-25 0 -36 16t-11 39t11 38.5t36 15.5t36.5 -15.5t11.5 -38.5t-11.5 -39t-36.5 -16zM196 751q-25 0 -36 16t-11 39t11 38.5t36 15.5t36.5 -15.5t11.5 -38.5t-11.5 -39t-36.5 -16z" />
    <glyph glyph-name="Eth" unicode="&#xd0;" horiz-adv-x="609" 
d="M168 87q0 -2 7 -4q23 -3 53.5 -3.5t50.5 -0.5q49 0 87 20t63.5 55.5t38.5 83t13 102.5t-13 102.5t-38.5 83t-63.5 55.5t-87 20q-20 0 -50.5 -0.5t-53.5 -3.5q-7 -2 -7 -4v-206q0 -6 5 -6h28q17 0 30 -12t13 -29t-13 -29t-30 -12h-28q-5 0 -5 -6v-206zM77 34q0 5 1 13
t2 25.5t2 48t1 81.5v91q0 6 -5 6h-28q-18 0 -30.5 12t-12.5 29t12.5 29t30.5 12h28q5 0 5 6v91q0 51 -1 81.5t-2 48t-2 25.5t-1 13q0 14 9.5 24t20.5 10h61q22 0 53.5 1.5t57.5 1.5q67 0 121 -26.5t91.5 -72.5t57.5 -109t20 -135t-20 -135t-57.5 -109t-91.5 -72.5
t-121 -26.5q-9 0 -23 0.5t-29.5 1l-31 1t-27.5 0.5h-61q-11 0 -20.5 10t-9.5 24z" />
    <glyph glyph-name="Ntilde" unicode="&#xd1;" horiz-adv-x="610" 
d="M65 35q0 7 0.5 18.5t1.5 30t1.5 47.5t0.5 71v281q0 60 -3 98.5t-3 69.5q0 14 9.5 24t20.5 10q15 0 33 -25l332 -455v438q0 21 12.5 31.5t29.5 10.5t31.5 -10t14.5 -30q0 -8 -0.5 -19t-1.5 -29.5t-1.5 -47.5t-0.5 -71v-280q0 -60 3 -98.5t3 -69.5q0 -14 -9.5 -24
t-20.5 -10q-14 0 -33 25l-332 454v-438q0 -21 -12.5 -31.5t-29.5 -10.5t-31.5 10t-14.5 30zM214 750q-12 0 -19 9.5t-7 22.5q0 12 6 24.5t16.5 22.5t23.5 16.5t28 6.5q27 0 49.5 -9t36.5 -9q8 1 13.5 6l11 10t10.5 9.5t13 4.5q12 0 19.5 -9.5t7.5 -23.5t-6.5 -26.5
t-17 -22.5t-24.5 -15.5t-28 -5.5q-27 0 -48 9.5t-36 9.5q-8 0 -13.5 -5t-11 -10.5t-11 -10t-13.5 -4.5z" />
    <glyph glyph-name="Ograve" unicode="&#xd2;" horiz-adv-x="626" 
d="M314 71q43 0 78.5 21t61 57.5t40 85.5t14.5 105t-14.5 105t-40 85.5t-61 57.5t-78.5 21q-44 0 -80 -21t-62 -57.5t-40 -85.5t-14 -105t14 -105t40 -85.5t62 -57.5t80 -21zM314 -10q-63 0 -115.5 27.5t-90 75t-58.5 111.5t-21 136t21 136t58.5 111.5t90 75t115.5 27.5
t114.5 -27.5t89 -75t58 -111.5t20.5 -136t-20.5 -136t-58 -111.5t-89 -75t-114.5 -27.5zM209 810q-11 9 -11 21q0 13 15 23.5t34 10.5q13 0 24 -6t18 -15l68 -91q6 -9 6 -16q0 -9 -7 -15t-19 -6q-13 0 -22 7z" />
    <glyph glyph-name="Oacute" unicode="&#xd3;" horiz-adv-x="626" 
d="M314 71q43 0 78.5 21t61 57.5t40 85.5t14.5 105t-14.5 105t-40 85.5t-61 57.5t-78.5 21q-44 0 -80 -21t-62 -57.5t-40 -85.5t-14 -105t14 -105t40 -85.5t62 -57.5t80 -21zM314 -10q-63 0 -115.5 27.5t-90 75t-58.5 111.5t-21 136t21 136t58.5 111.5t90 75t115.5 27.5
t114.5 -27.5t89 -75t58 -111.5t20.5 -136t-20.5 -136t-58 -111.5t-89 -75t-114.5 -27.5zM290 716q-12 0 -19 6t-7 15q0 7 6 16l68 91q8 9 18.5 15t24.5 6q18 0 33 -10.5t15 -23.5q0 -7 -3 -12t-7 -9l-106 -87q-11 -7 -23 -7z" />
    <glyph glyph-name="Ocircumflex" unicode="&#xd4;" horiz-adv-x="626" 
d="M314 71q43 0 78.5 21t61 57.5t40 85.5t14.5 105t-14.5 105t-40 85.5t-61 57.5t-78.5 21q-44 0 -80 -21t-62 -57.5t-40 -85.5t-14 -105t14 -105t40 -85.5t62 -57.5t80 -21zM314 -10q-63 0 -115.5 27.5t-90 75t-58.5 111.5t-21 136t21 136t58.5 111.5t90 75t115.5 27.5
t114.5 -27.5t89 -75t58 -111.5t20.5 -136t-20.5 -136t-58 -111.5t-89 -75t-114.5 -27.5zM223 721q-11 0 -19.5 5.5t-8.5 16.5q0 8 6 14l88 95q5 5 11.5 9t13.5 4q6 0 12.5 -4t11.5 -9l88 -95q6 -6 6 -14q0 -11 -8.5 -16.5t-19.5 -5.5q-13 0 -19 5l-61 42q-5 3 -10 3
q-7 0 -11 -3l-61 -42q-6 -5 -19 -5z" />
    <glyph glyph-name="Otilde" unicode="&#xd5;" horiz-adv-x="626" 
d="M314 71q43 0 78.5 21t61 57.5t40 85.5t14.5 105t-14.5 105t-40 85.5t-61 57.5t-78.5 21q-44 0 -80 -21t-62 -57.5t-40 -85.5t-14 -105t14 -105t40 -85.5t62 -57.5t80 -21zM314 -10q-63 0 -115.5 27.5t-90 75t-58.5 111.5t-21 136t21 136t58.5 111.5t90 75t115.5 27.5
t114.5 -27.5t89 -75t58 -111.5t20.5 -136t-20.5 -136t-58 -111.5t-89 -75t-114.5 -27.5zM223 750q-12 0 -19 9.5t-7 22.5q0 12 6 24.5t16.5 22.5t23.5 16.5t28 6.5q27 0 49.5 -9t36.5 -9q8 1 13.5 6l11 10t10.5 9.5t13 4.5q12 0 19.5 -9.5t7.5 -23.5t-6.5 -26.5t-17 -22.5
t-24.5 -15.5t-28 -5.5q-27 0 -48 9.5t-36 9.5q-8 0 -13.5 -5t-11 -10.5t-11 -10t-13.5 -4.5z" />
    <glyph glyph-name="Odieresis" unicode="&#xd6;" horiz-adv-x="626" 
d="M314 71q43 0 78.5 21t61 57.5t40 85.5t14.5 105t-14.5 105t-40 85.5t-61 57.5t-78.5 21q-44 0 -80 -21t-62 -57.5t-40 -85.5t-14 -105t14 -105t40 -85.5t62 -57.5t80 -21zM314 -10q-63 0 -115.5 27.5t-90 75t-58.5 111.5t-21 136t21 136t58.5 111.5t90 75t115.5 27.5
t114.5 -27.5t89 -75t58 -111.5t20.5 -136t-20.5 -136t-58 -111.5t-89 -75t-114.5 -27.5zM244 751q-25 0 -36 16t-11 39t11 38.5t36 15.5t36.5 -15.5t11.5 -38.5t-11.5 -39t-36.5 -16zM385 751q-25 0 -36 16t-11 39t11 38.5t36 15.5t36.5 -15.5t11.5 -38.5t-11.5 -39
t-36.5 -16z" />
    <glyph glyph-name="multiply" unicode="&#xd7;" horiz-adv-x="408" 
d="M100 143q-16 0 -28.5 11.5t-12.5 29.5q0 17 13 29l69 68q3 3 3 6t-3 6l-69 67q-13 12 -13 30q0 17 12.5 29t28.5 12q17 0 30 -11l68 -69q3 -3 6 -3t6 3l68 69q13 11 30 11q16 0 28.5 -12t12.5 -29q0 -18 -13 -30l-69 -67q-3 -3 -3 -6t3 -6l69 -68q13 -12 13 -29
q0 -18 -12.5 -29.5t-28.5 -11.5q-17 0 -30 12l-68 68q-3 3 -6 3t-6 -3l-68 -68q-14 -12 -30 -12z" />
    <glyph glyph-name="Oslash" unicode="&#xd8;" horiz-adv-x="622" 
d="M189 126q24 -26 56 -40.5t69 -14.5q43 0 78.5 21t61 57.5t40 85.5t14.5 105q0 38 -7 73t-19 64l-291 -334q-5 -5 -5 -11q0 -3 3 -6zM-5 25q0 14 11 27l63 72q5 5 5 13q0 9 -5 19q-20 42 -30 88t-10 96q0 72 21 136t58.5 111.5t90 75t115.5 27.5q51 0 96.5 -19t80.5 -54
q2 -2 3 -2q2 0 4 2l34 39q18 21 32.5 25t28.5 4q15 0 24 -8t9 -20q0 -6 -2.5 -14t-7.5 -13l-62 -70q-5 -5 -5 -13q0 -5 2 -10.5t4 -10.5q21 -42 31 -89t10 -97q0 -72 -20.5 -136t-58 -111.5t-89 -75t-114.5 -27.5q-54 0 -99.5 19.5t-80.5 56.5q-3 3 -5 3t-4 -2l-33 -39
q-18 -21 -33.5 -27.5t-29.5 -6.5q-17 0 -25.5 9.5t-8.5 21.5zM430 539q6 7 6 10t-5 8q-24 24 -54.5 38t-62.5 14q-44 0 -80 -21t-62 -57.5t-40 -85.5t-14 -105q0 -35 6.5 -69t17.5 -64z" />
    <glyph glyph-name="Ugrave" unicode="&#xd9;" horiz-adv-x="580" 
d="M67 478q0 52 -0.5 82.5t-1.5 47.5t-1.5 24.5t-0.5 12.5q0 20 14.5 30t31.5 10t30 -10.5t13 -31.5v-445q0 -26 11.5 -49t31 -40.5t44 -27.5t51.5 -10t52 10t44 27.5t30.5 40.5t11.5 49v445q0 21 13 31.5t30 10.5t31.5 -10t14.5 -30q0 -5 -0.5 -12.5t-1.5 -24.5t-1.5 -47.5
t-0.5 -82.5v-276q0 -44 -17 -82.5t-47 -67.5t-71 -45.5t-88 -16.5t-87.5 16.5t-70.5 45.5t-47.5 67.5t-17.5 82.5v276zM186 810q-11 9 -11 21q0 13 15 23.5t34 10.5q13 0 24 -6t18 -15l68 -91q6 -9 6 -16q0 -9 -7 -15t-19 -6q-13 0 -22 7z" />
    <glyph glyph-name="Uacute" unicode="&#xda;" horiz-adv-x="580" 
d="M67 478q0 52 -0.5 82.5t-1.5 47.5t-1.5 24.5t-0.5 12.5q0 20 14.5 30t31.5 10t30 -10.5t13 -31.5v-445q0 -26 11.5 -49t31 -40.5t44 -27.5t51.5 -10t52 10t44 27.5t30.5 40.5t11.5 49v445q0 21 13 31.5t30 10.5t31.5 -10t14.5 -30q0 -5 -0.5 -12.5t-1.5 -24.5t-1.5 -47.5
t-0.5 -82.5v-276q0 -44 -17 -82.5t-47 -67.5t-71 -45.5t-88 -16.5t-87.5 16.5t-70.5 45.5t-47.5 67.5t-17.5 82.5v276zM267 716q-12 0 -19 6t-7 15q0 7 6 16l68 91q8 9 18.5 15t24.5 6q18 0 33 -10.5t15 -23.5q0 -7 -3 -12t-7 -9l-106 -87q-11 -7 -23 -7z" />
    <glyph glyph-name="Ucircumflex" unicode="&#xdb;" horiz-adv-x="580" 
d="M67 478q0 52 -0.5 82.5t-1.5 47.5t-1.5 24.5t-0.5 12.5q0 20 14.5 30t31.5 10t30 -10.5t13 -31.5v-445q0 -26 11.5 -49t31 -40.5t44 -27.5t51.5 -10t52 10t44 27.5t30.5 40.5t11.5 49v445q0 21 13 31.5t30 10.5t31.5 -10t14.5 -30q0 -5 -0.5 -12.5t-1.5 -24.5t-1.5 -47.5
t-0.5 -82.5v-276q0 -44 -17 -82.5t-47 -67.5t-71 -45.5t-88 -16.5t-87.5 16.5t-70.5 45.5t-47.5 67.5t-17.5 82.5v276zM200 721q-11 0 -19.5 5.5t-8.5 16.5q0 8 6 14l88 95q5 5 11.5 9t13.5 4q6 0 12.5 -4t11.5 -9l88 -95q6 -6 6 -14q0 -11 -8.5 -16.5t-19.5 -5.5
q-13 0 -19 5l-61 42q-5 3 -10 3q-7 0 -11 -3l-61 -42q-6 -5 -19 -5z" />
    <glyph glyph-name="Udieresis" unicode="&#xdc;" horiz-adv-x="580" 
d="M67 478q0 52 -0.5 82.5t-1.5 47.5t-1.5 24.5t-0.5 12.5q0 20 14.5 30t31.5 10t30 -10.5t13 -31.5v-445q0 -26 11.5 -49t31 -40.5t44 -27.5t51.5 -10t52 10t44 27.5t30.5 40.5t11.5 49v445q0 21 13 31.5t30 10.5t31.5 -10t14.5 -30q0 -5 -0.5 -12.5t-1.5 -24.5t-1.5 -47.5
t-0.5 -82.5v-276q0 -44 -17 -82.5t-47 -67.5t-71 -45.5t-88 -16.5t-87.5 16.5t-70.5 45.5t-47.5 67.5t-17.5 82.5v276zM220 751q-25 0 -36 16t-11 39t11 38.5t36 15.5t36.5 -15.5t11.5 -38.5t-11.5 -39t-36.5 -16zM361 751q-25 0 -36 16t-11 39t11 38.5t36 15.5t36.5 -15.5
t11.5 -38.5t-11.5 -39t-36.5 -16z" />
    <glyph glyph-name="Yacute" unicode="&#xdd;" horiz-adv-x="561" 
d="M234 35q0 7 0.5 18t1.5 30t1.5 48t0.5 71v81q0 22 -9.5 46t-21.5 42l-66 96q-35 51 -58.5 83.5t-38 52.5t-21 31.5t-6.5 20.5q0 30 39 30q40 0 61 -30l164 -240l164 240q11 16 26.5 23t33.5 7q39 0 39 -30q0 -9 -6 -20.5t-20.5 -31.5t-38 -52.5t-58.5 -83.5l-66 -96
q-13 -18 -22.5 -42t-9.5 -46v-81q0 -42 0.5 -71t1.5 -48t1.5 -30t0.5 -18q0 -20 -15 -30t-31 -10q-17 0 -32 10t-15 30zM257 716q-12 0 -19 6t-7 15q0 7 6 16l68 91q8 9 18.5 15t24.5 6q18 0 33 -10.5t15 -23.5q0 -7 -3 -12t-7 -9l-106 -87q-11 -7 -23 -7z" />
    <glyph glyph-name="Thorn" unicode="&#xde;" horiz-adv-x="482" 
d="M63 35q0 5 0.5 12.5t1 25t1 48t0.5 81.5v276q0 51 -0.5 81.5t-1 47.5t-1 25t-0.5 13q0 20 14.5 30t31.5 10q16 0 30.5 -10t14.5 -30q0 -5 -0.5 -10.5t-0.5 -16.5t-0.5 -29.5t-0.5 -48.5q0 -1 3 -1h100q40 0 76 -14.5t63.5 -40.5t43.5 -62t16 -80t-16 -80.5t-43.5 -62.5
t-63.5 -40t-76 -14h-100q-1 0 -2 -1h-1q0 -32 0.5 -51t0.5 -30.5t0.5 -17.5t0.5 -10q0 -20 -14.5 -30t-30.5 -10q-17 0 -31.5 10t-14.5 30zM160 228q7 -1 20.5 -1.5t28 -1t27.5 -1t19 -0.5q47 0 79.5 32.5t32.5 85.5q0 54 -32.5 85.5t-79.5 31.5h-17.5t-27 -0.5t-28.5 -1
t-22 -1.5q-8 0 -8 -5v-216q0 -7 8 -7z" />
    <glyph glyph-name="germandbls" unicode="&#xdf;" horiz-adv-x="563" 
d="M68 491q0 36 8 70t29 60.5t57 42.5t93 16h19q33 0 61.5 -9.5t49 -26.5t32 -39.5t11.5 -48.5q0 -29 -7 -49.5t-19 -35.5t-28.5 -26.5t-36.5 -23.5q-38 -23 -56.5 -34.5t-18.5 -28.5q0 -12 13 -24.5t36 -21.5l119 -48q49 -20 78 -49.5t29 -73.5q0 -29 -11.5 -55
t-34.5 -46.5t-57.5 -32.5t-79.5 -12q-36 0 -70 9.5t-59.5 24.5t-41 33t-15.5 34q0 17 13 26.5t29 9.5q15 0 24.5 -9.5t22 -20.5t33.5 -20.5t59 -9.5q19 0 38 4.5t34 12.5t24 20.5t9 29.5q0 15 -16 27.5t-42 23.5l-118 47q-48 19 -73.5 48.5t-25.5 71.5q0 24 6.5 42t20 32.5
t34.5 27.5t49 27q32 15 43.5 32t11.5 38q0 18 -19 32.5t-49 14.5h-22q-32 0 -52 -9.5t-31.5 -25.5t-16 -36t-4.5 -41v-455q0 -17 -11.5 -29t-28.5 -12q-18 0 -30 12t-12 29v455z" />
    <glyph glyph-name="agrave" unicode="&#xe0;" horiz-adv-x="513" 
d="M243 67q28 0 52.5 10.5t42.5 32t28.5 54.5t10.5 79q0 45 -10.5 78.5t-28.5 55t-42.5 32t-52.5 10.5q-27 0 -51 -14t-41 -38t-27 -56t-10 -68t10 -68t27 -56t41 -38t51 -14zM243 -10q-47 0 -86 20t-67.5 54t-44.5 80t-16 99q0 52 16 98t44.5 80.5t67.5 54t86 19.5
q40 0 71.5 -15.5t57.5 -38.5v8q0 18 12 30t29 12t29.5 -12t12.5 -30v-413q0 -17 -12.5 -29t-29.5 -12t-29 12t-12 29v7q-26 -25 -58 -39t-71 -14zM156 625q-11 9 -11 21q0 13 15 23.5t34 10.5q13 0 24 -6t18 -15l68 -91q6 -9 6 -16q0 -9 -7 -15t-19 -6q-13 0 -22 7z" />
    <glyph glyph-name="aacute" unicode="&#xe1;" horiz-adv-x="513" 
d="M243 67q28 0 52.5 10.5t42.5 32t28.5 54.5t10.5 79q0 45 -10.5 78.5t-28.5 55t-42.5 32t-52.5 10.5q-27 0 -51 -14t-41 -38t-27 -56t-10 -68t10 -68t27 -56t41 -38t51 -14zM243 -10q-47 0 -86 20t-67.5 54t-44.5 80t-16 99q0 52 16 98t44.5 80.5t67.5 54t86 19.5
q40 0 71.5 -15.5t57.5 -38.5v8q0 18 12 30t29 12t29.5 -12t12.5 -30v-413q0 -17 -12.5 -29t-29.5 -12t-29 12t-12 29v7q-26 -25 -58 -39t-71 -14zM237 531q-12 0 -19 6t-7 15q0 7 6 16l68 91q8 9 18.5 15t24.5 6q18 0 33 -10.5t15 -23.5q0 -7 -3 -12t-7 -9l-106 -87
q-11 -7 -23 -7z" />
    <glyph glyph-name="acircumflex" unicode="&#xe2;" horiz-adv-x="513" 
d="M243 67q28 0 52.5 10.5t42.5 32t28.5 54.5t10.5 79q0 45 -10.5 78.5t-28.5 55t-42.5 32t-52.5 10.5q-27 0 -51 -14t-41 -38t-27 -56t-10 -68t10 -68t27 -56t41 -38t51 -14zM243 -10q-47 0 -86 20t-67.5 54t-44.5 80t-16 99q0 52 16 98t44.5 80.5t67.5 54t86 19.5
q40 0 71.5 -15.5t57.5 -38.5v8q0 18 12 30t29 12t29.5 -12t12.5 -30v-413q0 -17 -12.5 -29t-29.5 -12t-29 12t-12 29v7q-26 -25 -58 -39t-71 -14zM170 536q-11 0 -19.5 5.5t-8.5 16.5q0 8 6 14l88 95q5 5 11.5 9t13.5 4q6 0 12.5 -4t11.5 -9l88 -95q6 -6 6 -14
q0 -11 -8.5 -16.5t-19.5 -5.5q-13 0 -19 5l-61 42q-5 3 -10 3q-7 0 -11 -3l-61 -42q-6 -5 -19 -5z" />
    <glyph glyph-name="atilde" unicode="&#xe3;" horiz-adv-x="513" 
d="M243 67q28 0 52.5 10.5t42.5 32t28.5 54.5t10.5 79q0 45 -10.5 78.5t-28.5 55t-42.5 32t-52.5 10.5q-27 0 -51 -14t-41 -38t-27 -56t-10 -68t10 -68t27 -56t41 -38t51 -14zM243 -10q-47 0 -86 20t-67.5 54t-44.5 80t-16 99q0 52 16 98t44.5 80.5t67.5 54t86 19.5
q40 0 71.5 -15.5t57.5 -38.5v8q0 18 12 30t29 12t29.5 -12t12.5 -30v-413q0 -17 -12.5 -29t-29.5 -12t-29 12t-12 29v7q-26 -25 -58 -39t-71 -14zM169 565q-12 0 -19 9.5t-7 22.5q0 12 6 24.5t16.5 22.5t23.5 16.5t28 6.5q27 0 49.5 -9t36.5 -9q8 1 13.5 6l11 10t10.5 9.5
t13 4.5q12 0 19.5 -9.5t7.5 -23.5t-6.5 -26.5t-17 -22.5t-24.5 -15.5t-28 -5.5q-27 0 -48 9.5t-36 9.5q-8 0 -13.5 -5t-11 -10.5t-11 -10t-13.5 -4.5z" />
    <glyph glyph-name="adieresis" unicode="&#xe4;" horiz-adv-x="513" 
d="M243 67q28 0 52.5 10.5t42.5 32t28.5 54.5t10.5 79q0 45 -10.5 78.5t-28.5 55t-42.5 32t-52.5 10.5q-27 0 -51 -14t-41 -38t-27 -56t-10 -68t10 -68t27 -56t41 -38t51 -14zM243 -10q-47 0 -86 20t-67.5 54t-44.5 80t-16 99q0 52 16 98t44.5 80.5t67.5 54t86 19.5
q40 0 71.5 -15.5t57.5 -38.5v8q0 18 12 30t29 12t29.5 -12t12.5 -30v-413q0 -17 -12.5 -29t-29.5 -12t-29 12t-12 29v7q-26 -25 -58 -39t-71 -14zM190 566q-25 0 -36 16t-11 39t11 38.5t36 15.5t36.5 -15.5t11.5 -38.5t-11.5 -39t-36.5 -16zM331 566q-25 0 -36 16t-11 39
t11 38.5t36 15.5t36.5 -15.5t11.5 -38.5t-11.5 -39t-36.5 -16z" />
    <glyph glyph-name="aring" unicode="&#xe5;" horiz-adv-x="513" 
d="M243 67q28 0 52.5 10.5t42.5 32t28.5 54.5t10.5 79q0 45 -10.5 78.5t-28.5 55t-42.5 32t-52.5 10.5q-27 0 -51 -14t-41 -38t-27 -56t-10 -68t10 -68t27 -56t41 -38t51 -14zM243 -10q-47 0 -86 20t-67.5 54t-44.5 80t-16 99q0 52 16 98t44.5 80.5t67.5 54t86 19.5
q40 0 71.5 -15.5t57.5 -38.5v8q0 18 12 30t29 12t29.5 -12t12.5 -30v-413q0 -17 -12.5 -29t-29.5 -12t-29 12t-12 29v7q-26 -25 -58 -39t-71 -14zM260 523q-35 0 -59 25t-24 61t24 61.5t59 25.5t59 -25.5t24 -61.5t-24 -61t-59 -25zM260 577q12 0 20 9.5t8 22.5q0 14 -8 23
t-20 9q-11 0 -19.5 -9t-8.5 -23q0 -13 8.5 -22.5t19.5 -9.5z" />
    <glyph glyph-name="ae" unicode="&#xe6;" horiz-adv-x="729" 
d="M10 151q0 27 11.5 54.5t33 49.5t52 36t68.5 14q19 0 33 -0.5t26 -0.5t25 -0.5t31 -0.5t18 14v16q0 37 -25 60.5t-64 23.5q-28 0 -48.5 -8t-36 -17t-27.5 -17t-22 -8q-17 0 -29.5 12.5t-12.5 29.5q0 29 34 46q26 12 60 25t82 13q37 0 62.5 -8.5t41.5 -18t25 -18t14 -8.5
q6 0 14.5 8.5t24 19t39.5 19t60 8.5q51 0 88 -18t61 -46t35 -62t11 -66q0 -17 -8 -31.5t-20.5 -25t-29 -16t-33.5 -5.5h-211q-2 0 -5.5 -0.5t-3.5 -3.5q5 -29 15.5 -57t27 -49.5t38.5 -34.5t50 -13q33 0 54 13.5t41 33.5q8 7 16 11t17 4q14 0 27 -12.5t13 -28.5t-12 -28
q-32 -32 -69.5 -51t-86.5 -19q-45 0 -80.5 15.5t-62.5 42.5q-4 4 -9 4t-9 -3q-19 -11 -37.5 -21.5t-39 -18.5t-44.5 -13t-54 -5q-39 0 -70.5 13.5t-53 35.5t-33.5 51t-12 60zM92 151q0 -33 23 -58t64 -25q20 0 37 5t32.5 13t31 18t32.5 19q8 5 8 9q0 2 -2 6q-7 17 -11 38
t-6 42q-2 7 -8 7h-31t-23.5 -0.5t-26 -0.5h-38.5q-18 0 -33 -7t-26 -17.5t-17 -23.5t-6 -25zM392 308q0 -2 3 -3.5t6 -1.5h203q3 0 6 1.5t3 3.5q0 22 -8.5 42t-23.5 35.5t-35.5 24.5t-44.5 9q-29 0 -49.5 -11.5t-34 -29t-19.5 -36.5t-6 -34z" />
    <glyph glyph-name="ccedilla" unicode="&#xe7;" horiz-adv-x="485" 
d="M210 -47q0 5 2 15t7 29q-39 8 -72.5 27t-59 49t-40 72t-14.5 97q0 57 18.5 103t50 78.5t72.5 50.5t86 18q48 0 88 -18.5t70 -49.5q5 -6 9.5 -14t4.5 -16q0 -18 -13 -29t-29 -11q-8 0 -19 6t-22 16q-14 14 -37.5 26.5t-51.5 12.5t-53.5 -12t-45 -34t-31.5 -54.5t-12 -72.5
q0 -41 12 -73t31.5 -54t45 -34t53.5 -12q29 0 53.5 13t44.5 33q16 16 32 16t28.5 -11.5t12.5 -29.5q0 -16 -12 -28q-27 -27 -61.5 -45t-73.5 -23l-3 -16l5 -3q26 -15 40.5 -34t14.5 -39q0 -21 -11 -35.5t-26.5 -23.5t-33.5 -12.5t-33 -3.5q-27 0 -39.5 10.5t-12.5 22.5
q0 11 7.5 17.5t23.5 6.5q17 0 33.5 5t16.5 16q0 6 -9 10.5t-19.5 9.5t-19 11t-8.5 17z" />
    <glyph glyph-name="egrave" unicode="&#xe8;" horiz-adv-x="501" 
d="M29 243q0 58 16 104.5t44.5 79.5t69 50.5t90.5 17.5q51 0 91 -16t67 -42.5t41 -61.5t14 -72q0 -17 -7.5 -31.5t-20.5 -25t-29 -16t-33 -5.5h-250q-2 0 -5.5 -0.5t-3.5 -3.5q10 -70 51.5 -112t98.5 -42q33 0 64 14t51 33q16 15 33 15q14 0 27 -12.5t13 -28.5t-12 -28
q-33 -32 -80 -51t-96 -19q-51 0 -94 18.5t-74 52t-48.5 80t-17.5 102.5zM372 303q3 0 6 1.5t3 3.5q0 27 -11.5 48t-30 35t-42.5 21t-48 7q-31 0 -55.5 -11t-41 -27.5t-25 -36t-8.5 -36.5q0 -2 3 -3.5t6 -1.5h244zM166 625q-11 9 -11 21q0 13 15 23.5t34 10.5q13 0 24 -6
t18 -15l68 -91q6 -9 6 -16q0 -9 -7 -15t-19 -6q-13 0 -22 7z" />
    <glyph glyph-name="eacute" unicode="&#xe9;" horiz-adv-x="501" 
d="M29 243q0 58 16 104.5t44.5 79.5t69 50.5t90.5 17.5q51 0 91 -16t67 -42.5t41 -61.5t14 -72q0 -17 -7.5 -31.5t-20.5 -25t-29 -16t-33 -5.5h-250q-2 0 -5.5 -0.5t-3.5 -3.5q10 -70 51.5 -112t98.5 -42q33 0 64 14t51 33q16 15 33 15q14 0 27 -12.5t13 -28.5t-12 -28
q-33 -32 -80 -51t-96 -19q-51 0 -94 18.5t-74 52t-48.5 80t-17.5 102.5zM372 303q3 0 6 1.5t3 3.5q0 27 -11.5 48t-30 35t-42.5 21t-48 7q-31 0 -55.5 -11t-41 -27.5t-25 -36t-8.5 -36.5q0 -2 3 -3.5t6 -1.5h244zM247 531q-12 0 -19 6t-7 15q0 7 6 16l68 91q8 9 18.5 15
t24.5 6q18 0 33 -10.5t15 -23.5q0 -7 -3 -12t-7 -9l-106 -87q-11 -7 -23 -7z" />
    <glyph glyph-name="ecircumflex" unicode="&#xea;" horiz-adv-x="501" 
d="M29 243q0 58 16 104.5t44.5 79.5t69 50.5t90.5 17.5q51 0 91 -16t67 -42.5t41 -61.5t14 -72q0 -17 -7.5 -31.5t-20.5 -25t-29 -16t-33 -5.5h-250q-2 0 -5.5 -0.5t-3.5 -3.5q10 -70 51.5 -112t98.5 -42q33 0 64 14t51 33q16 15 33 15q14 0 27 -12.5t13 -28.5t-12 -28
q-33 -32 -80 -51t-96 -19q-51 0 -94 18.5t-74 52t-48.5 80t-17.5 102.5zM372 303q3 0 6 1.5t3 3.5q0 27 -11.5 48t-30 35t-42.5 21t-48 7q-31 0 -55.5 -11t-41 -27.5t-25 -36t-8.5 -36.5q0 -2 3 -3.5t6 -1.5h244zM180 536q-11 0 -19.5 5.5t-8.5 16.5q0 8 6 14l88 95
q5 5 11.5 9t13.5 4q6 0 12.5 -4t11.5 -9l88 -95q6 -6 6 -14q0 -11 -8.5 -16.5t-19.5 -5.5q-13 0 -19 5l-61 42q-5 3 -10 3q-7 0 -11 -3l-61 -42q-6 -5 -19 -5z" />
    <glyph glyph-name="edieresis" unicode="&#xeb;" horiz-adv-x="501" 
d="M29 243q0 58 16 104.5t44.5 79.5t69 50.5t90.5 17.5q51 0 91 -16t67 -42.5t41 -61.5t14 -72q0 -17 -7.5 -31.5t-20.5 -25t-29 -16t-33 -5.5h-250q-2 0 -5.5 -0.5t-3.5 -3.5q10 -70 51.5 -112t98.5 -42q33 0 64 14t51 33q16 15 33 15q14 0 27 -12.5t13 -28.5t-12 -28
q-33 -32 -80 -51t-96 -19q-51 0 -94 18.5t-74 52t-48.5 80t-17.5 102.5zM372 303q3 0 6 1.5t3 3.5q0 27 -11.5 48t-30 35t-42.5 21t-48 7q-31 0 -55.5 -11t-41 -27.5t-25 -36t-8.5 -36.5q0 -2 3 -3.5t6 -1.5h244zM201 566q-25 0 -36 16t-11 39t11 38.5t36 15.5t36.5 -15.5
t11.5 -38.5t-11.5 -39t-36.5 -16zM342 566q-25 0 -36 16t-11 39t11 38.5t36 15.5t36.5 -15.5t11.5 -38.5t-11.5 -39t-36.5 -16z" />
    <glyph glyph-name="igrave" unicode="&#xec;" horiz-adv-x="236" 
d="M78 449q0 18 11.5 30t29.5 12q17 0 28.5 -12t11.5 -30v-413q0 -17 -11.5 -29t-28.5 -12q-18 0 -29.5 12t-11.5 29v413zM14 625q-11 9 -11 21q0 13 15 23.5t34 10.5q13 0 24 -6t18 -15l68 -91q6 -9 6 -16q0 -9 -7 -15t-19 -6q-13 0 -22 7z" />
    <glyph glyph-name="iacute" unicode="&#xed;" horiz-adv-x="236" 
d="M78 449q0 18 11.5 30t29.5 12q17 0 28.5 -12t11.5 -30v-413q0 -17 -11.5 -29t-28.5 -12q-18 0 -29.5 12t-11.5 29v413zM95 531q-12 0 -19 6t-7 15q0 7 6 16l68 91q8 9 18.5 15t24.5 6q18 0 33 -10.5t15 -23.5q0 -7 -3 -12t-7 -9l-106 -87q-11 -7 -23 -7z" />
    <glyph glyph-name="icircumflex" unicode="&#xee;" horiz-adv-x="236" 
d="M78 449q0 18 11.5 30t29.5 12q17 0 28.5 -12t11.5 -30v-413q0 -17 -11.5 -29t-28.5 -12q-18 0 -29.5 12t-11.5 29v413zM28 536q-11 0 -19.5 5.5t-8.5 16.5q0 8 6 14l88 95q5 5 11.5 9t13.5 4q6 0 12.5 -4t11.5 -9l88 -95q6 -6 6 -14q0 -11 -8.5 -16.5t-19.5 -5.5
q-13 0 -19 5l-61 42q-5 3 -10 3q-7 0 -11 -3l-61 -42q-6 -5 -19 -5z" />
    <glyph glyph-name="idieresis" unicode="&#xef;" horiz-adv-x="236" 
d="M78 449q0 18 11.5 30t29.5 12q17 0 28.5 -12t11.5 -30v-413q0 -17 -11.5 -29t-28.5 -12q-18 0 -29.5 12t-11.5 29v413zM48 566q-25 0 -36 16t-11 39t11 38.5t36 15.5t36.5 -15.5t11.5 -38.5t-11.5 -39t-36.5 -16zM189 566q-25 0 -36 16t-11 39t11 38.5t36 15.5
t36.5 -15.5t11.5 -38.5t-11.5 -39t-36.5 -16z" />
    <glyph glyph-name="eth" unicode="&#xf0;" horiz-adv-x="522" 
d="M243 -10q-47 0 -86 20t-67.5 54t-44.5 80t-16 99q0 52 16 98t44.5 80.5t67.5 54t86 19.5q31 0 66.5 -11t62.5 -43v69q0 33 -7.5 52t-18.5 28t-22.5 11t-20.5 2t-16 -8t-15.5 -18t-20.5 -18t-30 -8q-17 0 -23.5 7.5t-6.5 21.5q0 5 3 12.5t6 10.5h-26q-16 0 -28 12t-12 28
q0 15 12 26t28 11h55q8 0 14.5 5t11.5 12q10 15 20.5 25.5t32.5 10.5q17 0 24.5 -8t7.5 -19q0 -7 -5 -15t-5 -14q25 -1 47.5 -9.5t40 -27.5t27.5 -50.5t10 -79.5v-474q0 -17 -12.5 -29t-29.5 -12t-29 12t-12 29v9l-6 -6q-23 -23 -55 -36t-68 -13zM243 67q28 0 52.5 11.5
t42.5 34t28.5 55t10.5 75.5q0 42 -10.5 75t-28.5 55.5t-42.5 34t-52.5 11.5q-27 0 -51 -14t-41 -38t-27 -56t-10 -68t10 -68t27 -56t41 -38t51 -14z" />
    <glyph glyph-name="ntilde" unicode="&#xf1;" horiz-adv-x="505" 
d="M58 449q0 18 11.5 30t29.5 12q17 0 29 -12t12 -30v-35q34 38 73.5 59.5t77.5 21.5q34 0 62.5 -9.5t49.5 -30t32.5 -51.5t11.5 -74v-294q0 -17 -11.5 -29t-29.5 -12q-17 0 -29 12t-12 29v294q0 48 -21 68.5t-53 20.5q-18 0 -40.5 -9t-43.5 -26t-39 -41t-28 -53v-254
q0 -17 -12 -29t-29 -12q-18 0 -29.5 12t-11.5 29v413zM154 565q-12 0 -19 9.5t-7 22.5q0 12 6 24.5t16.5 22.5t23.5 16.5t28 6.5q27 0 49.5 -9t36.5 -9q8 1 13.5 6l11 10t10.5 9.5t13 4.5q12 0 19.5 -9.5t7.5 -23.5t-6.5 -26.5t-17 -22.5t-24.5 -15.5t-28 -5.5
q-27 0 -48 9.5t-36 9.5q-8 0 -13.5 -5t-11 -10.5t-11 -10t-13.5 -4.5z" />
    <glyph glyph-name="ograve" unicode="&#xf2;" horiz-adv-x="486" 
d="M243 -10q-51 0 -91 20t-67.5 54t-41.5 80t-14 99q0 52 14 98t41.5 80.5t67.5 54t91 19.5t91 -19.5t67 -54t41.5 -80.5t14.5 -98q0 -53 -14.5 -99t-41.5 -80t-67 -54t-91 -20zM243 67q30 0 54 14t40.5 38t25.5 56t9 68t-9 68t-25.5 56t-40.5 38t-54 14q-31 0 -55 -14
t-40.5 -38t-25 -56t-8.5 -68t8.5 -68t25 -56t40.5 -38t55 -14zM138 625q-11 9 -11 21q0 13 15 23.5t34 10.5q13 0 24 -6t18 -15l68 -91q6 -9 6 -16q0 -9 -7 -15t-19 -6q-13 0 -22 7z" />
    <glyph glyph-name="oacute" unicode="&#xf3;" horiz-adv-x="486" 
d="M243 -10q-51 0 -91 20t-67.5 54t-41.5 80t-14 99q0 52 14 98t41.5 80.5t67.5 54t91 19.5t91 -19.5t67 -54t41.5 -80.5t14.5 -98q0 -53 -14.5 -99t-41.5 -80t-67 -54t-91 -20zM243 67q30 0 54 14t40.5 38t25.5 56t9 68t-9 68t-25.5 56t-40.5 38t-54 14q-31 0 -55 -14
t-40.5 -38t-25 -56t-8.5 -68t8.5 -68t25 -56t40.5 -38t55 -14zM219 531q-12 0 -19 6t-7 15q0 7 6 16l68 91q8 9 18.5 15t24.5 6q18 0 33 -10.5t15 -23.5q0 -7 -3 -12t-7 -9l-106 -87q-11 -7 -23 -7z" />
    <glyph glyph-name="ocircumflex" unicode="&#xf4;" horiz-adv-x="486" 
d="M243 -10q-51 0 -91 20t-67.5 54t-41.5 80t-14 99q0 52 14 98t41.5 80.5t67.5 54t91 19.5t91 -19.5t67 -54t41.5 -80.5t14.5 -98q0 -53 -14.5 -99t-41.5 -80t-67 -54t-91 -20zM243 67q30 0 54 14t40.5 38t25.5 56t9 68t-9 68t-25.5 56t-40.5 38t-54 14q-31 0 -55 -14
t-40.5 -38t-25 -56t-8.5 -68t8.5 -68t25 -56t40.5 -38t55 -14zM152 536q-11 0 -19.5 5.5t-8.5 16.5q0 8 6 14l88 95q5 5 11.5 9t13.5 4q6 0 12.5 -4t11.5 -9l88 -95q6 -6 6 -14q0 -11 -8.5 -16.5t-19.5 -5.5q-13 0 -19 5l-61 42q-5 3 -10 3q-7 0 -11 -3l-61 -42
q-6 -5 -19 -5z" />
    <glyph glyph-name="otilde" unicode="&#xf5;" horiz-adv-x="486" 
d="M243 -10q-51 0 -91 20t-67.5 54t-41.5 80t-14 99q0 52 14 98t41.5 80.5t67.5 54t91 19.5t91 -19.5t67 -54t41.5 -80.5t14.5 -98q0 -53 -14.5 -99t-41.5 -80t-67 -54t-91 -20zM243 67q30 0 54 14t40.5 38t25.5 56t9 68t-9 68t-25.5 56t-40.5 38t-54 14q-31 0 -55 -14
t-40.5 -38t-25 -56t-8.5 -68t8.5 -68t25 -56t40.5 -38t55 -14zM152 565q-12 0 -19 9.5t-7 22.5q0 12 6 24.5t16.5 22.5t23.5 16.5t28 6.5q27 0 49.5 -9t36.5 -9q8 1 13.5 6l11 10t10.5 9.5t13 4.5q12 0 19.5 -9.5t7.5 -23.5t-6.5 -26.5t-17 -22.5t-24.5 -15.5t-28 -5.5
q-27 0 -48 9.5t-36 9.5q-8 0 -13.5 -5t-11 -10.5t-11 -10t-13.5 -4.5z" />
    <glyph glyph-name="odieresis" unicode="&#xf6;" horiz-adv-x="486" 
d="M243 -10q-51 0 -91 20t-67.5 54t-41.5 80t-14 99q0 52 14 98t41.5 80.5t67.5 54t91 19.5t91 -19.5t67 -54t41.5 -80.5t14.5 -98q0 -53 -14.5 -99t-41.5 -80t-67 -54t-91 -20zM243 67q30 0 54 14t40.5 38t25.5 56t9 68t-9 68t-25.5 56t-40.5 38t-54 14q-31 0 -55 -14
t-40.5 -38t-25 -56t-8.5 -68t8.5 -68t25 -56t40.5 -38t55 -14zM173 566q-25 0 -36 16t-11 39t11 38.5t36 15.5t36.5 -15.5t11.5 -38.5t-11.5 -39t-36.5 -16zM314 566q-25 0 -36 16t-11 39t11 38.5t36 15.5t36.5 -15.5t11.5 -38.5t-11.5 -39t-36.5 -16z" />
    <glyph glyph-name="divide" unicode="&#xf7;" horiz-adv-x="466" 
d="M186 141q0 23 10.5 40t36.5 17q24 0 36.5 -17t12.5 -40t-12.5 -39.5t-36.5 -16.5q-23 0 -35 16.5t-12 39.5zM233 377q-23 0 -35 16.5t-12 39.5t10.5 40.5t36.5 17.5q24 0 36.5 -17.5t12.5 -40.5t-12.5 -39.5t-36.5 -16.5zM86 247q-17 0 -28.5 11.5t-11.5 29.5
q0 17 11 28.5t29 11.5h294q17 0 29 -11.5t12 -28.5q0 -18 -12 -29.5t-29 -11.5h-294z" />
    <glyph glyph-name="oslash" unicode="&#xf8;" horiz-adv-x="491" 
d="M11 21q0 5 2 13t8 16l42 48q0 2 -2 6q-16 29 -23 63.5t-7 75.5q0 52 14 98t41.5 80.5t67.5 54t91 19.5q38 0 69.5 -11.5t57.5 -31.5l8 9q15 17 30.5 24t31.5 7q14 0 23 -8t9 -20t-13 -27l-38 -45q17 -31 26.5 -69t9.5 -80q0 -53 -14.5 -99t-41.5 -80t-67 -54t-91 -20
q-41 0 -73 13.5t-58 33.5l-12 -14q-14 -17 -30 -22.5t-30 -5.5q-31 0 -31 26zM319 391q-16 12 -34.5 20t-39.5 8q-31 0 -55.5 -14t-41 -38t-25 -56t-8.5 -68q0 -21 2.5 -40t7.5 -35zM167 98q15 -14 34.5 -22.5t43.5 -8.5q30 0 54 14t40.5 38t25.5 56t9 68q0 22 -3.5 42
t-8.5 38z" />
    <glyph glyph-name="ugrave" unicode="&#xf9;" horiz-adv-x="495" 
d="M53 450q0 17 11.5 29t29.5 12t29.5 -12t11.5 -29v-290q0 -24 11 -41t27.5 -27.5t36.5 -15.5t38 -5t37.5 5t36 15.5t27.5 27.5t11 41v290q0 17 12 29t29 12q18 0 29.5 -12t11.5 -29v-290q0 -43 -18 -74t-46 -51.5t-62.5 -30t-67.5 -9.5q-34 0 -68.5 9.5t-62.5 30t-46 51.5
t-18 74v290zM143 625q-11 9 -11 21q0 13 15 23.5t34 10.5q13 0 24 -6t18 -15l68 -91q6 -9 6 -16q0 -9 -7 -15t-19 -6q-13 0 -22 7z" />
    <glyph glyph-name="uacute" unicode="&#xfa;" horiz-adv-x="495" 
d="M53 450q0 17 11.5 29t29.5 12t29.5 -12t11.5 -29v-290q0 -24 11 -41t27.5 -27.5t36.5 -15.5t38 -5t37.5 5t36 15.5t27.5 27.5t11 41v290q0 17 12 29t29 12q18 0 29.5 -12t11.5 -29v-290q0 -43 -18 -74t-46 -51.5t-62.5 -30t-67.5 -9.5q-34 0 -68.5 9.5t-62.5 30t-46 51.5
t-18 74v290zM224 531q-12 0 -19 6t-7 15q0 7 6 16l68 91q8 9 18.5 15t24.5 6q18 0 33 -10.5t15 -23.5q0 -7 -3 -12t-7 -9l-106 -87q-11 -7 -23 -7z" />
    <glyph glyph-name="ucircumflex" unicode="&#xfb;" horiz-adv-x="495" 
d="M53 450q0 17 11.5 29t29.5 12t29.5 -12t11.5 -29v-290q0 -24 11 -41t27.5 -27.5t36.5 -15.5t38 -5t37.5 5t36 15.5t27.5 27.5t11 41v290q0 17 12 29t29 12q18 0 29.5 -12t11.5 -29v-290q0 -43 -18 -74t-46 -51.5t-62.5 -30t-67.5 -9.5q-34 0 -68.5 9.5t-62.5 30t-46 51.5
t-18 74v290zM157 536q-11 0 -19.5 5.5t-8.5 16.5q0 8 6 14l88 95q5 5 11.5 9t13.5 4q6 0 12.5 -4t11.5 -9l88 -95q6 -6 6 -14q0 -11 -8.5 -16.5t-19.5 -5.5q-13 0 -19 5l-61 42q-5 3 -10 3q-7 0 -11 -3l-61 -42q-6 -5 -19 -5z" />
    <glyph glyph-name="udieresis" unicode="&#xfc;" horiz-adv-x="495" 
d="M53 450q0 17 11.5 29t29.5 12t29.5 -12t11.5 -29v-290q0 -24 11 -41t27.5 -27.5t36.5 -15.5t38 -5t37.5 5t36 15.5t27.5 27.5t11 41v290q0 17 12 29t29 12q18 0 29.5 -12t11.5 -29v-290q0 -43 -18 -74t-46 -51.5t-62.5 -30t-67.5 -9.5q-34 0 -68.5 9.5t-62.5 30t-46 51.5
t-18 74v290zM177 566q-25 0 -36 16t-11 39t11 38.5t36 15.5t36.5 -15.5t11.5 -38.5t-11.5 -39t-36.5 -16zM318 566q-25 0 -36 16t-11 39t11 38.5t36 15.5t36.5 -15.5t11.5 -38.5t-11.5 -39t-36.5 -16z" />
    <glyph glyph-name="yacute" unicode="&#xfd;" horiz-adv-x="505" 
d="M49 450q0 17 11 29t29 12t29.5 -12t11.5 -29v-295q0 -48 21.5 -68t57.5 -20q20 0 43 9t44.5 26t39.5 40.5t29 52.5v255q0 17 12 29t29 12q18 0 29.5 -12t11.5 -29v-444q0 -40 -6.5 -76t-26 -63.5t-57 -44t-98.5 -16.5h-140q-15 0 -24.5 8t-9.5 24q0 20 15 32t34 12h125
q35 0 56 11t32 29t14.5 41.5t3.5 48.5v60q-33 -38 -75.5 -60t-80.5 -22q-34 0 -63 9.5t-50.5 30t-34 51.5t-12.5 74v295zM239 531q-12 0 -19 6t-7 15q0 7 6 16l68 91q8 9 18.5 15t24.5 6q18 0 33 -10.5t15 -23.5q0 -7 -3 -12t-7 -9l-106 -87q-11 -7 -23 -7z" />
    <glyph glyph-name="thorn" unicode="&#xfe;" horiz-adv-x="513" 
d="M270 66q27 0 51 14t41 38.5t27 56.5t10 68t-10 68t-27 56.5t-41 38.5t-51 14q-28 0 -52.5 -12t-42.5 -34.5t-28.5 -55.5t-10.5 -75q0 -43 10.5 -76t28.5 -55.5t42.5 -34t52.5 -11.5zM141 -158q0 -18 -12 -29.5t-29 -11.5t-29.5 11.5t-12.5 29.5v852q0 17 12.5 28t29.5 11
t29 -11t12 -28v-252q25 23 58 38t71 15q46 0 85.5 -19.5t68 -54t44.5 -80.5t16 -98q0 -53 -16 -99t-44.5 -80t-68 -54t-85.5 -20q-38 0 -70.5 15t-58.5 39v-202z" />
    <glyph glyph-name="ydieresis" unicode="&#xff;" horiz-adv-x="505" 
d="M49 450q0 17 11 29t29 12t29.5 -12t11.5 -29v-295q0 -48 21.5 -68t57.5 -20q20 0 43 9t44.5 26t39.5 40.5t29 52.5v255q0 17 12 29t29 12q18 0 29.5 -12t11.5 -29v-444q0 -40 -6.5 -76t-26 -63.5t-57 -44t-98.5 -16.5h-140q-15 0 -24.5 8t-9.5 24q0 20 15 32t34 12h125
q35 0 56 11t32 29t14.5 41.5t3.5 48.5v60q-33 -38 -75.5 -60t-80.5 -22q-34 0 -63 9.5t-50.5 30t-34 51.5t-12.5 74v295zM192 566q-25 0 -36 16t-11 39t11 38.5t36 15.5t36.5 -15.5t11.5 -38.5t-11.5 -39t-36.5 -16zM333 566q-25 0 -36 16t-11 39t11 38.5t36 15.5
t36.5 -15.5t11.5 -38.5t-11.5 -39t-36.5 -16z" />
    <glyph glyph-name="OE" unicode="&#x152;" horiz-adv-x="850" 
d="M322 -3q-67 0 -121 26.5t-91.5 72.5t-58 109t-20.5 135t20.5 135t58 109t91.5 72.5t121 26.5q26 0 47.5 -1.5t43.5 -1.5h349q20 0 29.5 -13t9.5 -30q0 -16 -9.5 -30.5t-29.5 -14.5q-5 0 -13 0.5t-25 1t-47.5 1t-81.5 0.5h-77q-5 0 -5 -6v-200q0 -6 5 -6h173
q18 0 29.5 -13.5t11.5 -29.5t-11.5 -29.5t-29.5 -13.5h-173q-5 0 -5 -6v-200q0 -6 5 -6h77q51 0 81.5 0.5t47.5 1t25 1t13 0.5q20 0 29.5 -14.5t9.5 -30.5q0 -17 -9.5 -30t-29.5 -13h-349q-25 0 -49 -1.5t-42 -1.5zM321 79q20 0 48.5 0.5t51.5 3.5q6 1 6 4v506q0 2 -6 4
q-23 3 -51.5 3.5t-48.5 0.5q-50 0 -87.5 -20t-63 -55.5t-38.5 -83t-13 -102.5t13 -102.5t38.5 -83t63 -55.5t87.5 -20z" />
    <glyph glyph-name="oe" unicode="&#x153;" horiz-adv-x="871" 
d="M243 67q30 0 54 14t40.5 38t25.5 56t9 68t-9 68t-25.5 56t-40.5 38t-54 14q-31 0 -55 -14t-40.5 -38t-25 -56t-8.5 -68t8.5 -68t25 -56t40.5 -38t55 -14zM243 -10q-51 0 -91 20t-67.5 54t-41.5 80t-14 99q0 52 14 98t41.5 80.5t67.5 54t91 19.5q66 0 113 -33t73 -87
q27 54 75.5 87t114.5 33q51 0 91 -18t67.5 -46t41.5 -62t14 -66q0 -17 -8 -31.5t-20.5 -25t-29 -16t-33.5 -5.5h-249q-3 0 -6.5 -0.5t-3.5 -3.5q5 -29 18.5 -57t33.5 -49.5t45 -34.5t53 -13q33 0 64 13.5t51 33.5q8 7 16 11t17 4q14 0 27 -12.5t13 -28.5t-12 -28
q-33 -32 -80 -51t-96 -19q-68 0 -120.5 35t-81.5 90q-25 -57 -72.5 -91t-115.5 -34zM490 308q0 -2 3 -3.5t6 -1.5h243q3 0 6 1.5t3 3.5q0 22 -11.5 42t-30 35.5t-42.5 24.5t-48 9q-31 0 -55 -13t-40.5 -31t-25 -36.5t-8.5 -30.5z" />
    <glyph glyph-name="Scaron" unicode="&#x160;" horiz-adv-x="491" 
d="M56 51q-21 11 -21 34q0 17 13.5 33t32.5 16q3 0 6.5 -1.5t7.5 -3.5l8 -4q27 -15 63 -30.5t81 -15.5q25 0 46.5 8.5t37.5 23.5t25 34.5t9 41.5q0 11 -3.5 24t-15.5 27.5t-36 31t-66 35.5q-57 26 -95.5 49t-62 46t-33 47.5t-9.5 54.5q0 36 15 69t41.5 58t62.5 40t78 15
q17 0 38 -3t42.5 -9t42 -13.5t37.5 -16.5q22 -13 22 -36q0 -18 -12 -32.5t-32 -14.5q-12 0 -25 7q-19 11 -47.5 23t-65.5 12q-22 0 -41.5 -7.5t-34.5 -21t-23.5 -31t-8.5 -37.5q0 -10 4.5 -21.5t17.5 -25.5t36 -29.5t60 -32.5q58 -27 97.5 -51t63 -48.5t33.5 -51t10 -57.5
q0 -38 -16 -73t-44.5 -61t-66.5 -41.5t-81 -15.5q-23 0 -48 4t-50.5 11t-49.5 17t-43 23zM238 730q-7 0 -13.5 4t-11.5 9l-88 95q-6 6 -6 15q0 10 8.5 15.5t19.5 5.5q13 0 19 -5l61 -42q4 -3 11 -3q5 0 10 3l61 42q6 5 19 5q11 0 19.5 -5.5t8.5 -15.5q0 -9 -6 -15l-88 -95
q-5 -5 -11.5 -9t-12.5 -4z" />
    <glyph glyph-name="scaron" unicode="&#x161;" horiz-adv-x="437" 
d="M34 95q0 17 13 26.5t29 9.5q15 0 24.5 -9.5t22 -20.5t33.5 -20.5t59 -9.5q19 0 38 4.5t34 12.5t24 20.5t9 29.5q0 15 -16 27.5t-42 23.5l-118 47q-48 19 -73.5 48.5t-25.5 71.5q0 25 11 49.5t32.5 44t54.5 31.5t78 12q36 0 63 -9t46.5 -20.5t31 -23.5t15.5 -18
q10 -16 10 -27q0 -15 -11 -25t-28 -10t-26 8.5t-20.5 19t-30.5 19.5t-54 9q-16 0 -32 -4t-28.5 -11.5t-20.5 -18.5t-8 -25q0 -12 13 -24.5t36 -21.5l119 -48q49 -20 78 -49.5t29 -73.5q0 -29 -11.5 -55t-34.5 -46.5t-57.5 -32.5t-79.5 -12q-36 0 -70 9.5t-59.5 24.5t-41 33
t-15.5 34zM216 536q-7 0 -13.5 4t-11.5 9l-88 95q-6 6 -6 15q0 10 8.5 15.5t19.5 5.5q13 0 19 -5l61 -42q4 -3 11 -3q5 0 10 3l61 42q6 5 19 5q11 0 19.5 -5.5t8.5 -15.5q0 -9 -6 -15l-88 -95q-5 -5 -11.5 -9t-12.5 -4z" />
    <glyph glyph-name="Ydieresis" unicode="&#x178;" horiz-adv-x="561" 
d="M234 35q0 7 0.5 18t1.5 30t1.5 48t0.5 71v81q0 22 -9.5 46t-21.5 42l-66 96q-35 51 -58.5 83.5t-38 52.5t-21 31.5t-6.5 20.5q0 30 39 30q40 0 61 -30l164 -240l164 240q11 16 26.5 23t33.5 7q39 0 39 -30q0 -9 -6 -20.5t-20.5 -31.5t-38 -52.5t-58.5 -83.5l-66 -96
q-13 -18 -22.5 -42t-9.5 -46v-81q0 -42 0.5 -71t1.5 -48t1.5 -30t0.5 -18q0 -20 -15 -30t-31 -10q-17 0 -32 10t-15 30zM210 751q-25 0 -36 16t-11 39t11 38.5t36 15.5t36.5 -15.5t11.5 -38.5t-11.5 -39t-36.5 -16zM351 751q-25 0 -36 16t-11 39t11 38.5t36 15.5t36.5 -15.5
t11.5 -38.5t-11.5 -39t-36.5 -16z" />
    <glyph glyph-name="Zcaron" unicode="&#x17d;" horiz-adv-x="491" 
d="M17 26q0 14 14.5 34t36.5 59l264 476h-104q-41 0 -69 -0.5t-47 -1t-31 -1t-21 -0.5q-20 0 -30 14.5t-10 30.5q0 17 10.5 30t31.5 13h364q21 0 29 -6.5t8 -20.5q0 -11 -13.5 -30.5t-37.5 -62.5l-265 -475h137q38 0 65.5 0.5t47.5 1t33 1t22 0.5q20 0 29.5 -14.5t9.5 -30.5
q0 -17 -9.5 -30t-31.5 -13h-397q-20 0 -28 6t-8 20zM263 721q-7 0 -13.5 4t-11.5 9l-88 95q-6 6 -6 15q0 10 8.5 15.5t19.5 5.5q13 0 19 -5l61 -42q4 -3 11 -3q5 0 10 3l61 42q6 5 19 5q11 0 19.5 -5.5t8.5 -15.5q0 -9 -6 -15l-88 -95q-5 -5 -11.5 -9t-12.5 -4z" />
    <glyph glyph-name="zcaron" unicode="&#x17e;" horiz-adv-x="417" 
d="M37 28q0 12 9 26l206 354h-174q-17 0 -30.5 11t-13.5 28t11 28t28 11h258q4 0 10.5 -0.5t12.5 -3t10 -8.5t4 -16q0 -5 -1.5 -12t-6.5 -15l-207 -353h198q17 0 28.5 -11t11.5 -28q0 -18 -11.5 -28.5t-28.5 -10.5h-276q-5 0 -11.5 0.5t-12.5 3t-10 8t-4 16.5zM202 555
q-7 0 -13.5 4t-11.5 9l-88 95q-6 6 -6 15q0 10 8.5 15.5t19.5 5.5q13 0 19 -5l61 -42q4 -3 11 -3q5 0 10 3l61 42q6 5 19 5q11 0 19.5 -5.5t8.5 -15.5q0 -9 -6 -15l-88 -95q-5 -5 -11.5 -9t-12.5 -4z" />
    <glyph glyph-name="florin" unicode="&#x192;" horiz-adv-x="370" 
d="M105 402q0 6 -6 6h-39q-17 0 -29 10.5t-12 28.5t12 28.5t29 10.5h39q6 0 6 4q1 36 9.5 70t28.5 61t55.5 43t91.5 16h32q17 0 28.5 -11t11.5 -28q0 -18 -11.5 -28.5t-28.5 -10.5h-32q-31 0 -51 -9.5t-31 -25.5t-15.5 -36t-5.5 -41q0 -4 3 -4h145q18 0 30 -10.5t12 -28.5
t-12 -28.5t-30 -10.5h-145q-3 0 -3 -6v-409q0 -36 -8 -69.5t-29 -60t-57 -42t-92 -15.5q-17 0 -29 10.5t-12 28.5t12 28t29 10q31 0 51.5 9.5t32 24.5t16 35t4.5 41v409z" />
    <glyph glyph-name="circumflex" unicode="&#x2c6;" horiz-adv-x="435" 
d="M127 536q-11 0 -19.5 5.5t-8.5 16.5q0 8 6 14l88 95q5 5 11.5 9t13.5 4q6 0 12.5 -4t11.5 -9l88 -95q6 -6 6 -14q0 -11 -8.5 -16.5t-19.5 -5.5q-13 0 -19 5l-61 42q-5 3 -10 3q-7 0 -11 -3l-61 -42q-6 -5 -19 -5z" />
    <glyph glyph-name="tilde" unicode="&#x2dc;" horiz-adv-x="409" 
d="M113 565q-12 0 -19 9.5t-7 22.5q0 12 6 24.5t16.5 22.5t23.5 16.5t28 6.5q27 0 49.5 -9t36.5 -9q8 1 13.5 6l11 10t10.5 9.5t13 4.5q12 0 19.5 -9.5t7.5 -23.5t-6.5 -26.5t-17 -22.5t-24.5 -15.5t-28 -5.5q-27 0 -48 9.5t-36 9.5q-8 0 -13.5 -5t-11 -10.5t-11 -10
t-13.5 -4.5z" />
    <glyph glyph-name="endash" unicode="&#x2013;" horiz-adv-x="740" 
d="M146 249q-15 0 -29 4.5t-24.5 11.5t-17 15t-6.5 15q0 14 13.5 23t45.5 9h466q14 0 28 -4.5t24.5 -11.5t17 -15.5t6.5 -15.5q0 -14 -13.5 -22.5t-45.5 -8.5h-465v0z" />
    <glyph glyph-name="emdash" unicode="&#x2014;" horiz-adv-x="1004" 
d="M146 249q-15 0 -28.5 4.5t-24 11.5t-17 15t-6.5 15q0 14 13 23t45 9h730q15 0 29 -4.5t24.5 -11.5t17 -15.5t6.5 -15.5q0 -14 -13.5 -22.5t-46.5 -8.5h-729v0z" />
    <glyph glyph-name="quoteleft" unicode="&#x2018;" horiz-adv-x="223" 
d="M110 474q-29 0 -42 23t-13 58q0 15 5 38t14.5 44.5t22.5 36.5t29 15q15 0 25 -9.5t10 -23.5q0 -13 -5.5 -21t-12.5 -15t-12.5 -13.5t-5.5 -16.5q0 -6 4.5 -11.5t10.5 -12.5t10.5 -16t4.5 -22q0 -20 -10.5 -37t-34.5 -17z" />
    <glyph glyph-name="quoteright" unicode="&#x2019;" horiz-adv-x="245" 
d="M90 474q-14 0 -24.5 9.5t-10.5 23.5q0 13 5.5 21t12.5 15t12.5 13.5t5.5 16.5q0 6 -4.5 11.5t-10.5 12t-10.5 15t-4.5 22.5q0 21 11 38t35 17q29 0 41.5 -23t12.5 -58q0 -16 -5 -39t-14.5 -44t-22.5 -36t-29 -15z" />
    <glyph glyph-name="quotesinglbase" unicode="&#x201a;" horiz-adv-x="223" 
d="M65 45q0 20 11 37t35 17q29 0 41.5 -23t12.5 -58q0 -15 -5 -38t-14.5 -44.5t-22.5 -36.5t-29 -15q-14 0 -24.5 9.5t-10.5 23.5q0 13 5.5 21t12.5 15t12.5 13.5t5.5 16.5q0 6 -4.5 11.5t-10.5 12.5t-10.5 15.5t-4.5 22.5z" />
    <glyph glyph-name="quotedblleft" unicode="&#x201c;" horiz-adv-x="350" 
d="M242 474q-29 0 -42 23t-13 58q0 15 5 38t14.5 44.5t22.5 36.5t29 15q15 0 25 -9.5t10 -23.5q0 -13 -5.5 -21t-12.5 -15t-12.5 -13.5t-5.5 -16.5q0 -6 5 -11.5t10.5 -12.5t10.5 -16t5 -22q0 -20 -11 -37t-35 -17zM110 474q-29 0 -42 23t-13 58q0 15 5 38t14.5 44.5
t22.5 36.5t29 15q15 0 25 -9.5t10 -23.5q0 -13 -5.5 -21t-12.5 -15t-12.5 -13.5t-5.5 -16.5q0 -6 4.5 -11.5t10.5 -12.5t10.5 -16t4.5 -22q0 -20 -10.5 -37t-34.5 -17z" />
    <glyph glyph-name="quotedblright" unicode="&#x201d;" horiz-adv-x="350" 
d="M90 474q-14 0 -24.5 9.5t-10.5 23.5q0 13 5.5 21t12.5 15t12.5 13.5t5.5 16.5q0 6 -4.5 11.5t-10.5 12t-10.5 15t-4.5 22.5q0 21 11 38t35 17q29 0 41.5 -23t12.5 -58q0 -16 -5 -39t-14.5 -44t-22.5 -36t-29 -15zM222 474q-14 0 -24.5 9.5t-10.5 23.5q0 13 5.5 21
t12.5 15t12.5 13.5t5.5 16.5q0 6 -4.5 11.5t-10.5 12t-10.5 15t-4.5 22.5q0 21 11 38t35 17q29 0 41.5 -23t12.5 -58q0 -16 -5 -39t-14.5 -44t-22.5 -36t-29 -15z" />
    <glyph glyph-name="quotedblbase" unicode="&#x201e;" horiz-adv-x="350" 
d="M61 45q0 20 11 37t35 17q29 0 41.5 -23t12.5 -58q0 -15 -5 -38t-14.5 -44.5t-22.5 -36.5t-29 -15q-14 0 -24.5 9.5t-10.5 23.5q0 13 5.5 21t12.5 15t12.5 13.5t5.5 16.5q0 6 -4.5 11.5t-10.5 12.5t-10.5 15.5t-4.5 22.5zM193 45q0 20 11 37t35 17q29 0 41.5 -23t12.5 -58
q0 -15 -5 -38t-14.5 -44.5t-22.5 -36.5t-29 -15q-14 0 -24.5 9.5t-10.5 23.5q0 13 5.5 21t12.5 15t12.5 13.5t5.5 16.5q0 6 -4.5 11.5t-10.5 12.5t-10.5 15.5t-4.5 22.5z" />
    <glyph glyph-name="dagger" unicode="&#x2020;" horiz-adv-x="468" 
d="M193 402q0 6 -6 6h-101q-17 0 -29 11t-12 28t12 28t29 11h101q6 0 6 5v154q0 18 11.5 29.5t28.5 11.5q18 0 30 -11.5t12 -29.5v-154q0 -5 5 -5h103q17 0 29.5 -11t12.5 -28t-12.5 -28t-29.5 -11h-103q-5 0 -5 -6v-560q0 -19 -12 -30t-30 -11q-17 0 -28.5 11t-11.5 30v560
z" />
    <glyph glyph-name="daggerdbl" unicode="&#x2021;" horiz-adv-x="468" 
d="M86 143q-17 0 -29 10t-12 29q0 18 12 28.5t29 10.5h101q6 0 6 5v176q0 6 -6 6h-101q-17 0 -29 11t-12 28t12 28t29 11h101q6 0 6 5v153q0 18 11.5 29.5t28.5 11.5q18 0 30 -11.5t12 -29.5v-153q0 -5 5 -5h103q17 0 29.5 -11t12.5 -28t-12.5 -28t-29.5 -11h-103
q-5 0 -5 -6v-176q0 -5 5 -5h103q17 0 29.5 -10.5t12.5 -28.5q0 -19 -12.5 -29t-29.5 -10h-103q-5 0 -5 -6v-295q0 -19 -12 -30t-30 -11q-17 0 -28.5 11t-11.5 30v295q0 6 -6 6h-101v0z" />
    <glyph glyph-name="bullet" unicode="&#x2022;" horiz-adv-x="393" 
d="M195 184q-29 0 -54 11.5t-43.5 31.5t-29 47t-10.5 58t10.5 58.5t29 47.5t43.5 31.5t54 11.5q28 0 53.5 -11.5t44.5 -31.5t30 -47.5t11 -58.5t-11 -58t-30 -47t-44.5 -31.5t-53.5 -11.5z" />
    <glyph glyph-name="ellipsis" unicode="&#x2026;" horiz-adv-x="607" 
d="M64 51q0 23 11 40.5t37 17.5t37 -17.5t11 -40.5t-11 -39.5t-37 -16.5q-23 0 -35.5 16.5t-12.5 39.5zM447 51q0 23 11.5 40.5t36.5 17.5q26 0 37 -17.5t11 -40.5t-11 -39.5t-37 -16.5q-23 0 -35.5 16.5t-12.5 39.5zM255 51q0 23 11 40.5t36 17.5q26 0 37 -17.5t11 -40.5
t-11 -39.5t-37 -16.5q-23 0 -35 16.5t-12 39.5z" />
    <glyph glyph-name="perthousand" unicode="&#x2030;" horiz-adv-x="1182" 
d="M184 332q-31 0 -54.5 15t-39 39.5t-23.5 56t-8 64.5t8 65t23.5 57t39 40t54.5 15t54 -15t38.5 -40t23.5 -57t8 -65t-8 -64.5t-23.5 -56t-38.5 -39.5t-54 -15zM184 397q13 0 23 9.5t17 25.5t10.5 35.5t3.5 39.5t-3.5 40t-10.5 35.5t-17 25.5t-23 10t-23.5 -10t-17.5 -25.5
t-10.5 -35.5t-3.5 -40t3.5 -39.5t10.5 -35.5t17.5 -25.5t23.5 -9.5zM92 21q0 6 2.5 13.5t8.5 15.5l526 608q14 16 31 22t31 6q15 0 24 -7.5t9 -19.5q0 -13 -11 -27l-528 -607q-13 -15 -30 -23t-31 -8t-23 8t-9 19zM507 171q0 33 8 65t23.5 57t39 40t54.5 15t54 -15t38.5 -40
t23.5 -57t8 -65t-8 -64.5t-23.5 -56t-38.5 -39.5t-54 -15t-54.5 15t-39 39.5t-23.5 56t-8 64.5zM577 171q0 -20 3.5 -39.5t10.5 -35.5t17.5 -25.5t23.5 -9.5t23 9.5t17 25.5t10.5 35.5t3.5 39.5t-3.5 40t-10.5 35.5t-17 25.5t-23 10t-23.5 -10t-17.5 -25.5t-10.5 -35.5
t-3.5 -40zM874 171q0 33 8 65t23.5 57t39 40t54.5 15t54 -15t38.5 -40t23.5 -57t8 -65t-8 -64.5t-23.5 -56t-38.5 -39.5t-54 -15t-54.5 15t-39 39.5t-23.5 56t-8 64.5zM944 171q0 -20 3.5 -39.5t10.5 -35.5t17.5 -25.5t23.5 -9.5t23 9.5t17 25.5t10.5 35.5t3.5 39.5t-3.5 40
t-10.5 35.5t-17 25.5t-23 10t-23.5 -10t-17.5 -25.5t-10.5 -35.5t-3.5 -40z" />
    <glyph glyph-name="guilsinglleft" unicode="&#x2039;" horiz-adv-x="333" 
d="M62 246q-17 17 -17 31q0 8 4.5 15t12.5 16l149 143q7 7 15 7q11 0 19 -9t8 -21q0 -7 -6 -16l-88 -123q-4 -5 -5 -8t-1 -4t1 -4t5 -8l88 -123q6 -9 6 -17q0 -11 -8 -20t-19 -9q-8 0 -15 7z" />
    <glyph glyph-name="guilsinglright" unicode="&#x203a;" horiz-adv-x="333" 
d="M106 96q-11 0 -18.5 9t-7.5 20q0 7 5 17l88 123q4 5 5 8t1 4t-1 4t-5 8l-88 123q-5 10 -5 16q0 12 7.5 21t18.5 9q10 0 15 -7l149 -143q18 -18 18 -31q0 -15 -18 -31l-149 -143q-5 -7 -15 -7z" />
    <glyph glyph-name="Euro" unicode="&#x20ac;" horiz-adv-x="626" 
d="M43 235q-18 0 -30 12.5t-12 29.5t12 29.5t30 12.5h19q3 0 3 5v32q0 5 -3 5h-19q-18 0 -30 12.5t-12 29.5t12 29.5t30 12.5h29q5 0 7 9q13 52 38 95.5t59.5 74.5t79 48.5t96.5 17.5q24 0 49.5 -1.5t49 -3.5t44.5 -3.5t36 -1.5q43 0 43 -43q0 -16 -10.5 -30.5t-30.5 -14.5
q-48 0 -99 8.5t-92 8.5q-61 0 -106 -43t-67 -112q-1 -1 -1 -3q-1 -1 -1 -3v-1q0 -2 5 -2h151q17 0 29 -12.5t12 -29.5t-12 -29.5t-29 -12.5h-165q-5 0 -5 -5v-32q0 -5 5 -5h116q17 0 29.5 -12.5t12.5 -29.5t-12.5 -29.5t-29.5 -12.5h-99q-6 0 -6 -1q0 -2 2 -8
q12 -34 31.5 -62.5t44 -48.5t53 -31.5t59.5 -11.5q50 0 85.5 23t67.5 58q8 10 19.5 14.5t20.5 4.5q17 0 30 -10.5t13 -27.5q0 -13 -14 -32q-41 -50 -95.5 -81t-126.5 -31q-49 0 -93.5 17.5t-80.5 49t-63 75t-41 95.5q-2 8 -7 8h-31v0z" />
    <glyph glyph-name="trademark" unicode="&#x2122;" horiz-adv-x="470" 
d="M117 467q-8 0 -16 5t-8 16q0 8 0.5 24.5t0.5 52.5v71q-20 0 -29.5 -1t-16.5 -1q-9 0 -15.5 7t-6.5 16q0 10 6.5 16.5t15.5 6.5h138q8 0 15 -6.5t7 -16.5q0 -9 -7 -16t-15 -7t-17 1t-30 1v-71q0 -36 0.5 -52.5t0.5 -24.5q0 -11 -7.5 -16t-15.5 -5zM218 467q-8 0 -14.5 4.5
t-6.5 12.5t7.5 31t14.5 50l28 104q2 7 5 11t10 4q10 0 14 -14l40 -109l40 109q3 14 14 14q7 0 10 -4t5 -11l28 -104q8 -27 15 -50t7 -31t-6.5 -12.5t-14.5 -4.5t-16 4.5t-10 15.5l-22 88l-35 -93q-6 -15 -15 -15t-15 15l-34 93l-23 -88q-2 -11 -10 -15.5t-16 -4.5z" />
    <glyph glyph-name="glyph220" horiz-adv-x="0" 
 />
    </font>
</defs>
</svg>
